<?xml version="1.0" encoding="UTF-8" standalone="no"?>
<svg
   xmlns:dc="http://purl.org/dc/elements/1.1/"
   xmlns:cc="http://creativecommons.org/ns#"
   xmlns:rdf="http://www.w3.org/1999/02/22-rdf-syntax-ns#"
   xmlns:svg="http://www.w3.org/2000/svg"
   xmlns="http://www.w3.org/2000/svg"
   viewBox="0 0 4000 1336.2999"
   height="1336.2999"
   width="4000"
   xml:space="preserve"
   id="svg2"
   version="1.1"><metadata
     id="metadata8"><rdf:RDF><cc:Work
         rdf:about=""><dc:format>image/svg+xml</dc:format><dc:type
           rdf:resource="http://purl.org/dc/dcmitype/StillImage" /></cc:Work></rdf:RDF></metadata><defs
     id="defs6"><clipPath
       id="clipPath14"
       clipPathUnits="userSpaceOnUse"><path
         id="path12"
         d="M 0,0 H 3000 V 4041.7 H 0 Z" /></clipPath><clipPath
       id="clipPath30"
       clipPathUnits="userSpaceOnUse"><path
         id="path28"
         d="M 0,4041.702 H 3000 V 0 H 0 Z" /></clipPath></defs><g
     clip-path="url(#clipPath14)"
     transform="matrix(1.3333333,0,0,-1.3333333,0,2667.5533)"
     id="g10"><path
       id="path16"
       style="fill:#ffffff;fill-opacity:1;fill-rule:nonzero;stroke:none"
       d="M 0,3028.139 H 3000 V 4041.702 H 0 Z" /><path
       id="path18"
       style="fill:#d4d1c7;fill-opacity:1;fill-rule:nonzero;stroke:none"
       d="M 0,2010.948 H 3000 V 3026.149 H 0 Z" /><path
       id="path20"
       style="fill:#e32514;fill-opacity:1;fill-rule:nonzero;stroke:none"
       d="M 0,0 H 3000 V 1004.021 H 0 Z" /><path
       id="path22"
       style="fill:#1e1e1e;fill-opacity:1;fill-rule:nonzero;stroke:none"
       d="M 0,997.841 H 3000 V 2013.042 H 0 Z" /><g
       id="g24"><g
         clip-path="url(#clipPath30)"
         id="g26"><g
           transform="translate(682.873,3708.4756)"
           id="g32"><path
             id="path34"
             style="fill:#1e1e1e;fill-opacity:1;fill-rule:nonzero;stroke:none"
             d="M 0,0 C 1.571,0.001 2.812,-0.527 3.733,-1.57 4.648,-2.619 5.109,-3.799 5.11,-5.106 l 0.003,-7.858 c -0.264,0 -0.724,-0.136 -1.375,-0.394 -0.656,-0.264 -1.835,-0.983 -3.535,-2.163 -1.706,-1.179 -3.21,-2.425 -4.517,-3.734 -1.313,-1.314 -2.749,-3.144 -4.32,-5.503 -1.57,-2.358 -2.619,-4.979 -3.14,-7.859 l -26.619,-235.759 c -0.262,-4.457 -2.618,-6.681 -7.069,-6.683 l -33.791,-0.013 c -3.929,-0.002 -6.422,2.091 -7.468,6.283 l -35.82,155.185 -36.083,-155.608 c -1.048,-3.93 -3.534,-5.895 -7.462,-5.897 l -34.577,-0.014 c -4.457,-0.002 -6.816,2.22 -7.075,6.676 l -25.639,236.522 c -1.315,4.188 -3.343,7.858 -6.095,11 -2.752,3.142 -5.306,5.235 -7.664,6.283 l -3.144,1.571 -0.003,7.857 c -0.001,1.572 0.459,2.813 1.373,3.735 0.915,0.914 2.16,1.375 3.732,1.375 l 48.328,0.021 c 4.452,0.002 6.81,-2.226 7.076,-6.677 l 13.426,-160.695 1.965,0.001 33.723,161.107 c 1.042,4.189 3.533,6.289 7.462,6.291 l 20.825,0.009 c 3.929,0.001 6.416,-2.098 7.468,-6.284 l 33.858,-161.08 1.571,0.001 14.078,160.707 c 0.52,4.451 2.877,6.681 7.069,6.682 l 33.005,0.014 z" /></g><g
           transform="translate(789.7368,3480.7402)"
           id="g36"><path
             id="path38"
             style="fill:#1e1e1e;fill-opacity:1;fill-rule:nonzero;stroke:none"
             d="m 0,0 -0.054,129.003 c -0.003,7.449 -3.732,11.174 -11.181,11.171 l -16.285,-0.007 c -7.454,-0.003 -11.174,-3.731 -11.171,-11.181 l 0.054,-129.003 c 0.003,-7.454 3.726,-11.173 11.18,-11.171 l 16.286,0.007 C -3.722,-11.178 0.003,-7.454 0,0 m -4.225,176.26 c 13.197,0.006 23.202,-3.399 30.019,-10.206 6.814,-6.812 10.226,-16.815 10.231,-30.011 L 36.085,-7.011 C 36.091,-20.212 32.688,-30.217 25.88,-37.03 19.067,-43.849 9.065,-47.255 -4.131,-47.261 l -31.293,-0.012 c -13.202,-0.006 -23.207,3.392 -30.02,10.205 -6.818,6.807 -10.225,16.809 -10.231,30.01 l -0.06,143.054 c -0.005,13.196 3.393,23.202 10.205,30.02 6.808,6.813 16.81,10.225 30.012,10.231 z" /></g><g
           transform="translate(934.0649,3480.8008)"
           id="g40"><path
             id="path42"
             style="fill:#1e1e1e;fill-opacity:1;fill-rule:nonzero;stroke:none"
             d="m 0,0 -0.054,129.003 c -0.003,7.449 -3.732,11.174 -11.181,11.171 l -16.285,-0.007 c -7.454,-0.003 -11.174,-3.731 -11.171,-11.181 l 0.054,-129.003 c 0.003,-7.454 3.726,-11.173 11.18,-11.171 l 16.286,0.007 C -3.722,-11.178 0.003,-7.454 0,0 m -4.225,176.26 c 13.197,0.006 23.202,-3.399 30.019,-10.206 6.814,-6.812 10.226,-16.815 10.231,-30.011 L 36.085,-7.011 C 36.091,-20.212 32.688,-30.217 25.88,-37.03 19.067,-43.849 9.065,-47.255 -4.131,-47.261 l -31.293,-0.012 c -13.202,-0.006 -23.207,3.392 -30.02,10.205 -6.818,6.807 -10.225,16.809 -10.231,30.01 l -0.06,143.054 c -0.005,13.196 3.393,23.202 10.205,30.02 6.808,6.813 16.81,10.225 30.012,10.231 z" /></g><g
           transform="translate(1243.4238,3708.7109)"
           id="g44"><path
             id="path46"
             style="fill:#1e1e1e;fill-opacity:1;fill-rule:nonzero;stroke:none"
             d="m 0,0 c 1.571,0.001 2.812,-0.527 3.733,-1.569 0.915,-1.05 1.376,-2.23 1.377,-3.537 l 0.003,-7.858 c -0.264,0 -0.724,-0.136 -1.375,-0.393 -0.656,-0.265 -1.835,-0.984 -3.535,-2.164 -1.706,-1.179 -3.21,-2.425 -4.517,-3.734 -1.313,-1.313 -2.749,-3.144 -4.32,-5.503 -1.57,-2.357 -2.619,-4.979 -3.14,-7.859 l -26.619,-235.759 c -0.262,-4.457 -2.618,-6.681 -7.069,-6.683 l -33.791,-0.013 c -3.929,-0.002 -6.422,2.091 -7.468,6.283 l -35.82,155.185 -36.083,-155.608 c -1.048,-3.93 -3.534,-5.895 -7.462,-5.897 l -34.577,-0.014 c -4.457,-0.002 -6.816,2.22 -7.075,6.677 l -25.639,236.522 c -1.315,4.187 -3.343,7.857 -6.095,10.999 -2.752,3.142 -5.306,5.235 -7.664,6.283 l -3.144,1.571 -0.003,7.857 c -0.001,1.572 0.459,2.814 1.373,3.735 0.915,0.914 2.16,1.375 3.732,1.376 l 48.328,0.02 c 4.452,0.002 6.81,-2.226 7.076,-6.677 l 13.426,-160.695 1.965,0.001 33.723,161.107 c 1.042,4.189 3.533,6.289 7.462,6.291 l 20.825,0.009 c 3.929,0.001 6.416,-2.098 7.468,-6.284 l 33.858,-161.08 1.571,0.001 14.078,160.707 c 0.52,4.451 2.877,6.681 7.069,6.682 l 33.005,0.014 z" /></g><g
           transform="translate(1408.8774,3629.4121)"
           id="g48"><path
             id="path50"
             style="fill:#1e1e1e;fill-opacity:1;fill-rule:nonzero;stroke:none"
             d="m 0,0 c 1.043,0.522 2.485,1.241 4.321,2.163 1.829,0.915 4.253,3.077 7.266,6.485 3.007,3.403 4.516,7.204 4.514,11.397 -0.004,9.43 -4.592,14.143 -13.758,14.139 l -17.681,-0.007 c -9.172,-0.004 -13.75,-4.721 -13.746,-14.151 l 0.065,-156.772 c 0.004,-8.907 4.586,-13.357 13.758,-13.353 l 17.681,0.007 c 9.166,0.004 13.75,4.457 13.747,13.364 v 0.394 c -0.002,4.187 -1.379,7.918 -4.131,11.196 -2.752,3.271 -5.442,5.56 -8.057,6.873 l -3.93,1.962 -0.004,7.859 c 0,0.786 0.196,1.571 0.589,2.357 0.392,0.787 0.982,1.376 1.767,1.77 0.786,0.392 1.572,0.589 2.357,0.589 l 51.471,0.415 c 3.666,0.002 5.502,-1.961 5.503,-5.891 l 0.016,-36.934 c 0.007,-16.244 -4.248,-28.555 -12.754,-36.939 -8.512,-8.391 -20.757,-12.582 -36.732,-12.589 l -38.505,-0.016 c -16.245,-0.006 -28.623,4.174 -37.136,12.558 -8.518,8.376 -12.778,20.684 -12.785,36.928 l -0.074,176.025 c -0.007,16.238 4.242,28.549 12.754,36.94 8.506,8.382 20.88,12.582 37.125,12.588 l 38.505,0.016 C 28.121,79.38 40.371,75.191 48.889,66.815 57.402,58.433 61.667,46.126 61.674,29.888 L 61.69,-7.047 c 0.001,-3.671 -1.834,-5.501 -5.499,-5.503 L 4.72,-12.965 c -1.314,0 -2.425,0.522 -3.341,1.571 -0.921,1.042 -1.376,2.221 -1.376,3.536 z" /></g><g
           transform="translate(1658.8232,3491.998)"
           id="g52"><path
             id="path54"
             style="fill:#1e1e1e;fill-opacity:1;fill-rule:nonzero;stroke:none"
             d="m 0,0 -0.066,158.736 c -0.004,9.166 -4.592,13.75 -13.758,13.746 l -20.038,-0.008 c -9.173,-0.004 -13.75,-4.592 -13.746,-13.758 l 0.066,-158.737 c 0.004,-9.171 4.585,-13.75 13.758,-13.746 l 20.038,0.009 C -4.58,-13.754 0.004,-9.172 0,0 m -5.198,216.885 c 16.238,0.007 28.549,-4.181 36.939,-12.558 8.383,-8.383 12.581,-20.689 12.588,-36.928 L 44.403,-8.626 C 44.41,-24.87 40.222,-37.182 31.846,-45.565 23.463,-53.955 11.155,-58.147 -5.083,-58.154 l -38.506,-0.016 c -16.244,-0.007 -28.555,4.175 -36.938,12.558 -8.391,8.376 -12.582,20.684 -12.589,36.928 l -0.074,176.026 c -0.007,16.238 4.174,28.548 12.558,36.938 8.376,8.384 20.684,12.582 36.928,12.589 z" /></g><g
           transform="translate(1869.3945,3561.2383)"
           id="g56"><path
             id="path58"
             style="fill:#1e1e1e;fill-opacity:1;fill-rule:nonzero;stroke:none"
             d="M 0,0 32.219,0.014 16.072,87.626 Z m 98.269,-99.366 c 1.309,-3.142 3.208,-5.959 5.701,-8.445 2.487,-2.491 4.52,-4.191 6.092,-5.105 1.573,-0.92 2.488,-1.374 2.751,-1.374 l 0.003,-7.858 c 10e-4,-1.314 -0.46,-2.494 -1.373,-3.538 -0.921,-1.049 -2.032,-1.572 -3.339,-1.572 l -69.154,-0.029 c -1.313,-10e-4 -2.492,0.52 -3.536,1.569 -1.051,1.044 -1.572,2.223 -1.573,3.536 l -0.003,7.859 c 0.521,0.258 1.24,0.522 2.161,0.787 0.914,0.258 2.356,1.045 4.32,2.358 1.964,1.309 3.732,2.685 5.303,4.129 1.571,1.437 2.878,3.341 3.927,5.698 1.042,2.359 1.305,4.845 0.782,7.466 v 1.179 l -9.45,46.753 -50.293,0.371 -9.017,-47.939 v -0.393 c -0.262,-1.836 -0.194,-3.671 0.2,-5.501 0.393,-1.835 1.044,-3.406 1.965,-4.714 0.916,-1.312 2.029,-2.553 3.342,-3.73 1.309,-1.179 2.616,-2.161 3.931,-2.947 1.308,-0.784 2.487,-1.441 3.537,-1.962 1.043,-0.528 1.83,-0.92 2.358,-1.177 l 1.179,-0.394 0.003,-7.858 c 10e-4,-1.314 -0.527,-2.492 -1.57,-3.536 -1.05,-1.051 -2.229,-1.573 -3.537,-1.574 l -68.759,-0.028 c -1.572,-0.001 -2.812,0.52 -3.733,1.569 -0.916,1.044 -1.376,2.222 -1.377,3.536 l -0.003,7.858 c 1.05,0.523 2.295,1.241 3.732,2.163 1.436,0.916 3.597,3.01 6.48,6.29 2.878,3.273 4.841,6.878 5.89,10.807 l 45.096,209.442 c 0.257,4.187 -0.985,7.986 -3.737,11.393 -2.752,3.4 -5.571,5.756 -8.45,7.068 l -4.323,1.964 -0.004,7.857 c 0,1.573 0.453,2.813 1.374,3.734 0.914,0.915 2.16,1.376 3.731,1.377 l 71.118,0.029 c 3.401,0.002 5.367,-1.568 5.896,-4.712 z" /></g><g
           transform="translate(2143.6143,3629.7207)"
           id="g60"><path
             id="path62"
             style="fill:#1e1e1e;fill-opacity:1;fill-rule:nonzero;stroke:none"
             d="m 0,0 c 1.044,0.522 2.486,1.241 4.321,2.163 1.83,0.915 4.254,3.077 7.268,6.485 3.006,3.403 4.514,7.204 4.513,11.397 -0.004,9.43 -4.592,14.143 -13.758,14.139 l -17.681,-0.007 c -9.172,-0.004 -13.75,-4.721 -13.746,-14.151 l 0.065,-156.772 c 0.004,-8.907 4.586,-13.357 13.758,-13.353 l 17.681,0.007 c 9.166,0.004 13.75,4.457 13.746,13.364 v 0.394 c -0.002,4.187 -1.379,7.918 -4.13,11.196 -2.752,3.271 -5.441,5.56 -8.058,6.873 l -3.93,1.962 -0.003,7.859 c 0,0.786 0.196,1.571 0.589,2.357 0.392,0.787 0.981,1.376 1.766,1.77 0.787,0.392 1.573,0.589 2.359,0.589 l 51.47,0.415 c 3.666,0.002 5.502,-1.961 5.503,-5.891 l 0.016,-36.934 c 0.007,-16.244 -4.249,-28.555 -12.754,-36.939 -8.511,-8.391 -20.758,-12.582 -36.732,-12.589 l -38.506,-0.016 c -16.244,-0.006 -28.622,4.174 -37.135,12.558 -8.518,8.376 -12.778,20.684 -12.785,36.928 l -0.074,176.025 c -0.007,16.238 4.243,28.549 12.755,36.94 8.504,8.382 20.879,12.582 37.124,12.588 l 38.505,0.016 C 28.122,79.38 40.372,75.191 48.891,66.815 57.402,58.433 61.668,46.126 61.675,29.888 L 61.69,-7.047 c 0.002,-3.671 -1.832,-5.501 -5.498,-5.503 l -51.47,-0.415 c -1.315,0 -2.426,0.522 -3.341,1.571 -0.921,1.042 -1.377,2.221 -1.377,3.536 z" /></g><g
           transform="translate(2445.3516,3675.8184)"
           id="g64"><path
             id="path66"
             style="fill:#1e1e1e;fill-opacity:1;fill-rule:nonzero;stroke:none"
             d="m 0,0 0.001,-0.394 0.087,-207.458 v -0.392 c 0.001,-2.621 0.592,-5.175 1.771,-7.661 1.18,-2.492 2.556,-4.456 4.128,-5.893 1.574,-1.441 3.145,-2.748 4.717,-3.927 1.572,-1.177 3.009,-1.901 4.323,-2.159 l 1.572,-0.785 0.003,-7.858 c 0.001,-1.314 -0.527,-2.493 -1.57,-3.537 -1.05,-1.05 -2.228,-1.573 -3.536,-1.573 l -17.288,-0.008 -35.362,-0.014 -16.896,-0.007 c -1.313,-0.001 -2.492,0.52 -3.536,1.569 -1.051,1.044 -1.572,2.223 -1.573,3.536 l -0.003,7.859 c 1.308,0.522 2.878,1.18 4.714,1.967 1.829,0.786 4.254,2.949 7.265,6.486 3.008,3.537 4.516,7.528 4.514,11.985 v 0.393 l -0.034,80.94 -44.006,-0.018 0.034,-81.333 c 0.002,-4.194 1.379,-8.055 4.131,-11.589 2.752,-3.535 5.436,-5.83 8.058,-6.873 l 4.322,-1.963 0.003,-7.858 c 0.001,-1.314 -0.527,-2.493 -1.569,-3.538 -1.05,-1.049 -2.229,-1.572 -3.537,-1.572 l -16.895,-0.008 -35.362,-0.014 -17.288,-0.007 c -1.572,-0.001 -2.818,0.52 -3.733,1.569 -0.922,1.044 -1.376,2.223 -1.377,3.536 l -0.003,7.859 c 0.258,0 0.454,0.061 0.589,0.196 0.129,0.129 0.59,0.394 1.374,0.786 0.786,0.395 1.572,0.787 2.358,1.18 0.786,0.394 1.633,0.916 2.553,1.574 0.914,0.65 1.829,1.375 2.749,2.161 0.915,0.786 1.769,1.702 2.553,2.752 0.786,1.044 1.504,2.162 2.16,3.341 0.651,1.179 1.178,2.486 1.57,3.929 0.392,1.437 0.588,2.948 0.587,4.519 v 0.393 l -0.087,207.458 -0.001,0.393 c -10e-4,4.452 -1.377,8.379 -4.129,11.786 -2.752,3.4 -5.442,5.627 -8.057,6.675 l -4.323,1.964 -0.004,7.858 c 0,1.572 0.453,2.812 1.374,3.733 0.914,0.915 2.16,1.376 3.731,1.377 l 52.651,0.021 c 3.665,0.002 5.502,-1.833 5.503,-5.498 l 0.045,-109.229 44.006,0.018 -0.046,109.23 c -0.001,3.665 1.829,5.502 5.499,5.503 l 52.651,0.022 c 1.307,0 2.486,-0.46 3.537,-1.374 1.044,-0.92 1.572,-2.16 1.572,-3.732 l 0.004,-7.858 c -0.527,0 -1.179,-0.198 -1.964,-0.59 -0.786,-0.393 -2.099,-1.18 -3.928,-2.36 C 8.767,16.31 7.128,14.995 5.692,13.558 4.25,12.114 2.943,10.149 1.766,7.662 0.588,5.169 -0.001,2.615 0,0" /></g><g
           transform="translate(2523.5352,3735.5137)"
           id="g68"><path
             id="path70"
             style="fill:#1e1e1e;fill-opacity:1;fill-rule:nonzero;stroke:none"
             d="m 0,0 v -10.504 h 6.32 c 2.852,0 5.023,0.371 6.512,1.117 1.49,0.744 2.233,2.225 2.233,4.444 0,1.521 -0.649,2.725 -1.947,3.612 C 11.817,-0.444 9.806,0 7.081,0 Z M 0,-32.511 H -7.891 V 6.131 h 18.299 c 2.854,0 5.244,-0.451 7.178,-1.355 1.932,-0.903 3.391,-2.186 4.373,-3.849 0.98,-1.663 1.473,-3.589 1.473,-5.775 0,-2.726 -0.919,-5.079 -2.757,-7.059 -1.838,-1.98 -4.39,-3.193 -7.653,-3.635 1.681,-0.635 3.034,-1.578 4.064,-2.829 1.029,-1.252 2.4,-3.367 4.112,-6.345 l 4.562,-7.795 h -9.743 l -3.185,6.227 c -1.489,2.788 -2.756,4.855 -3.801,6.202 -1.048,1.347 -2.093,2.257 -3.138,2.733 -1.045,0.476 -2.328,0.713 -3.85,0.713 H 0 Z m 8.65,48.766 c -5.293,0 -10.188,-1.307 -14.687,-3.921 -4.499,-2.614 -8.065,-6.172 -10.694,-10.671 -2.63,-4.499 -3.945,-9.395 -3.945,-14.686 0,-5.293 1.322,-10.196 3.968,-14.711 2.645,-4.515 6.219,-8.073 10.718,-10.67 4.499,-2.599 9.381,-3.898 14.64,-3.898 5.355,0 10.257,1.307 14.711,3.921 4.451,2.614 7.977,6.171 10.576,10.671 2.596,4.499 3.896,9.394 3.896,14.687 0,5.323 -1.3,10.234 -3.896,14.734 -2.599,4.499 -6.133,8.048 -10.601,10.646 -4.468,2.598 -9.362,3.898 -14.686,3.898 m -0.095,7.129 c 4.975,0 9.672,-0.926 14.092,-2.78 4.421,-1.854 8.318,-4.467 11.693,-7.843 3.376,-3.374 5.988,-7.272 7.843,-11.692 1.853,-4.42 2.779,-9.118 2.779,-14.092 0,-6.591 -1.624,-12.684 -4.871,-18.276 -3.248,-5.592 -7.669,-10.013 -13.26,-13.261 -5.594,-3.247 -11.685,-4.871 -18.276,-4.871 -6.59,0 -12.684,1.624 -18.275,4.871 -5.593,3.248 -10.014,7.669 -13.261,13.261 -3.248,5.592 -4.873,11.685 -4.873,18.276 0,6.59 1.625,12.682 4.873,18.275 3.247,5.592 7.668,10.012 13.261,13.261 5.591,3.247 11.685,4.871 18.275,4.871" /></g><g
           transform="translate(1006.8652,3320.5205)"
           id="g72"><path
             id="path74"
             style="fill:#1e1e1e;fill-opacity:1;fill-rule:nonzero;stroke:none"
             d="M 0,0 H -4.309 V 54.543 H 0 V 20.508 l 21.8,20.851 3.016,-3.015 C 22.489,36.534 14.993,32.398 9.134,26.28 L 7.669,24.729 28.004,0.689 23.954,-1.206 19.818,3.705 C 19.301,4.309 5.17,22.403 5.17,22.403 L 0,17.405 Z" /></g><g
           transform="translate(1111.6406,3344.7334)"
           id="g76"><path
             id="path78"
             style="fill:#1e1e1e;fill-opacity:1;fill-rule:nonzero;stroke:none"
             d="m 0,0 c 0,8.703 -5.17,14.562 -12.752,14.562 -7.066,0 -11.978,-5.773 -13.012,-14.735 z m -25.936,-3.705 c 0,-11.374 5.945,-19.043 14.82,-19.043 2.069,0 5.171,1.12 7.066,1.981 l 5.946,2.672 1.464,-3.188 c -1.637,-0.69 -8.272,-3.619 -15.165,-3.619 -11.201,0 -18.784,8.358 -18.784,20.938 0,12.408 7.41,20.68 18.44,20.68 9.909,0 16.544,-6.807 16.544,-16.975 v -2.585 l -30.245,0.518 c 0,-0.432 -0.086,-0.862 -0.086,-1.379" /></g><g
           transform="translate(1195.6484,3344.7334)"
           id="g80"><path
             id="path82"
             style="fill:#1e1e1e;fill-opacity:1;fill-rule:nonzero;stroke:none"
             d="m 0,0 c 0,8.703 -5.17,14.562 -12.752,14.562 -7.066,0 -11.978,-5.773 -13.012,-14.735 z m -25.936,-3.705 c 0,-11.374 5.945,-19.043 14.82,-19.043 2.069,0 5.171,1.12 7.066,1.981 l 5.946,2.672 1.464,-3.188 c -1.637,-0.69 -8.272,-3.619 -15.165,-3.619 -11.201,0 -18.784,8.358 -18.784,20.938 0,12.408 7.41,20.68 18.44,20.68 9.909,0 16.544,-6.807 16.544,-16.975 v -2.585 l -30.245,0.518 c 0,-0.432 -0.086,-0.862 -0.086,-1.379" /></g><g
           transform="translate(1256.3052,3327.4141)"
           id="g84"><path
             id="path86"
             style="fill:#1e1e1e;fill-opacity:1;fill-rule:nonzero;stroke:none"
             d="m 0,0 10.254,-3.619 c 2.326,-0.861 4.394,-1.034 5.687,-1.034 5.515,0 9.133,7.152 9.133,17.837 0,10.684 -3.618,17.921 -9.133,17.921 -1.293,0 -3.361,-0.171 -5.687,-1.033 L 0,26.28 Z m -2.327,33.604 1.896,-5.514 9.306,3.791 c 3.102,1.293 5.601,2.154 8.186,2.154 7.668,0 12.667,-8.357 12.667,-20.851 0,-12.495 -4.999,-20.767 -12.667,-20.767 -2.585,0 -5.084,0.948 -8.186,2.154 L 0,-1.896 v -19.387 h -4.309 v 54.629 z" /></g><g
           transform="translate(1404.1592,3357.1416)"
           id="g88"><path
             id="path90"
             style="fill:#1e1e1e;fill-opacity:1;fill-rule:nonzero;stroke:none"
             d="m 0,0 v 2.153 h 7.841 v 8.445 l 4.308,1.982 V 2.153 c 7.325,0 12.495,0.69 14.045,0.69 V 0 H 12.149 v -12.926 c 0,-3.705 -0.689,-12.925 -0.689,-14.389 0,-5.17 2.413,-7.152 8.789,-7.152 0.948,0 3.533,0.604 4.653,0.947 l 0.948,-2.067 c -3.188,-1.12 -6.979,-1.724 -8.272,-1.724 -6.29,0 -9.737,3.448 -9.737,9.996 L 7.841,0 Z" /></g><g
           transform="translate(1496.353,3356.4521)"
           id="g92"><path
             id="path94"
             style="fill:#1e1e1e;fill-opacity:1;fill-rule:nonzero;stroke:none"
             d="m 0,0 c -2.758,0 -5.257,-1.379 -7.411,-3.533 l -3.36,-3.361 v -29.038 h -4.309 v 40.24 l 1.982,0.344 2.327,-8.53 2.93,3.016 c 3.877,3.878 5.945,6.463 10.684,6.463 L 2.24,0 Z" /></g><g
           transform="translate(1559.5098,3340.2529)"
           id="g96"><path
             id="path98"
             style="fill:#1e1e1e;fill-opacity:1;fill-rule:nonzero;stroke:none"
             d="m 0,0 c -6.376,0 -10.081,-3.878 -10.081,-9.651 0,-4.739 2.844,-7.927 8.014,-7.927 0.947,0 3.274,0.172 4.394,0.603 l 11.46,4.136 V 0 Z m 18.096,10.167 v -20.938 c 0,-2.93 1.206,-7.841 1.465,-8.617 l -3.62,-0.689 -1.895,5.343 -10.341,-4.05 c -3.101,-1.207 -4.652,-1.638 -5.945,-1.638 -7.41,0 -12.322,4.395 -12.322,11.115 0,6.894 5.774,11.461 13.787,11.461 h 14.562 v 7.841 c 0,5.859 -3.705,9.047 -10.599,9.047 -3.015,0 -5.945,-0.775 -8.271,-1.809 l -4.826,-2.154 -1.206,3.275 c 1.379,0.602 8.099,2.842 14.303,2.842 9.738,0 14.908,-3.877 14.908,-11.029" /></g><path
           id="path100"
           style="fill:#1e1e1e;fill-opacity:1;fill-rule:nonzero;stroke:none"
           d="m 1631.799,3360.76 h 4.308 v -40.239 h -4.308 z m 3.274,9.651 h -2.24 c -1.034,0 -1.379,0.345 -1.379,1.292 v 2.671 c 0,0.776 0.345,1.121 1.379,1.121 h 2.24 c 1.033,0 1.378,-0.345 1.378,-1.121 v -2.671 c 0,-0.947 -0.345,-1.292 -1.378,-1.292" /><g
           transform="translate(1694.9551,3320.5205)"
           id="g102"><path
             id="path104"
             style="fill:#1e1e1e;fill-opacity:1;fill-rule:nonzero;stroke:none"
             d="m 0,0 h -4.308 v 40.239 l 2.327,0.259 1.636,-5.342 10.686,4.136 c 3.532,1.379 6.203,1.637 8.702,1.637 6.29,0 9.65,-3.533 9.65,-9.995 V 0 h -4.307 v 30.072 c 0,5.342 -2.585,8.272 -7.324,8.272 -1.465,0 -3.791,-0.431 -4.999,-0.862 L 0,33.347 Z" /></g><path
           id="path106"
           style="fill:#1e1e1e;fill-opacity:1;fill-rule:nonzero;stroke:none"
           d="m 1777.844,3360.76 h 4.308 v -40.239 h -4.308 z m 3.274,9.651 h -2.24 c -1.034,0 -1.379,0.345 -1.379,1.292 v 2.671 c 0,0.776 0.345,1.121 1.379,1.121 h 2.24 c 1.033,0 1.378,-0.345 1.378,-1.121 v -2.671 c 0,-0.947 -0.345,-1.292 -1.378,-1.292" /><g
           transform="translate(1841.001,3320.5205)"
           id="g108"><path
             id="path110"
             style="fill:#1e1e1e;fill-opacity:1;fill-rule:nonzero;stroke:none"
             d="m 0,0 h -4.308 v 40.239 l 2.327,0.259 1.636,-5.342 10.686,4.136 c 3.532,1.379 6.203,1.637 8.702,1.637 6.29,0 9.65,-3.533 9.65,-9.995 V 0 h -4.307 v 30.072 c 0,5.342 -2.585,8.272 -7.324,8.272 -1.465,0 -3.791,-0.431 -4.999,-0.862 L 0,33.347 Z" /></g><g
           transform="translate(1940.8633,3357.4863)"
           id="g112"><path
             id="path114"
             style="fill:#1e1e1e;fill-opacity:1;fill-rule:nonzero;stroke:none"
             d="m 0,0 c -2.326,0.861 -4.395,1.033 -5.687,1.033 -5.515,0 -9.133,-7.237 -9.133,-17.922 0,-10.684 3.618,-17.837 9.133,-17.837 1.292,0 3.361,0.173 5.687,1.035 l 10.254,3.619 v 26.28 z m 14.562,-38.861 c 0,-7.41 -5.428,-12.494 -13.701,-12.494 l -15.509,0.085 v 3.534 c 3.101,0 9.737,-1.465 14.82,-1.465 6.549,0 10.082,3.187 10.082,9.047 v 8.186 l -8.875,-3.533 c -3.103,-1.206 -5.602,-2.154 -8.187,-2.154 -7.668,0 -12.666,8.272 -12.666,20.766 0,12.494 4.998,20.852 12.666,20.852 2.585,0 5.084,-0.861 8.187,-2.154 l 9.306,-3.791 1.895,5.514 1.982,-0.259 z" /></g><g
           transform="translate(682.873,2691.2842)"
           id="g116"><path
             id="path118"
             style="fill:#1e1e1e;fill-opacity:1;fill-rule:nonzero;stroke:none"
             d="M 0,0 C 1.571,0.001 2.812,-0.527 3.733,-1.57 4.648,-2.619 5.109,-3.799 5.11,-5.106 l 0.003,-7.858 c -0.264,0 -0.724,-0.136 -1.375,-0.394 -0.656,-0.264 -1.835,-0.983 -3.535,-2.163 -1.706,-1.179 -3.21,-2.425 -4.517,-3.734 -1.313,-1.314 -2.749,-3.144 -4.32,-5.503 -1.57,-2.358 -2.619,-4.979 -3.14,-7.859 l -26.619,-235.759 c -0.262,-4.457 -2.618,-6.681 -7.069,-6.683 l -33.791,-0.013 c -3.929,-0.002 -6.422,2.091 -7.468,6.283 l -35.82,155.185 -36.083,-155.608 c -1.048,-3.93 -3.534,-5.895 -7.462,-5.897 l -34.577,-0.014 c -4.457,-0.002 -6.816,2.22 -7.075,6.676 l -25.639,236.522 c -1.315,4.188 -3.343,7.858 -6.095,11 -2.752,3.142 -5.306,5.235 -7.664,6.283 l -3.144,1.571 -0.003,7.857 c -0.001,1.572 0.459,2.813 1.373,3.735 0.915,0.914 2.16,1.375 3.732,1.375 l 48.328,0.021 c 4.452,0.002 6.81,-2.226 7.076,-6.677 l 13.426,-160.695 1.965,0.001 33.723,161.107 c 1.042,4.189 3.533,6.289 7.462,6.291 l 20.825,0.009 c 3.929,0.001 6.416,-2.098 7.468,-6.284 l 33.858,-161.08 1.571,0.001 14.078,160.707 c 0.52,4.451 2.877,6.681 7.069,6.682 l 33.005,0.014 z" /></g><g
           transform="translate(789.7368,2463.5488)"
           id="g120"><path
             id="path122"
             style="fill:#1e1e1e;fill-opacity:1;fill-rule:nonzero;stroke:none"
             d="m 0,0 -0.054,129.003 c -0.003,7.449 -3.732,11.174 -11.181,11.171 l -16.285,-0.007 c -7.454,-0.003 -11.174,-3.731 -11.171,-11.181 l 0.054,-129.003 c 0.003,-7.454 3.726,-11.173 11.18,-11.171 l 16.286,0.007 C -3.722,-11.178 0.003,-7.454 0,0 m -4.225,176.26 c 13.197,0.006 23.202,-3.399 30.019,-10.206 6.814,-6.812 10.226,-16.815 10.231,-30.011 L 36.085,-7.011 C 36.091,-20.212 32.688,-30.217 25.88,-37.03 19.067,-43.849 9.065,-47.255 -4.131,-47.261 l -31.293,-0.012 c -13.202,-0.006 -23.207,3.392 -30.02,10.205 -6.818,6.807 -10.225,16.809 -10.231,30.01 l -0.06,143.054 c -0.005,13.196 3.393,23.202 10.205,30.02 6.808,6.813 16.81,10.225 30.012,10.231 z" /></g><g
           transform="translate(934.0649,2463.6094)"
           id="g124"><path
             id="path126"
             style="fill:#1e1e1e;fill-opacity:1;fill-rule:nonzero;stroke:none"
             d="m 0,0 -0.054,129.003 c -0.003,7.449 -3.732,11.174 -11.181,11.171 l -16.285,-0.007 c -7.454,-0.003 -11.174,-3.731 -11.171,-11.181 l 0.054,-129.003 c 0.003,-7.454 3.726,-11.173 11.18,-11.171 l 16.286,0.007 C -3.722,-11.178 0.003,-7.454 0,0 m -4.225,176.26 c 13.197,0.006 23.202,-3.399 30.019,-10.206 6.814,-6.812 10.226,-16.815 10.231,-30.011 L 36.085,-7.011 C 36.091,-20.212 32.688,-30.217 25.88,-37.03 19.067,-43.849 9.065,-47.255 -4.131,-47.261 l -31.293,-0.012 c -13.202,-0.006 -23.207,3.392 -30.02,10.205 -6.818,6.807 -10.225,16.809 -10.231,30.01 l -0.06,143.054 c -0.005,13.196 3.393,23.202 10.205,30.02 6.808,6.813 16.81,10.225 30.012,10.231 z" /></g><g
           transform="translate(1243.4238,2691.5195)"
           id="g128"><path
             id="path130"
             style="fill:#1e1e1e;fill-opacity:1;fill-rule:nonzero;stroke:none"
             d="m 0,0 c 1.571,0.001 2.812,-0.527 3.733,-1.569 0.915,-1.05 1.376,-2.23 1.377,-3.537 l 0.003,-7.858 c -0.264,0 -0.724,-0.136 -1.375,-0.393 -0.656,-0.265 -1.835,-0.984 -3.535,-2.164 -1.706,-1.179 -3.21,-2.425 -4.517,-3.734 -1.313,-1.313 -2.749,-3.144 -4.32,-5.503 -1.57,-2.357 -2.619,-4.979 -3.14,-7.859 l -26.619,-235.759 c -0.262,-4.457 -2.618,-6.681 -7.069,-6.683 l -33.791,-0.013 c -3.929,-0.002 -6.422,2.091 -7.468,6.283 l -35.82,155.185 -36.083,-155.608 c -1.048,-3.93 -3.534,-5.895 -7.462,-5.897 l -34.577,-0.014 c -4.457,-0.002 -6.816,2.22 -7.075,6.677 l -25.639,236.522 c -1.315,4.187 -3.343,7.857 -6.095,10.999 -2.752,3.142 -5.306,5.235 -7.664,6.283 l -3.144,1.571 -0.003,7.857 c -0.001,1.572 0.459,2.814 1.373,3.735 0.915,0.914 2.16,1.375 3.732,1.376 l 48.328,0.02 c 4.452,0.002 6.81,-2.226 7.076,-6.677 l 13.426,-160.695 1.965,0.001 33.723,161.107 c 1.042,4.189 3.533,6.289 7.462,6.291 l 20.825,0.009 c 3.929,0.001 6.416,-2.098 7.468,-6.284 l 33.858,-161.08 1.571,0.001 14.078,160.707 c 0.52,4.451 2.877,6.681 7.069,6.682 l 33.005,0.014 z" /></g><g
           transform="translate(1408.8774,2612.2207)"
           id="g132"><path
             id="path134"
             style="fill:#e32514;fill-opacity:1;fill-rule:nonzero;stroke:none"
             d="m 0,0 c 1.043,0.522 2.485,1.241 4.321,2.163 1.829,0.915 4.253,3.077 7.266,6.485 3.007,3.403 4.516,7.204 4.514,11.397 -0.004,9.43 -4.592,14.143 -13.758,14.139 l -17.681,-0.007 c -9.172,-0.004 -13.75,-4.721 -13.746,-14.151 l 0.065,-156.772 c 0.004,-8.907 4.586,-13.357 13.758,-13.353 l 17.681,0.007 c 9.166,0.004 13.75,4.457 13.747,13.364 v 0.394 c -0.002,4.187 -1.379,7.918 -4.131,11.196 -2.752,3.271 -5.442,5.56 -8.057,6.873 l -3.93,1.962 -0.004,7.859 c 0,0.786 0.196,1.571 0.589,2.357 0.392,0.787 0.982,1.376 1.767,1.77 0.786,0.392 1.572,0.589 2.357,0.589 l 51.471,0.415 c 3.666,0.002 5.502,-1.961 5.503,-5.891 l 0.016,-36.934 c 0.007,-16.244 -4.248,-28.555 -12.754,-36.939 -8.512,-8.391 -20.757,-12.582 -36.732,-12.589 l -38.505,-0.016 c -16.245,-0.006 -28.623,4.174 -37.136,12.558 -8.518,8.376 -12.778,20.684 -12.785,36.928 l -0.074,176.025 c -0.007,16.238 4.242,28.549 12.754,36.94 8.506,8.382 20.88,12.582 37.125,12.588 l 38.505,0.016 C 28.121,79.38 40.371,75.191 48.889,66.815 57.402,58.433 61.667,46.126 61.674,29.888 L 61.69,-7.047 c 0.001,-3.671 -1.834,-5.501 -5.499,-5.503 L 4.72,-12.965 c -1.314,0 -2.425,0.522 -3.341,1.571 -0.921,1.042 -1.376,2.221 -1.376,3.536 z" /></g><g
           transform="translate(1658.8232,2474.8066)"
           id="g136"><path
             id="path138"
             style="fill:#e32514;fill-opacity:1;fill-rule:nonzero;stroke:none"
             d="m 0,0 -0.066,158.736 c -0.004,9.166 -4.592,13.75 -13.758,13.746 l -20.038,-0.008 c -9.173,-0.004 -13.75,-4.592 -13.746,-13.758 l 0.066,-158.737 c 0.004,-9.171 4.585,-13.75 13.758,-13.746 l 20.038,0.009 C -4.58,-13.754 0.004,-9.172 0,0 m -5.198,216.885 c 16.238,0.007 28.549,-4.181 36.939,-12.558 8.383,-8.383 12.581,-20.689 12.588,-36.928 L 44.403,-8.626 C 44.41,-24.87 40.222,-37.182 31.846,-45.565 23.463,-53.955 11.155,-58.147 -5.083,-58.154 l -38.506,-0.016 c -16.244,-0.007 -28.555,4.175 -36.938,12.558 -8.391,8.376 -12.582,20.684 -12.589,36.928 l -0.074,176.026 c -0.007,16.238 4.174,28.548 12.558,36.938 8.376,8.384 20.684,12.582 36.928,12.589 z" /></g><g
           transform="translate(1869.3945,2544.0469)"
           id="g140"><path
             id="path142"
             style="fill:#e32514;fill-opacity:1;fill-rule:nonzero;stroke:none"
             d="M 0,0 32.219,0.014 16.072,87.626 Z m 98.269,-99.366 c 1.309,-3.142 3.208,-5.959 5.701,-8.445 2.487,-2.491 4.52,-4.191 6.092,-5.105 1.573,-0.92 2.488,-1.374 2.751,-1.374 l 0.003,-7.858 c 10e-4,-1.314 -0.46,-2.494 -1.373,-3.538 -0.921,-1.049 -2.032,-1.572 -3.339,-1.572 l -69.154,-0.029 c -1.313,-10e-4 -2.492,0.52 -3.536,1.569 -1.051,1.044 -1.572,2.223 -1.573,3.536 l -0.003,7.859 c 0.521,0.258 1.24,0.522 2.161,0.787 0.914,0.258 2.356,1.045 4.32,2.358 1.964,1.309 3.732,2.685 5.303,4.129 1.571,1.437 2.878,3.341 3.927,5.698 1.042,2.359 1.305,4.845 0.782,7.466 v 1.179 l -9.45,46.753 -50.293,0.371 -9.017,-47.939 v -0.393 c -0.262,-1.836 -0.194,-3.671 0.2,-5.501 0.393,-1.835 1.044,-3.406 1.965,-4.714 0.916,-1.312 2.029,-2.553 3.342,-3.73 1.309,-1.179 2.616,-2.161 3.931,-2.947 1.308,-0.784 2.487,-1.441 3.537,-1.962 1.043,-0.528 1.83,-0.92 2.358,-1.177 l 1.179,-0.394 0.003,-7.858 c 10e-4,-1.314 -0.527,-2.492 -1.57,-3.536 -1.05,-1.051 -2.229,-1.573 -3.537,-1.574 l -68.759,-0.028 c -1.572,-0.001 -2.812,0.52 -3.733,1.569 -0.916,1.044 -1.376,2.222 -1.377,3.536 l -0.003,7.858 c 1.05,0.523 2.295,1.241 3.732,2.163 1.436,0.916 3.597,3.01 6.48,6.29 2.878,3.273 4.841,6.878 5.89,10.807 l 45.096,209.442 c 0.257,4.187 -0.985,7.986 -3.737,11.393 -2.752,3.4 -5.571,5.756 -8.45,7.068 l -4.323,1.964 -0.004,7.857 c 0,1.573 0.453,2.813 1.374,3.734 0.914,0.915 2.16,1.376 3.731,1.377 l 71.118,0.029 c 3.401,0.002 5.367,-1.568 5.896,-4.712 z" /></g><g
           transform="translate(2143.6143,2612.5293)"
           id="g144"><path
             id="path146"
             style="fill:#e32514;fill-opacity:1;fill-rule:nonzero;stroke:none"
             d="m 0,0 c 1.044,0.522 2.486,1.241 4.321,2.163 1.83,0.915 4.254,3.077 7.268,6.485 3.006,3.403 4.514,7.204 4.513,11.397 -0.004,9.43 -4.592,14.143 -13.758,14.139 l -17.681,-0.007 c -9.172,-0.004 -13.75,-4.721 -13.746,-14.151 l 0.065,-156.772 c 0.004,-8.907 4.586,-13.357 13.758,-13.353 l 17.681,0.007 c 9.166,0.004 13.75,4.457 13.746,13.364 v 0.394 c -0.002,4.187 -1.379,7.918 -4.13,11.196 -2.752,3.271 -5.441,5.56 -8.058,6.873 l -3.93,1.962 -0.003,7.859 c 0,0.786 0.196,1.571 0.589,2.357 0.392,0.787 0.981,1.376 1.766,1.77 0.787,0.392 1.573,0.589 2.359,0.589 l 51.47,0.415 c 3.666,0.002 5.502,-1.961 5.503,-5.891 l 0.016,-36.934 c 0.007,-16.244 -4.249,-28.555 -12.754,-36.939 -8.511,-8.391 -20.758,-12.582 -36.732,-12.589 l -38.506,-0.016 c -16.244,-0.006 -28.622,4.174 -37.135,12.558 -8.518,8.376 -12.778,20.684 -12.785,36.928 l -0.074,176.025 c -0.007,16.238 4.243,28.549 12.755,36.94 8.504,8.382 20.879,12.582 37.124,12.588 l 38.505,0.016 C 28.122,79.38 40.372,75.191 48.891,66.815 57.402,58.433 61.668,46.126 61.675,29.888 L 61.69,-7.047 c 0.002,-3.671 -1.832,-5.501 -5.498,-5.503 l -51.47,-0.415 c -1.315,0 -2.426,0.522 -3.341,1.571 -0.921,1.042 -1.377,2.221 -1.377,3.536 z" /></g><g
           transform="translate(2445.3516,2658.627)"
           id="g148"><path
             id="path150"
             style="fill:#e32514;fill-opacity:1;fill-rule:nonzero;stroke:none"
             d="m 0,0 0.001,-0.394 0.087,-207.458 v -0.392 c 0.001,-2.621 0.592,-5.175 1.771,-7.661 1.18,-2.492 2.556,-4.456 4.128,-5.893 1.574,-1.441 3.145,-2.748 4.717,-3.927 1.572,-1.177 3.009,-1.901 4.323,-2.159 l 1.572,-0.785 0.003,-7.858 c 0.001,-1.314 -0.527,-2.493 -1.57,-3.537 -1.05,-1.05 -2.228,-1.573 -3.536,-1.573 l -17.288,-0.008 -35.362,-0.014 -16.896,-0.007 c -1.313,-0.001 -2.492,0.52 -3.536,1.569 -1.051,1.044 -1.572,2.223 -1.573,3.536 l -0.003,7.859 c 1.308,0.522 2.878,1.18 4.714,1.967 1.829,0.786 4.254,2.949 7.265,6.486 3.008,3.537 4.516,7.528 4.514,11.985 v 0.393 l -0.034,80.94 -44.006,-0.018 0.034,-81.333 c 0.002,-4.194 1.379,-8.055 4.131,-11.589 2.752,-3.535 5.436,-5.83 8.058,-6.873 l 4.322,-1.963 0.003,-7.858 c 0.001,-1.314 -0.527,-2.493 -1.569,-3.538 -1.05,-1.049 -2.229,-1.572 -3.537,-1.572 l -16.895,-0.008 -35.362,-0.014 -17.288,-0.007 c -1.572,-0.001 -2.818,0.52 -3.733,1.569 -0.922,1.044 -1.376,2.223 -1.377,3.536 l -0.003,7.859 c 0.258,0 0.454,0.061 0.589,0.196 0.129,0.129 0.59,0.394 1.374,0.786 0.786,0.395 1.572,0.787 2.358,1.18 0.786,0.394 1.633,0.916 2.553,1.574 0.914,0.65 1.829,1.375 2.749,2.161 0.915,0.786 1.769,1.702 2.553,2.752 0.786,1.044 1.504,2.162 2.16,3.341 0.651,1.179 1.178,2.486 1.57,3.929 0.392,1.437 0.588,2.948 0.587,4.519 v 0.393 l -0.087,207.458 -0.001,0.393 c -10e-4,4.452 -1.377,8.379 -4.129,11.786 -2.752,3.4 -5.442,5.627 -8.057,6.675 l -4.323,1.964 -0.004,7.858 c 0,1.572 0.453,2.812 1.374,3.733 0.914,0.915 2.16,1.376 3.731,1.377 l 52.651,0.021 c 3.665,0.002 5.502,-1.833 5.503,-5.498 l 0.045,-109.229 44.006,0.018 -0.046,109.23 c -0.001,3.665 1.829,5.502 5.499,5.503 l 52.651,0.022 c 1.307,0 2.486,-0.46 3.537,-1.374 1.044,-0.92 1.572,-2.16 1.572,-3.732 l 0.004,-7.858 c -0.527,0 -1.179,-0.198 -1.964,-0.59 -0.786,-0.393 -2.099,-1.18 -3.928,-2.36 C 8.767,16.31 7.128,14.995 5.692,13.558 4.25,12.114 2.943,10.149 1.766,7.662 0.588,5.169 -0.001,2.615 0,0" /></g><g
           transform="translate(2523.5352,2718.3223)"
           id="g152"><path
             id="path154"
             style="fill:#1e1e1e;fill-opacity:1;fill-rule:nonzero;stroke:none"
             d="m 0,0 v -10.505 h 6.32 c 2.852,0 5.023,0.372 6.512,1.117 1.49,0.744 2.233,2.227 2.233,4.445 0,1.52 -0.649,2.724 -1.947,3.612 C 11.817,-0.444 9.806,0 7.081,0 Z M 0,-32.511 H -7.891 V 6.132 h 18.299 c 2.854,0 5.244,-0.452 7.178,-1.356 1.932,-0.903 3.391,-2.186 4.373,-3.849 0.98,-1.663 1.473,-3.588 1.473,-5.776 0,-2.725 -0.919,-5.078 -2.757,-7.057 -1.838,-1.982 -4.39,-3.194 -7.653,-3.637 1.681,-0.634 3.034,-1.576 4.064,-2.828 1.029,-1.252 2.4,-3.367 4.112,-6.345 l 4.562,-7.795 h -9.743 l -3.185,6.227 c -1.489,2.788 -2.756,4.854 -3.801,6.202 -1.048,1.347 -2.093,2.258 -3.138,2.733 -1.045,0.476 -2.328,0.713 -3.85,0.713 H 0 Z m 8.65,48.766 c -5.293,0 -10.188,-1.307 -14.687,-3.921 -4.499,-2.614 -8.065,-6.172 -10.694,-10.671 -2.63,-4.499 -3.945,-9.395 -3.945,-14.686 0,-5.292 1.322,-10.196 3.968,-14.711 2.645,-4.515 6.219,-8.073 10.718,-10.67 4.499,-2.599 9.381,-3.899 14.64,-3.899 5.355,0 10.257,1.308 14.711,3.922 4.451,2.614 7.977,6.171 10.576,10.671 2.596,4.499 3.896,9.395 3.896,14.687 0,5.323 -1.3,10.234 -3.896,14.734 -2.599,4.499 -6.133,8.048 -10.601,10.646 -4.468,2.598 -9.362,3.898 -14.686,3.898 m -0.095,7.129 c 4.975,0 9.672,-0.927 14.092,-2.78 4.421,-1.854 8.318,-4.467 11.693,-7.842 3.376,-3.375 5.988,-7.273 7.843,-11.694 1.853,-4.419 2.779,-9.117 2.779,-14.091 0,-6.591 -1.624,-12.684 -4.871,-18.276 -3.248,-5.593 -7.669,-10.013 -13.26,-13.261 -5.594,-3.248 -11.685,-4.872 -18.276,-4.872 -6.59,0 -12.684,1.624 -18.275,4.872 -5.593,3.248 -10.014,7.668 -13.261,13.261 -3.248,5.592 -4.873,11.685 -4.873,18.276 0,6.59 1.625,12.681 4.873,18.275 3.247,5.592 7.668,10.012 13.261,13.261 5.591,3.247 11.685,4.871 18.275,4.871" /></g><g
           transform="translate(1006.8652,2303.3291)"
           id="g156"><path
             id="path158"
             style="fill:#1e1e1e;fill-opacity:1;fill-rule:nonzero;stroke:none"
             d="M 0,0 H -4.309 V 54.543 H 0 V 20.508 l 21.8,20.851 3.016,-3.015 C 22.489,36.534 14.993,32.398 9.134,26.28 L 7.669,24.729 28.004,0.689 23.954,-1.206 19.818,3.705 C 19.301,4.309 5.17,22.403 5.17,22.403 L 0,17.405 Z" /></g><g
           transform="translate(1111.6406,2327.542)"
           id="g160"><path
             id="path162"
             style="fill:#1e1e1e;fill-opacity:1;fill-rule:nonzero;stroke:none"
             d="m 0,0 c 0,8.703 -5.17,14.562 -12.752,14.562 -7.066,0 -11.978,-5.773 -13.012,-14.735 z m -25.936,-3.705 c 0,-11.374 5.945,-19.043 14.82,-19.043 2.069,0 5.171,1.12 7.066,1.981 l 5.946,2.672 1.464,-3.188 c -1.637,-0.69 -8.272,-3.619 -15.165,-3.619 -11.201,0 -18.784,8.358 -18.784,20.938 0,12.408 7.41,20.68 18.44,20.68 9.909,0 16.544,-6.807 16.544,-16.975 v -2.585 l -30.245,0.518 c 0,-0.432 -0.086,-0.862 -0.086,-1.379" /></g><g
           transform="translate(1195.6484,2327.542)"
           id="g164"><path
             id="path166"
             style="fill:#1e1e1e;fill-opacity:1;fill-rule:nonzero;stroke:none"
             d="m 0,0 c 0,8.703 -5.17,14.562 -12.752,14.562 -7.066,0 -11.978,-5.773 -13.012,-14.735 z m -25.936,-3.705 c 0,-11.374 5.945,-19.043 14.82,-19.043 2.069,0 5.171,1.12 7.066,1.981 l 5.946,2.672 1.464,-3.188 c -1.637,-0.69 -8.272,-3.619 -15.165,-3.619 -11.201,0 -18.784,8.358 -18.784,20.938 0,12.408 7.41,20.68 18.44,20.68 9.909,0 16.544,-6.807 16.544,-16.975 v -2.585 l -30.245,0.518 c 0,-0.432 -0.086,-0.862 -0.086,-1.379" /></g><g
           transform="translate(1256.3052,2310.2227)"
           id="g168"><path
             id="path170"
             style="fill:#1e1e1e;fill-opacity:1;fill-rule:nonzero;stroke:none"
             d="m 0,0 10.254,-3.619 c 2.326,-0.861 4.394,-1.034 5.687,-1.034 5.515,0 9.133,7.152 9.133,17.837 0,10.684 -3.618,17.921 -9.133,17.921 -1.293,0 -3.361,-0.171 -5.687,-1.033 L 0,26.28 Z m -2.327,33.604 1.896,-5.514 9.306,3.791 c 3.102,1.293 5.601,2.154 8.186,2.154 7.668,0 12.667,-8.357 12.667,-20.851 0,-12.495 -4.999,-20.767 -12.667,-20.767 -2.585,0 -5.084,0.948 -8.186,2.154 L 0,-1.896 v -19.387 h -4.309 v 54.629 z" /></g><g
           transform="translate(1404.1592,2339.9502)"
           id="g172"><path
             id="path174"
             style="fill:#1e1e1e;fill-opacity:1;fill-rule:nonzero;stroke:none"
             d="m 0,0 v 2.153 h 7.841 v 8.445 l 4.308,1.982 V 2.153 c 7.325,0 12.495,0.69 14.045,0.69 V 0 H 12.149 v -12.926 c 0,-3.705 -0.689,-12.925 -0.689,-14.389 0,-5.17 2.413,-7.152 8.789,-7.152 0.948,0 3.533,0.604 4.653,0.947 l 0.948,-2.067 c -3.188,-1.12 -6.979,-1.724 -8.272,-1.724 -6.29,0 -9.737,3.448 -9.737,9.996 L 7.841,0 Z" /></g><g
           transform="translate(1496.353,2339.2607)"
           id="g176"><path
             id="path178"
             style="fill:#1e1e1e;fill-opacity:1;fill-rule:nonzero;stroke:none"
             d="m 0,0 c -2.758,0 -5.257,-1.379 -7.411,-3.533 l -3.36,-3.361 v -29.038 h -4.309 v 40.24 l 1.982,0.344 2.327,-8.53 2.93,3.016 c 3.877,3.878 5.945,6.463 10.684,6.463 L 2.24,0 Z" /></g><g
           transform="translate(1559.5098,2323.0615)"
           id="g180"><path
             id="path182"
             style="fill:#1e1e1e;fill-opacity:1;fill-rule:nonzero;stroke:none"
             d="m 0,0 c -6.376,0 -10.081,-3.878 -10.081,-9.651 0,-4.739 2.844,-7.927 8.014,-7.927 0.947,0 3.274,0.172 4.394,0.603 l 11.46,4.136 V 0 Z m 18.096,10.167 v -20.938 c 0,-2.93 1.206,-7.841 1.465,-8.617 l -3.62,-0.689 -1.895,5.343 -10.341,-4.05 c -3.101,-1.207 -4.652,-1.638 -5.945,-1.638 -7.41,0 -12.322,4.395 -12.322,11.115 0,6.894 5.774,11.461 13.787,11.461 h 14.562 v 7.841 c 0,5.859 -3.705,9.047 -10.599,9.047 -3.015,0 -5.945,-0.775 -8.271,-1.809 l -4.826,-2.154 -1.206,3.275 c 1.379,0.602 8.099,2.842 14.303,2.842 9.738,0 14.908,-3.877 14.908,-11.029" /></g><path
           id="path184"
           style="fill:#1e1e1e;fill-opacity:1;fill-rule:nonzero;stroke:none"
           d="m 1631.799,2343.568 h 4.308 v -40.239 h -4.308 z m 3.274,9.652 h -2.24 c -1.034,0 -1.379,0.344 -1.379,1.292 v 2.671 c 0,0.776 0.345,1.121 1.379,1.121 h 2.24 c 1.033,0 1.378,-0.345 1.378,-1.121 v -2.671 c 0,-0.948 -0.345,-1.292 -1.378,-1.292" /><g
           transform="translate(1694.9551,2303.3291)"
           id="g186"><path
             id="path188"
             style="fill:#1e1e1e;fill-opacity:1;fill-rule:nonzero;stroke:none"
             d="m 0,0 h -4.308 v 40.239 l 2.327,0.259 1.636,-5.342 10.686,4.136 c 3.532,1.379 6.203,1.637 8.702,1.637 6.29,0 9.65,-3.533 9.65,-9.995 V 0 h -4.307 v 30.072 c 0,5.342 -2.585,8.272 -7.324,8.272 -1.465,0 -3.791,-0.431 -4.999,-0.862 L 0,33.347 Z" /></g><path
           id="path190"
           style="fill:#1e1e1e;fill-opacity:1;fill-rule:nonzero;stroke:none"
           d="m 1777.844,2343.568 h 4.308 v -40.239 h -4.308 z m 3.274,9.652 h -2.24 c -1.034,0 -1.379,0.344 -1.379,1.292 v 2.671 c 0,0.776 0.345,1.121 1.379,1.121 h 2.24 c 1.033,0 1.378,-0.345 1.378,-1.121 v -2.671 c 0,-0.948 -0.345,-1.292 -1.378,-1.292" /><g
           transform="translate(1841.001,2303.3291)"
           id="g192"><path
             id="path194"
             style="fill:#1e1e1e;fill-opacity:1;fill-rule:nonzero;stroke:none"
             d="m 0,0 h -4.308 v 40.239 l 2.327,0.259 1.636,-5.342 10.686,4.136 c 3.532,1.379 6.203,1.637 8.702,1.637 6.29,0 9.65,-3.533 9.65,-9.995 V 0 h -4.307 v 30.072 c 0,5.342 -2.585,8.272 -7.324,8.272 -1.465,0 -3.791,-0.431 -4.999,-0.862 L 0,33.347 Z" /></g><g
           transform="translate(1940.8633,2340.2949)"
           id="g196"><path
             id="path198"
             style="fill:#1e1e1e;fill-opacity:1;fill-rule:nonzero;stroke:none"
             d="m 0,0 c -2.326,0.861 -4.395,1.033 -5.687,1.033 -5.515,0 -9.133,-7.237 -9.133,-17.922 0,-10.684 3.618,-17.837 9.133,-17.837 1.292,0 3.361,0.173 5.687,1.035 l 10.254,3.619 v 26.28 z m 14.562,-38.861 c 0,-7.41 -5.428,-12.494 -13.701,-12.494 l -15.509,0.085 v 3.534 c 3.101,0 9.737,-1.465 14.82,-1.465 6.549,0 10.082,3.187 10.082,9.047 v 8.186 l -8.875,-3.533 c -3.103,-1.206 -5.602,-2.154 -8.187,-2.154 -7.668,0 -12.666,8.272 -12.666,20.766 0,12.494 4.998,20.852 12.666,20.852 2.585,0 5.084,-0.861 8.187,-2.154 l 9.306,-3.791 1.895,5.514 1.982,-0.259 z" /></g><g
           transform="translate(682.873,1678.1779)"
           id="g200"><path
             id="path202"
             style="fill:#d4d1c7;fill-opacity:1;fill-rule:nonzero;stroke:none"
             d="M 0,0 C 1.571,0.001 2.812,-0.527 3.733,-1.57 4.648,-2.619 5.109,-3.799 5.11,-5.106 l 0.003,-7.858 c -0.264,0 -0.724,-0.136 -1.375,-0.394 -0.656,-0.264 -1.835,-0.983 -3.535,-2.163 -1.706,-1.179 -3.21,-2.425 -4.517,-3.734 -1.313,-1.314 -2.749,-3.144 -4.32,-5.503 -1.57,-2.358 -2.619,-4.979 -3.14,-7.859 l -26.619,-235.759 c -0.262,-4.457 -2.618,-6.681 -7.069,-6.683 l -33.791,-0.013 c -3.929,-0.002 -6.422,2.091 -7.468,6.283 l -35.82,155.185 -36.083,-155.608 c -1.048,-3.93 -3.534,-5.895 -7.462,-5.897 l -34.577,-0.014 c -4.457,-0.002 -6.816,2.22 -7.075,6.676 l -25.639,236.522 c -1.315,4.188 -3.343,7.858 -6.095,11 -2.752,3.142 -5.306,5.235 -7.664,6.283 l -3.144,1.571 -0.003,7.857 c -0.001,1.572 0.459,2.813 1.373,3.735 0.915,0.914 2.16,1.375 3.732,1.375 l 48.328,0.021 c 4.452,0.002 6.81,-2.226 7.076,-6.677 l 13.426,-160.695 1.965,0.001 33.723,161.107 c 1.042,4.189 3.533,6.289 7.462,6.291 l 20.825,0.009 c 3.929,0.001 6.416,-2.098 7.468,-6.284 l 33.858,-161.08 1.571,0.001 14.078,160.707 c 0.52,4.451 2.877,6.681 7.069,6.682 l 33.005,0.014 z" /></g><g
           transform="translate(789.7368,1450.4425)"
           id="g204"><path
             id="path206"
             style="fill:#d4d1c7;fill-opacity:1;fill-rule:nonzero;stroke:none"
             d="m 0,0 -0.054,129.003 c -0.003,7.449 -3.732,11.174 -11.181,11.171 l -16.285,-0.007 c -7.454,-0.003 -11.174,-3.731 -11.171,-11.181 l 0.054,-129.003 c 0.003,-7.454 3.726,-11.173 11.18,-11.171 l 16.286,0.007 C -3.722,-11.178 0.003,-7.454 0,0 m -4.225,176.26 c 13.197,0.006 23.202,-3.399 30.019,-10.206 6.814,-6.812 10.226,-16.815 10.231,-30.011 L 36.085,-7.011 C 36.091,-20.212 32.688,-30.217 25.88,-37.03 19.067,-43.849 9.065,-47.255 -4.131,-47.261 l -31.293,-0.012 c -13.202,-0.006 -23.207,3.392 -30.02,10.205 -6.818,6.807 -10.225,16.809 -10.231,30.01 l -0.06,143.054 c -0.005,13.196 3.393,23.202 10.205,30.02 6.808,6.813 16.81,10.225 30.012,10.231 z" /></g><g
           transform="translate(934.0649,1450.5031)"
           id="g208"><path
             id="path210"
             style="fill:#d4d1c7;fill-opacity:1;fill-rule:nonzero;stroke:none"
             d="m 0,0 -0.054,129.003 c -0.003,7.449 -3.732,11.174 -11.181,11.171 l -16.285,-0.007 c -7.454,-0.003 -11.174,-3.731 -11.171,-11.181 l 0.054,-129.003 c 0.003,-7.454 3.726,-11.173 11.18,-11.171 l 16.286,0.007 C -3.722,-11.178 0.003,-7.454 0,0 m -4.225,176.26 c 13.197,0.006 23.202,-3.399 30.019,-10.206 6.814,-6.812 10.226,-16.815 10.231,-30.011 L 36.085,-7.011 C 36.091,-20.212 32.688,-30.217 25.88,-37.03 19.067,-43.849 9.065,-47.255 -4.131,-47.261 l -31.293,-0.012 c -13.202,-0.006 -23.207,3.392 -30.02,10.205 -6.818,6.807 -10.225,16.809 -10.231,30.01 l -0.06,143.054 c -0.005,13.196 3.393,23.202 10.205,30.02 6.808,6.813 16.81,10.225 30.012,10.231 z" /></g><g
           transform="translate(1243.4238,1678.4132)"
           id="g212"><path
             id="path214"
             style="fill:#d4d1c7;fill-opacity:1;fill-rule:nonzero;stroke:none"
             d="m 0,0 c 1.571,0.001 2.812,-0.527 3.733,-1.569 0.915,-1.05 1.376,-2.23 1.377,-3.537 l 0.003,-7.858 c -0.264,0 -0.724,-0.136 -1.375,-0.393 -0.656,-0.265 -1.835,-0.984 -3.535,-2.164 -1.706,-1.179 -3.21,-2.425 -4.517,-3.734 -1.313,-1.313 -2.749,-3.144 -4.32,-5.503 -1.57,-2.357 -2.619,-4.979 -3.14,-7.859 l -26.619,-235.759 c -0.262,-4.457 -2.618,-6.681 -7.069,-6.683 l -33.791,-0.013 c -3.929,-0.002 -6.422,2.091 -7.468,6.283 l -35.82,155.185 -36.083,-155.608 c -1.048,-3.93 -3.534,-5.895 -7.462,-5.897 l -34.577,-0.014 c -4.457,-0.002 -6.816,2.22 -7.075,6.677 l -25.639,236.522 c -1.315,4.187 -3.343,7.857 -6.095,10.999 -2.752,3.142 -5.306,5.235 -7.664,6.283 l -3.144,1.571 -0.003,7.857 c -0.001,1.572 0.459,2.814 1.373,3.735 0.915,0.914 2.16,1.375 3.732,1.376 l 48.328,0.02 c 4.452,0.002 6.81,-2.226 7.076,-6.677 l 13.426,-160.695 1.965,0.001 33.723,161.107 c 1.042,4.189 3.533,6.289 7.462,6.291 l 20.825,0.009 c 3.929,0.001 6.416,-2.098 7.468,-6.284 l 33.858,-161.08 1.571,0.001 14.078,160.707 c 0.52,4.451 2.877,6.681 7.069,6.682 l 33.005,0.014 z" /></g><g
           transform="translate(1408.8774,1599.1144)"
           id="g216"><path
             id="path218"
             style="fill:#e32514;fill-opacity:1;fill-rule:nonzero;stroke:none"
             d="m 0,0 c 1.043,0.522 2.485,1.241 4.321,2.163 1.829,0.915 4.253,3.077 7.266,6.485 3.007,3.403 4.516,7.204 4.514,11.397 -0.004,9.43 -4.592,14.143 -13.758,14.139 l -17.681,-0.007 c -9.172,-0.004 -13.75,-4.721 -13.746,-14.151 l 0.065,-156.772 c 0.004,-8.907 4.586,-13.357 13.758,-13.353 l 17.681,0.007 c 9.166,0.004 13.75,4.457 13.747,13.364 v 0.394 c -0.002,4.187 -1.379,7.918 -4.131,11.196 -2.752,3.271 -5.442,5.56 -8.057,6.873 l -3.93,1.962 -0.004,7.859 c 0,0.786 0.196,1.571 0.589,2.357 0.392,0.787 0.982,1.376 1.767,1.77 0.786,0.392 1.572,0.589 2.357,0.589 l 51.471,0.415 c 3.666,0.002 5.502,-1.961 5.503,-5.891 l 0.016,-36.934 c 0.007,-16.244 -4.248,-28.555 -12.754,-36.939 -8.512,-8.391 -20.757,-12.582 -36.732,-12.589 l -38.505,-0.016 c -16.245,-0.006 -28.623,4.174 -37.136,12.558 -8.518,8.376 -12.778,20.684 -12.785,36.928 l -0.074,176.025 c -0.007,16.238 4.242,28.549 12.754,36.94 8.506,8.382 20.88,12.582 37.125,12.588 l 38.505,0.016 C 28.121,79.38 40.371,75.191 48.889,66.815 57.402,58.433 61.667,46.126 61.674,29.888 L 61.69,-7.047 c 0.001,-3.671 -1.834,-5.501 -5.499,-5.503 L 4.72,-12.965 c -1.314,0 -2.425,0.522 -3.341,1.571 -0.921,1.042 -1.376,2.221 -1.376,3.536 z" /></g><g
           transform="translate(1658.8232,1461.7003)"
           id="g220"><path
             id="path222"
             style="fill:#e32514;fill-opacity:1;fill-rule:nonzero;stroke:none"
             d="m 0,0 -0.066,158.736 c -0.004,9.166 -4.592,13.75 -13.758,13.746 l -20.038,-0.008 c -9.173,-0.004 -13.75,-4.592 -13.746,-13.758 l 0.066,-158.737 c 0.004,-9.171 4.585,-13.75 13.758,-13.746 l 20.038,0.009 C -4.58,-13.754 0.004,-9.172 0,0 m -5.198,216.885 c 16.238,0.007 28.549,-4.181 36.939,-12.558 8.383,-8.383 12.581,-20.689 12.588,-36.928 L 44.403,-8.626 C 44.41,-24.87 40.222,-37.182 31.846,-45.565 23.463,-53.955 11.155,-58.147 -5.083,-58.154 l -38.506,-0.016 c -16.244,-0.007 -28.555,4.175 -36.938,12.558 -8.391,8.376 -12.582,20.684 -12.589,36.928 l -0.074,176.026 c -0.007,16.238 4.174,28.548 12.558,36.938 8.376,8.384 20.684,12.582 36.928,12.589 z" /></g><g
           transform="translate(1869.3945,1530.9406)"
           id="g224"><path
             id="path226"
             style="fill:#e32514;fill-opacity:1;fill-rule:nonzero;stroke:none"
             d="M 0,0 32.219,0.014 16.072,87.626 Z m 98.269,-99.366 c 1.309,-3.142 3.208,-5.959 5.701,-8.445 2.487,-2.491 4.52,-4.191 6.092,-5.105 1.573,-0.92 2.488,-1.374 2.751,-1.374 l 0.003,-7.858 c 10e-4,-1.314 -0.46,-2.494 -1.373,-3.538 -0.921,-1.049 -2.032,-1.572 -3.339,-1.572 l -69.154,-0.029 c -1.313,-10e-4 -2.492,0.52 -3.536,1.569 -1.051,1.044 -1.572,2.223 -1.573,3.536 l -0.003,7.859 c 0.521,0.258 1.24,0.522 2.161,0.787 0.914,0.258 2.356,1.045 4.32,2.358 1.964,1.309 3.732,2.685 5.303,4.129 1.571,1.437 2.878,3.341 3.927,5.698 1.042,2.359 1.305,4.845 0.782,7.466 v 1.179 l -9.45,46.753 -50.293,0.371 -9.017,-47.939 v -0.393 c -0.262,-1.836 -0.194,-3.671 0.2,-5.501 0.393,-1.835 1.044,-3.406 1.965,-4.714 0.916,-1.312 2.029,-2.553 3.342,-3.73 1.309,-1.179 2.616,-2.161 3.931,-2.947 1.308,-0.784 2.487,-1.441 3.537,-1.962 1.043,-0.528 1.83,-0.92 2.358,-1.177 l 1.179,-0.394 0.003,-7.858 c 10e-4,-1.314 -0.527,-2.492 -1.57,-3.536 -1.05,-1.051 -2.229,-1.573 -3.537,-1.574 l -68.759,-0.028 c -1.572,-0.001 -2.812,0.52 -3.733,1.569 -0.916,1.044 -1.376,2.222 -1.377,3.536 l -0.003,7.858 c 1.05,0.523 2.295,1.241 3.732,2.163 1.436,0.916 3.597,3.01 6.48,6.29 2.878,3.273 4.841,6.878 5.89,10.807 l 45.096,209.442 c 0.257,4.187 -0.985,7.986 -3.737,11.393 -2.752,3.4 -5.571,5.756 -8.45,7.068 l -4.323,1.964 -0.004,7.857 c 0,1.573 0.453,2.813 1.374,3.734 0.914,0.915 2.16,1.376 3.731,1.377 l 71.118,0.029 c 3.401,0.002 5.367,-1.568 5.896,-4.712 z" /></g><g
           transform="translate(2143.6143,1599.423)"
           id="g228"><path
             id="path230"
             style="fill:#e32514;fill-opacity:1;fill-rule:nonzero;stroke:none"
             d="m 0,0 c 1.044,0.522 2.486,1.241 4.321,2.163 1.83,0.915 4.254,3.077 7.268,6.485 3.006,3.403 4.514,7.204 4.513,11.397 -0.004,9.43 -4.592,14.143 -13.758,14.139 l -17.681,-0.007 c -9.172,-0.004 -13.75,-4.721 -13.746,-14.151 l 0.065,-156.772 c 0.004,-8.907 4.586,-13.357 13.758,-13.353 l 17.681,0.007 c 9.166,0.004 13.75,4.457 13.746,13.364 v 0.394 c -0.002,4.187 -1.379,7.918 -4.13,11.196 -2.752,3.271 -5.441,5.56 -8.058,6.873 l -3.93,1.962 -0.003,7.859 c 0,0.786 0.196,1.571 0.589,2.357 0.392,0.787 0.981,1.376 1.766,1.77 0.787,0.392 1.573,0.589 2.359,0.589 l 51.47,0.415 c 3.666,0.002 5.502,-1.961 5.503,-5.891 l 0.016,-36.934 c 0.007,-16.244 -4.249,-28.555 -12.754,-36.939 -8.511,-8.391 -20.758,-12.582 -36.732,-12.589 l -38.506,-0.016 c -16.244,-0.006 -28.622,4.174 -37.135,12.558 -8.518,8.376 -12.778,20.684 -12.785,36.928 l -0.074,176.025 c -0.007,16.238 4.243,28.549 12.755,36.94 8.504,8.382 20.879,12.582 37.124,12.588 l 38.505,0.016 C 28.122,79.38 40.372,75.191 48.891,66.815 57.402,58.433 61.668,46.126 61.675,29.888 L 61.69,-7.047 c 0.002,-3.671 -1.832,-5.501 -5.498,-5.503 l -51.47,-0.415 c -1.315,0 -2.426,0.522 -3.341,1.571 -0.921,1.042 -1.377,2.221 -1.377,3.536 z" /></g><g
           transform="translate(2445.3516,1645.5206)"
           id="g232"><path
             id="path234"
             style="fill:#e32514;fill-opacity:1;fill-rule:nonzero;stroke:none"
             d="m 0,0 0.001,-0.394 0.087,-207.458 v -0.392 c 0.001,-2.621 0.592,-5.175 1.771,-7.661 1.18,-2.492 2.556,-4.456 4.128,-5.893 1.574,-1.441 3.145,-2.748 4.717,-3.927 1.572,-1.177 3.009,-1.901 4.323,-2.159 l 1.572,-0.785 0.003,-7.858 c 0.001,-1.314 -0.527,-2.493 -1.57,-3.537 -1.05,-1.05 -2.228,-1.573 -3.536,-1.573 l -17.288,-0.008 -35.362,-0.014 -16.896,-0.007 c -1.313,-0.001 -2.492,0.52 -3.536,1.569 -1.051,1.044 -1.572,2.223 -1.573,3.536 l -0.003,7.859 c 1.308,0.522 2.878,1.18 4.714,1.967 1.829,0.786 4.254,2.949 7.265,6.486 3.008,3.537 4.516,7.528 4.514,11.985 v 0.393 l -0.034,80.94 -44.006,-0.018 0.034,-81.333 c 0.002,-4.194 1.379,-8.055 4.131,-11.589 2.752,-3.535 5.436,-5.83 8.058,-6.873 l 4.322,-1.963 0.003,-7.858 c 0.001,-1.314 -0.527,-2.493 -1.569,-3.538 -1.05,-1.049 -2.229,-1.572 -3.537,-1.572 l -16.895,-0.008 -35.362,-0.014 -17.288,-0.007 c -1.572,-0.001 -2.818,0.52 -3.733,1.569 -0.922,1.044 -1.376,2.223 -1.377,3.536 l -0.003,7.859 c 0.258,0 0.454,0.061 0.589,0.196 0.129,0.129 0.59,0.394 1.374,0.786 0.786,0.395 1.572,0.787 2.358,1.18 0.786,0.394 1.633,0.916 2.553,1.574 0.914,0.65 1.829,1.375 2.749,2.161 0.915,0.786 1.769,1.702 2.553,2.752 0.786,1.044 1.504,2.162 2.16,3.341 0.651,1.179 1.178,2.486 1.57,3.929 0.392,1.437 0.588,2.948 0.587,4.519 v 0.393 l -0.087,207.458 -0.001,0.393 c -10e-4,4.452 -1.377,8.379 -4.129,11.786 -2.752,3.4 -5.442,5.627 -8.057,6.675 l -4.323,1.964 -0.004,7.858 c 0,1.572 0.453,2.812 1.374,3.733 0.914,0.915 2.16,1.376 3.731,1.377 l 52.651,0.021 c 3.665,0.002 5.502,-1.833 5.503,-5.498 l 0.045,-109.229 44.006,0.018 -0.046,109.23 c -0.001,3.665 1.829,5.502 5.499,5.503 l 52.651,0.022 c 1.307,0 2.486,-0.46 3.537,-1.374 1.044,-0.92 1.572,-2.16 1.572,-3.732 l 0.004,-7.858 c -0.527,0 -1.179,-0.198 -1.964,-0.59 -0.786,-0.393 -2.099,-1.18 -3.928,-2.36 C 8.767,16.31 7.128,14.995 5.692,13.558 4.25,12.114 2.943,10.149 1.766,7.662 0.588,5.169 -0.001,2.615 0,0" /></g><g
           transform="translate(2523.5352,1705.215)"
           id="g236"><path
             id="path238"
             style="fill:#d4d1c7;fill-opacity:1;fill-rule:nonzero;stroke:none"
             d="m 0,0 v -10.504 h 6.32 c 2.852,0 5.023,0.372 6.512,1.117 1.49,0.744 2.233,2.226 2.233,4.445 0,1.52 -0.649,2.724 -1.947,3.612 C 11.817,-0.443 9.806,0 7.081,0 Z M 0,-32.511 H -7.891 V 6.132 h 18.299 c 2.854,0 5.244,-0.452 7.178,-1.355 1.932,-0.903 3.391,-2.187 4.373,-3.85 0.98,-1.663 1.473,-3.588 1.473,-5.775 0,-2.726 -0.919,-5.078 -2.757,-7.058 -1.838,-1.981 -4.39,-3.193 -7.653,-3.636 1.681,-0.635 3.034,-1.577 4.064,-2.828 1.029,-1.252 2.4,-3.367 4.112,-6.346 l 4.562,-7.795 h -9.743 l -3.185,6.228 c -1.489,2.787 -2.756,4.854 -3.801,6.202 -1.048,1.346 -2.093,2.257 -3.138,2.732 -1.045,0.476 -2.328,0.713 -3.85,0.713 H 0 Z m 8.65,48.767 c -5.293,0 -10.188,-1.308 -14.687,-3.922 -4.499,-2.614 -8.065,-6.172 -10.694,-10.671 -2.63,-4.499 -3.945,-9.394 -3.945,-14.685 0,-5.293 1.322,-10.196 3.968,-14.712 2.645,-4.515 6.219,-8.073 10.718,-10.669 4.499,-2.599 9.381,-3.899 14.64,-3.899 5.355,0 10.257,1.308 14.711,3.922 4.451,2.614 7.977,6.171 10.576,10.671 2.596,4.499 3.896,9.394 3.896,14.687 0,5.323 -1.3,10.234 -3.896,14.734 -2.599,4.499 -6.133,8.048 -10.601,10.646 -4.468,2.597 -9.362,3.898 -14.686,3.898 m -0.095,7.129 c 4.975,0 9.672,-0.927 14.092,-2.781 4.421,-1.854 8.318,-4.467 11.693,-7.842 3.376,-3.374 5.988,-7.272 7.843,-11.693 1.853,-4.42 2.779,-9.118 2.779,-14.091 0,-6.591 -1.624,-12.684 -4.871,-18.277 -3.248,-5.592 -7.669,-10.013 -13.26,-13.26 -5.594,-3.248 -11.685,-4.872 -18.276,-4.872 -6.59,0 -12.684,1.624 -18.275,4.872 -5.593,3.247 -10.014,7.668 -13.261,13.26 -3.248,5.593 -4.873,11.686 -4.873,18.277 0,6.589 1.625,12.681 4.873,18.275 3.247,5.592 7.668,10.012 13.261,13.26 5.591,3.248 11.685,4.872 18.275,4.872" /></g><g
           transform="translate(1006.8652,1290.2228)"
           id="g240"><path
             id="path242"
             style="fill:#d4d1c7;fill-opacity:1;fill-rule:nonzero;stroke:none"
             d="M 0,0 H -4.309 V 54.543 H 0 V 20.508 l 21.8,20.851 3.016,-3.015 C 22.489,36.534 14.993,32.398 9.134,26.28 L 7.669,24.729 28.004,0.689 23.954,-1.206 19.818,3.705 C 19.301,4.309 5.17,22.403 5.17,22.403 L 0,17.405 Z" /></g><g
           transform="translate(1111.6406,1314.4357)"
           id="g244"><path
             id="path246"
             style="fill:#d4d1c7;fill-opacity:1;fill-rule:nonzero;stroke:none"
             d="m 0,0 c 0,8.703 -5.17,14.562 -12.752,14.562 -7.066,0 -11.978,-5.773 -13.012,-14.735 z m -25.936,-3.705 c 0,-11.374 5.945,-19.043 14.82,-19.043 2.069,0 5.171,1.12 7.066,1.981 l 5.946,2.672 1.464,-3.188 c -1.637,-0.69 -8.272,-3.619 -15.165,-3.619 -11.201,0 -18.784,8.358 -18.784,20.938 0,12.408 7.41,20.68 18.44,20.68 9.909,0 16.544,-6.807 16.544,-16.975 v -2.585 l -30.245,0.518 c 0,-0.432 -0.086,-0.862 -0.086,-1.379" /></g><g
           transform="translate(1195.6484,1314.4357)"
           id="g248"><path
             id="path250"
             style="fill:#d4d1c7;fill-opacity:1;fill-rule:nonzero;stroke:none"
             d="m 0,0 c 0,8.703 -5.17,14.562 -12.752,14.562 -7.066,0 -11.978,-5.773 -13.012,-14.735 z m -25.936,-3.705 c 0,-11.374 5.945,-19.043 14.82,-19.043 2.069,0 5.171,1.12 7.066,1.981 l 5.946,2.672 1.464,-3.188 c -1.637,-0.69 -8.272,-3.619 -15.165,-3.619 -11.201,0 -18.784,8.358 -18.784,20.938 0,12.408 7.41,20.68 18.44,20.68 9.909,0 16.544,-6.807 16.544,-16.975 v -2.585 l -30.245,0.518 c 0,-0.432 -0.086,-0.862 -0.086,-1.379" /></g><g
           transform="translate(1256.3052,1297.1163)"
           id="g252"><path
             id="path254"
             style="fill:#d4d1c7;fill-opacity:1;fill-rule:nonzero;stroke:none"
             d="m 0,0 10.254,-3.619 c 2.326,-0.861 4.394,-1.034 5.687,-1.034 5.515,0 9.133,7.152 9.133,17.837 0,10.684 -3.618,17.921 -9.133,17.921 -1.293,0 -3.361,-0.171 -5.687,-1.033 L 0,26.28 Z m -2.327,33.604 1.896,-5.514 9.306,3.791 c 3.102,1.293 5.601,2.154 8.186,2.154 7.668,0 12.667,-8.357 12.667,-20.851 0,-12.495 -4.999,-20.767 -12.667,-20.767 -2.585,0 -5.084,0.948 -8.186,2.154 L 0,-1.896 v -19.387 h -4.309 v 54.629 z" /></g><g
           transform="translate(1404.1592,1326.8439)"
           id="g256"><path
             id="path258"
             style="fill:#d4d1c7;fill-opacity:1;fill-rule:nonzero;stroke:none"
             d="m 0,0 v 2.153 h 7.841 v 8.445 l 4.308,1.982 V 2.153 c 7.325,0 12.495,0.69 14.045,0.69 V 0 H 12.149 v -12.926 c 0,-3.705 -0.689,-12.925 -0.689,-14.389 0,-5.17 2.413,-7.152 8.789,-7.152 0.948,0 3.533,0.604 4.653,0.947 l 0.948,-2.067 c -3.188,-1.12 -6.979,-1.724 -8.272,-1.724 -6.29,0 -9.737,3.448 -9.737,9.996 L 7.841,0 Z" /></g><g
           transform="translate(1496.353,1326.1544)"
           id="g260"><path
             id="path262"
             style="fill:#d4d1c7;fill-opacity:1;fill-rule:nonzero;stroke:none"
             d="m 0,0 c -2.758,0 -5.257,-1.379 -7.411,-3.533 l -3.36,-3.361 v -29.038 h -4.309 v 40.24 l 1.982,0.344 2.327,-8.53 2.93,3.016 c 3.877,3.878 5.945,6.463 10.684,6.463 L 2.24,0 Z" /></g><g
           transform="translate(1559.5098,1309.9552)"
           id="g264"><path
             id="path266"
             style="fill:#d4d1c7;fill-opacity:1;fill-rule:nonzero;stroke:none"
             d="m 0,0 c -6.376,0 -10.081,-3.878 -10.081,-9.651 0,-4.739 2.844,-7.927 8.014,-7.927 0.947,0 3.274,0.172 4.394,0.603 l 11.46,4.136 V 0 Z m 18.096,10.167 v -20.938 c 0,-2.93 1.206,-7.841 1.465,-8.617 l -3.62,-0.689 -1.895,5.343 -10.341,-4.05 c -3.101,-1.207 -4.652,-1.638 -5.945,-1.638 -7.41,0 -12.322,4.395 -12.322,11.115 0,6.894 5.774,11.461 13.787,11.461 h 14.562 v 7.841 c 0,5.859 -3.705,9.047 -10.599,9.047 -3.015,0 -5.945,-0.775 -8.271,-1.809 l -4.826,-2.154 -1.206,3.275 c 1.379,0.602 8.099,2.842 14.303,2.842 9.738,0 14.908,-3.877 14.908,-11.029" /></g><path
           id="path268"
           style="fill:#d4d1c7;fill-opacity:1;fill-rule:nonzero;stroke:none"
           d="m 1631.799,1330.462 h 4.308 v -40.239 h -4.308 z m 3.274,9.651 h -2.24 c -1.034,0 -1.379,0.345 -1.379,1.292 v 2.671 c 0,0.777 0.345,1.121 1.379,1.121 h 2.24 c 1.033,0 1.378,-0.344 1.378,-1.121 v -2.671 c 0,-0.947 -0.345,-1.292 -1.378,-1.292" /><g
           transform="translate(1694.9551,1290.2228)"
           id="g270"><path
             id="path272"
             style="fill:#d4d1c7;fill-opacity:1;fill-rule:nonzero;stroke:none"
             d="m 0,0 h -4.308 v 40.239 l 2.327,0.259 1.636,-5.342 10.686,4.136 c 3.532,1.379 6.203,1.637 8.702,1.637 6.29,0 9.65,-3.533 9.65,-9.995 V 0 h -4.307 v 30.072 c 0,5.342 -2.585,8.272 -7.324,8.272 -1.465,0 -3.791,-0.431 -4.999,-0.862 L 0,33.347 Z" /></g><path
           id="path274"
           style="fill:#d4d1c7;fill-opacity:1;fill-rule:nonzero;stroke:none"
           d="m 1777.844,1330.462 h 4.308 v -40.239 h -4.308 z m 3.274,9.651 h -2.24 c -1.034,0 -1.379,0.345 -1.379,1.292 v 2.671 c 0,0.777 0.345,1.121 1.379,1.121 h 2.24 c 1.033,0 1.378,-0.344 1.378,-1.121 v -2.671 c 0,-0.947 -0.345,-1.292 -1.378,-1.292" /><g
           transform="translate(1841.001,1290.2228)"
           id="g276"><path
             id="path278"
             style="fill:#d4d1c7;fill-opacity:1;fill-rule:nonzero;stroke:none"
             d="m 0,0 h -4.308 v 40.239 l 2.327,0.259 1.636,-5.342 10.686,4.136 c 3.532,1.379 6.203,1.637 8.702,1.637 6.29,0 9.65,-3.533 9.65,-9.995 V 0 h -4.307 v 30.072 c 0,5.342 -2.585,8.272 -7.324,8.272 -1.465,0 -3.791,-0.431 -4.999,-0.862 L 0,33.347 Z" /></g><g
           transform="translate(1940.8633,1327.1886)"
           id="g280"><path
             id="path282"
             style="fill:#d4d1c7;fill-opacity:1;fill-rule:nonzero;stroke:none"
             d="m 0,0 c -2.326,0.861 -4.395,1.033 -5.687,1.033 -5.515,0 -9.133,-7.237 -9.133,-17.922 0,-10.684 3.618,-17.837 9.133,-17.837 1.292,0 3.361,0.173 5.687,1.035 l 10.254,3.619 v 26.28 z m 14.562,-38.861 c 0,-7.41 -5.428,-12.494 -13.701,-12.494 l -15.509,0.085 v 3.534 c 3.101,0 9.737,-1.465 14.82,-1.465 6.549,0 10.082,3.187 10.082,9.047 v 8.186 l -8.875,-3.533 c -3.103,-1.206 -5.602,-2.154 -8.187,-2.154 -7.668,0 -12.666,8.272 -12.666,20.766 0,12.494 4.998,20.852 12.666,20.852 2.585,0 5.084,-0.861 8.187,-2.154 l 9.306,-3.791 1.895,5.514 1.982,-0.259 z" /></g><g
           transform="translate(682.873,669.1573)"
           id="g284"><path
             id="path286"
             style="fill:#d4d1c7;fill-opacity:1;fill-rule:nonzero;stroke:none"
             d="M 0,0 C 1.571,0.001 2.812,-0.527 3.733,-1.57 4.648,-2.619 5.109,-3.799 5.11,-5.106 l 0.003,-7.858 c -0.264,0 -0.724,-0.136 -1.375,-0.394 -0.656,-0.264 -1.835,-0.983 -3.535,-2.163 -1.706,-1.179 -3.21,-2.425 -4.517,-3.734 -1.313,-1.314 -2.749,-3.144 -4.32,-5.503 -1.57,-2.358 -2.619,-4.979 -3.14,-7.859 l -26.619,-235.759 c -0.262,-4.457 -2.618,-6.681 -7.069,-6.683 l -33.791,-0.013 c -3.929,-0.002 -6.422,2.091 -7.468,6.283 l -35.82,155.185 -36.083,-155.608 c -1.048,-3.93 -3.534,-5.895 -7.462,-5.897 l -34.577,-0.014 c -4.457,-0.002 -6.816,2.22 -7.075,6.676 l -25.639,236.522 c -1.315,4.188 -3.343,7.858 -6.095,11 -2.752,3.142 -5.306,5.235 -7.664,6.283 l -3.144,1.571 -0.003,7.857 c -0.001,1.572 0.459,2.813 1.373,3.735 0.915,0.914 2.16,1.375 3.732,1.375 l 48.328,0.021 c 4.452,0.002 6.81,-2.226 7.076,-6.677 l 13.426,-160.695 1.965,0.001 33.723,161.107 c 1.042,4.189 3.533,6.289 7.462,6.291 l 20.825,0.009 c 3.929,0.001 6.416,-2.098 7.468,-6.284 l 33.858,-161.08 1.571,0.001 14.078,160.707 c 0.52,4.451 2.877,6.681 7.069,6.682 l 33.005,0.014 z" /></g><g
           transform="translate(789.7368,441.422)"
           id="g288"><path
             id="path290"
             style="fill:#d4d1c7;fill-opacity:1;fill-rule:nonzero;stroke:none"
             d="m 0,0 -0.054,129.003 c -0.003,7.449 -3.732,11.174 -11.181,11.171 l -16.285,-0.007 c -7.454,-0.003 -11.174,-3.731 -11.171,-11.181 l 0.054,-129.003 c 0.003,-7.454 3.726,-11.173 11.18,-11.171 l 16.286,0.007 C -3.722,-11.178 0.003,-7.454 0,0 m -4.225,176.26 c 13.197,0.006 23.202,-3.399 30.019,-10.206 6.814,-6.812 10.226,-16.815 10.231,-30.011 L 36.085,-7.011 C 36.091,-20.212 32.688,-30.217 25.88,-37.03 19.067,-43.849 9.065,-47.255 -4.131,-47.261 l -31.293,-0.012 c -13.202,-0.006 -23.207,3.392 -30.02,10.205 -6.818,6.807 -10.225,16.809 -10.231,30.01 l -0.06,143.054 c -0.005,13.196 3.393,23.202 10.205,30.02 6.808,6.813 16.81,10.225 30.012,10.231 z" /></g><g
           transform="translate(934.0649,441.4825)"
           id="g292"><path
             id="path294"
             style="fill:#d4d1c7;fill-opacity:1;fill-rule:nonzero;stroke:none"
             d="m 0,0 -0.054,129.003 c -0.003,7.449 -3.732,11.174 -11.181,11.171 l -16.285,-0.007 c -7.454,-0.003 -11.174,-3.731 -11.171,-11.181 l 0.054,-129.003 c 0.003,-7.454 3.726,-11.173 11.18,-11.171 l 16.286,0.007 C -3.722,-11.178 0.003,-7.454 0,0 m -4.225,176.26 c 13.197,0.006 23.202,-3.399 30.019,-10.206 6.814,-6.812 10.226,-16.815 10.231,-30.011 L 36.085,-7.011 C 36.091,-20.212 32.688,-30.217 25.88,-37.03 19.067,-43.849 9.065,-47.255 -4.131,-47.261 l -31.293,-0.012 c -13.202,-0.006 -23.207,3.392 -30.02,10.205 -6.818,6.807 -10.225,16.809 -10.231,30.01 l -0.06,143.054 c -0.005,13.196 3.393,23.202 10.205,30.02 6.808,6.813 16.81,10.225 30.012,10.231 z" /></g><g
           transform="translate(1243.4238,669.3927)"
           id="g296"><path
             id="path298"
             style="fill:#d4d1c7;fill-opacity:1;fill-rule:nonzero;stroke:none"
             d="m 0,0 c 1.571,0.001 2.812,-0.527 3.733,-1.569 0.915,-1.05 1.376,-2.23 1.377,-3.537 l 0.003,-7.858 c -0.264,0 -0.724,-0.136 -1.375,-0.393 -0.656,-0.265 -1.835,-0.984 -3.535,-2.164 -1.706,-1.179 -3.21,-2.425 -4.517,-3.734 -1.313,-1.313 -2.749,-3.144 -4.32,-5.503 -1.57,-2.357 -2.619,-4.979 -3.14,-7.859 l -26.619,-235.759 c -0.262,-4.457 -2.618,-6.681 -7.069,-6.683 l -33.791,-0.013 c -3.929,-0.002 -6.422,2.091 -7.468,6.283 l -35.82,155.185 -36.083,-155.608 c -1.048,-3.93 -3.534,-5.895 -7.462,-5.897 l -34.577,-0.014 c -4.457,-0.002 -6.816,2.22 -7.075,6.677 l -25.639,236.522 c -1.315,4.187 -3.343,7.857 -6.095,10.999 -2.752,3.142 -5.306,5.235 -7.664,6.283 l -3.144,1.571 -0.003,7.857 c -0.001,1.572 0.459,2.814 1.373,3.735 0.915,0.914 2.16,1.375 3.732,1.376 l 48.328,0.02 c 4.452,0.002 6.81,-2.226 7.076,-6.677 l 13.426,-160.695 1.965,0.001 33.723,161.107 c 1.042,4.189 3.533,6.289 7.462,6.291 l 20.825,0.009 c 3.929,0.001 6.416,-2.098 7.468,-6.284 l 33.858,-161.08 1.571,0.001 14.078,160.707 c 0.52,4.451 2.877,6.681 7.069,6.682 l 33.005,0.014 z" /></g><g
           transform="translate(1408.8774,590.0939)"
           id="g300"><path
             id="path302"
             style="fill:#1e1e1e;fill-opacity:1;fill-rule:nonzero;stroke:none"
             d="m 0,0 c 1.043,0.522 2.485,1.241 4.321,2.163 1.829,0.915 4.253,3.077 7.266,6.485 3.007,3.403 4.516,7.204 4.514,11.397 -0.004,9.43 -4.592,14.143 -13.758,14.139 l -17.681,-0.007 c -9.172,-0.004 -13.75,-4.721 -13.746,-14.151 l 0.065,-156.772 c 0.004,-8.907 4.586,-13.357 13.758,-13.353 l 17.681,0.007 c 9.166,0.004 13.75,4.457 13.747,13.364 v 0.394 c -0.002,4.187 -1.379,7.918 -4.131,11.196 -2.752,3.271 -5.442,5.56 -8.057,6.873 l -3.93,1.962 -0.004,7.859 c 0,0.786 0.196,1.571 0.589,2.357 0.392,0.787 0.982,1.376 1.767,1.77 0.786,0.392 1.572,0.589 2.357,0.589 l 51.471,0.415 c 3.666,0.002 5.502,-1.961 5.503,-5.891 l 0.016,-36.934 c 0.007,-16.244 -4.248,-28.555 -12.754,-36.939 -8.512,-8.391 -20.757,-12.582 -36.732,-12.589 l -38.505,-0.016 c -16.245,-0.007 -28.623,4.174 -37.136,12.558 -8.518,8.376 -12.778,20.684 -12.785,36.928 l -0.074,176.025 c -0.007,16.238 4.242,28.549 12.754,36.94 8.506,8.382 20.88,12.582 37.125,12.588 l 38.505,0.016 C 28.121,79.38 40.371,75.191 48.889,66.815 57.402,58.433 61.667,46.126 61.674,29.888 L 61.69,-7.047 c 0.001,-3.671 -1.834,-5.501 -5.499,-5.503 L 4.72,-12.965 c -1.314,0 -2.425,0.522 -3.341,1.571 -0.921,1.042 -1.376,2.221 -1.376,3.536 z" /></g><g
           transform="translate(1658.8232,452.6798)"
           id="g304"><path
             id="path306"
             style="fill:#1e1e1e;fill-opacity:1;fill-rule:nonzero;stroke:none"
             d="m 0,0 -0.066,158.736 c -0.004,9.166 -4.592,13.75 -13.758,13.746 l -20.038,-0.008 c -9.173,-0.004 -13.75,-4.592 -13.746,-13.758 l 0.066,-158.737 c 0.004,-9.171 4.585,-13.75 13.758,-13.746 l 20.038,0.009 C -4.58,-13.754 0.004,-9.172 0,0 m -5.198,216.885 c 16.238,0.007 28.549,-4.181 36.939,-12.558 8.383,-8.383 12.581,-20.689 12.588,-36.928 L 44.403,-8.626 C 44.41,-24.87 40.222,-37.182 31.846,-45.565 23.463,-53.955 11.155,-58.147 -5.083,-58.154 l -38.506,-0.016 c -16.244,-0.007 -28.555,4.175 -36.938,12.558 -8.391,8.376 -12.582,20.684 -12.589,36.928 l -0.074,176.026 c -0.007,16.238 4.174,28.548 12.558,36.938 8.376,8.384 20.684,12.582 36.928,12.589 z" /></g><g
           transform="translate(1869.3945,521.92)"
           id="g308"><path
             id="path310"
             style="fill:#1e1e1e;fill-opacity:1;fill-rule:nonzero;stroke:none"
             d="M 0,0 32.219,0.014 16.072,87.626 Z m 98.269,-99.366 c 1.309,-3.142 3.208,-5.959 5.701,-8.445 2.487,-2.491 4.52,-4.191 6.092,-5.105 1.573,-0.92 2.488,-1.374 2.751,-1.374 l 0.003,-7.858 c 10e-4,-1.314 -0.46,-2.494 -1.373,-3.538 -0.921,-1.049 -2.032,-1.572 -3.339,-1.572 l -69.154,-0.029 c -1.313,-10e-4 -2.492,0.52 -3.536,1.569 -1.051,1.044 -1.572,2.223 -1.573,3.536 l -0.003,7.859 c 0.521,0.258 1.24,0.522 2.161,0.787 0.914,0.258 2.356,1.045 4.32,2.358 1.964,1.309 3.732,2.685 5.303,4.129 1.571,1.437 2.878,3.341 3.927,5.698 1.042,2.359 1.305,4.845 0.782,7.466 v 1.179 l -9.45,46.753 -50.293,0.371 -9.017,-47.94 v -0.392 c -0.262,-1.836 -0.194,-3.671 0.2,-5.501 0.393,-1.835 1.044,-3.406 1.965,-4.714 0.916,-1.312 2.029,-2.553 3.342,-3.73 1.309,-1.179 2.616,-2.161 3.931,-2.947 1.308,-0.784 2.487,-1.441 3.537,-1.962 1.043,-0.528 1.83,-0.92 2.358,-1.177 l 1.179,-0.394 0.003,-7.858 c 10e-4,-1.314 -0.527,-2.492 -1.57,-3.536 -1.05,-1.051 -2.229,-1.573 -3.537,-1.574 l -68.759,-0.028 c -1.572,-0.001 -2.812,0.52 -3.733,1.569 -0.916,1.044 -1.376,2.222 -1.377,3.536 l -0.003,7.858 c 1.05,0.523 2.295,1.241 3.732,2.163 1.436,0.916 3.597,3.01 6.48,6.29 2.878,3.272 4.841,6.878 5.89,10.807 l 45.096,209.442 c 0.257,4.187 -0.985,7.986 -3.737,11.393 -2.752,3.4 -5.571,5.756 -8.45,7.068 l -4.323,1.964 -0.004,7.857 c 0,1.573 0.453,2.813 1.374,3.734 0.914,0.915 2.16,1.376 3.731,1.377 l 71.118,0.029 c 3.401,0.002 5.367,-1.568 5.896,-4.712 z" /></g><g
           transform="translate(2143.6143,590.4025)"
           id="g312"><path
             id="path314"
             style="fill:#1e1e1e;fill-opacity:1;fill-rule:nonzero;stroke:none"
             d="m 0,0 c 1.044,0.522 2.486,1.241 4.321,2.163 1.83,0.915 4.254,3.077 7.268,6.485 3.006,3.403 4.514,7.204 4.513,11.397 -0.004,9.43 -4.592,14.143 -13.758,14.139 l -17.681,-0.007 c -9.172,-0.004 -13.75,-4.721 -13.746,-14.151 l 0.065,-156.772 c 0.004,-8.907 4.586,-13.357 13.758,-13.353 l 17.681,0.007 c 9.166,0.004 13.75,4.457 13.746,13.364 v 0.394 c -0.002,4.187 -1.379,7.918 -4.13,11.196 -2.752,3.271 -5.441,5.56 -8.058,6.873 l -3.93,1.962 -0.003,7.859 c 0,0.786 0.196,1.571 0.589,2.357 0.392,0.787 0.981,1.376 1.766,1.77 0.787,0.392 1.573,0.589 2.359,0.589 l 51.47,0.415 c 3.666,0.002 5.502,-1.961 5.503,-5.891 l 0.016,-36.934 c 0.007,-16.244 -4.249,-28.555 -12.754,-36.939 -8.511,-8.391 -20.758,-12.582 -36.732,-12.589 l -38.506,-0.016 c -16.244,-0.007 -28.622,4.174 -37.135,12.558 -8.518,8.376 -12.778,20.684 -12.785,36.928 l -0.074,176.025 c -0.007,16.238 4.243,28.549 12.755,36.94 8.504,8.382 20.879,12.582 37.124,12.588 l 38.505,0.016 C 28.122,79.38 40.372,75.191 48.891,66.815 57.402,58.433 61.668,46.126 61.675,29.888 L 61.69,-7.047 c 0.002,-3.671 -1.832,-5.501 -5.498,-5.503 l -51.47,-0.415 c -1.315,0 -2.426,0.522 -3.341,1.571 -0.921,1.042 -1.377,2.221 -1.377,3.536 z" /></g><g
           transform="translate(2445.3516,636.5001)"
           id="g316"><path
             id="path318"
             style="fill:#1e1e1e;fill-opacity:1;fill-rule:nonzero;stroke:none"
             d="m 0,0 0.001,-0.394 0.087,-207.458 v -0.392 c 0.001,-2.621 0.592,-5.175 1.771,-7.661 1.18,-2.492 2.556,-4.456 4.128,-5.893 1.574,-1.441 3.145,-2.748 4.717,-3.927 1.572,-1.177 3.009,-1.901 4.323,-2.159 l 1.572,-0.785 0.003,-7.858 c 0.001,-1.314 -0.527,-2.493 -1.57,-3.537 -1.05,-1.05 -2.228,-1.573 -3.536,-1.573 l -17.288,-0.008 -35.362,-0.014 -16.896,-0.007 c -1.313,-0.001 -2.492,0.52 -3.536,1.569 -1.051,1.044 -1.572,2.223 -1.573,3.536 l -0.003,7.859 c 1.308,0.522 2.878,1.18 4.714,1.967 1.829,0.786 4.254,2.949 7.265,6.486 3.008,3.537 4.516,7.528 4.514,11.985 v 0.393 l -0.034,80.94 -44.006,-0.018 0.034,-81.333 c 0.002,-4.194 1.379,-8.055 4.131,-11.589 2.752,-3.535 5.436,-5.83 8.058,-6.873 l 4.322,-1.963 0.003,-7.858 c 0.001,-1.314 -0.527,-2.493 -1.569,-3.538 -1.05,-1.049 -2.229,-1.572 -3.537,-1.572 l -16.895,-0.008 -35.362,-0.014 -17.288,-0.007 c -1.572,-0.001 -2.818,0.52 -3.733,1.569 -0.922,1.044 -1.376,2.223 -1.377,3.536 l -0.003,7.859 c 0.258,0 0.454,0.061 0.589,0.196 0.129,0.129 0.59,0.394 1.374,0.786 0.786,0.395 1.572,0.787 2.358,1.18 0.786,0.394 1.633,0.916 2.553,1.574 0.914,0.65 1.829,1.375 2.749,2.161 0.915,0.786 1.769,1.702 2.553,2.752 0.786,1.044 1.504,2.162 2.16,3.341 0.651,1.179 1.178,2.486 1.57,3.929 0.392,1.437 0.588,2.948 0.587,4.519 v 0.393 l -0.087,207.458 -0.001,0.393 c -10e-4,4.452 -1.377,8.379 -4.129,11.786 -2.752,3.4 -5.442,5.627 -8.057,6.675 l -4.323,1.964 -0.004,7.858 c 0,1.572 0.453,2.812 1.374,3.733 0.914,0.915 2.16,1.376 3.731,1.377 l 52.651,0.021 c 3.665,0.002 5.502,-1.833 5.503,-5.498 l 0.045,-109.229 44.006,0.018 -0.046,109.23 c -0.001,3.665 1.829,5.502 5.499,5.503 l 52.651,0.022 c 1.307,0 2.486,-0.46 3.537,-1.374 1.044,-0.92 1.572,-2.16 1.572,-3.732 l 0.004,-7.858 c -0.527,0 -1.179,-0.198 -1.964,-0.59 -0.786,-0.393 -2.099,-1.18 -3.928,-2.36 C 8.767,16.31 7.128,14.995 5.692,13.558 4.25,12.114 2.943,10.149 1.766,7.662 0.588,5.169 -0.001,2.615 0,0" /></g><g
           transform="translate(2523.5352,696.1945)"
           id="g320"><path
             id="path322"
             style="fill:#d4d1c7;fill-opacity:1;fill-rule:nonzero;stroke:none"
             d="m 0,0 v -10.504 h 6.32 c 2.852,0 5.023,0.372 6.512,1.117 1.49,0.744 2.233,2.226 2.233,4.444 0,1.521 -0.649,2.725 -1.947,3.613 C 11.817,-0.444 9.806,0 7.081,0 Z M 0,-32.511 H -7.891 V 6.132 h 18.299 c 2.854,0 5.244,-0.452 7.178,-1.356 1.932,-0.902 3.391,-2.186 4.373,-3.849 0.98,-1.663 1.473,-3.588 1.473,-5.775 0,-2.726 -0.919,-5.079 -2.757,-7.058 -1.838,-1.981 -4.39,-3.193 -7.653,-3.636 1.681,-0.635 3.034,-1.577 4.064,-2.828 1.029,-1.252 2.4,-3.367 4.112,-6.346 l 4.562,-7.795 h -9.743 l -3.185,6.227 c -1.489,2.788 -2.756,4.855 -3.801,6.203 -1.048,1.346 -2.093,2.257 -3.138,2.732 -1.045,0.476 -2.328,0.713 -3.85,0.713 H 0 Z m 8.65,48.767 c -5.293,0 -10.188,-1.308 -14.687,-3.922 -4.499,-2.614 -8.065,-6.172 -10.694,-10.671 -2.63,-4.499 -3.945,-9.394 -3.945,-14.686 0,-5.292 1.322,-10.196 3.968,-14.711 2.645,-4.515 6.219,-8.073 10.718,-10.67 4.499,-2.599 9.381,-3.898 14.64,-3.898 5.355,0 10.257,1.307 14.711,3.921 4.451,2.615 7.977,6.172 10.576,10.671 2.596,4.499 3.896,9.395 3.896,14.687 0,5.324 -1.3,10.235 -3.896,14.735 -2.599,4.498 -6.133,8.047 -10.601,10.645 -4.468,2.598 -9.362,3.899 -14.686,3.899 m -0.095,7.129 c 4.975,0 9.672,-0.927 14.092,-2.781 4.421,-1.854 8.318,-4.467 11.693,-7.842 3.376,-3.374 5.988,-7.273 7.843,-11.693 1.853,-4.42 2.779,-9.118 2.779,-14.092 0,-6.59 -1.624,-12.683 -4.871,-18.276 -3.248,-5.592 -7.669,-10.013 -13.26,-13.261 -5.594,-3.247 -11.685,-4.871 -18.276,-4.871 -6.59,0 -12.684,1.624 -18.275,4.871 -5.593,3.248 -10.014,7.669 -13.261,13.261 -3.248,5.593 -4.873,11.686 -4.873,18.276 0,6.59 1.625,12.682 4.873,18.275 3.247,5.593 7.668,10.013 13.261,13.261 5.591,3.248 11.685,4.872 18.275,4.872" /></g><g
           transform="translate(1006.8652,281.2022)"
           id="g324"><path
             id="path326"
             style="fill:#d4d1c7;fill-opacity:1;fill-rule:nonzero;stroke:none"
             d="M 0,0 H -4.309 V 54.543 H 0 V 20.508 l 21.8,20.851 3.016,-3.015 C 22.489,36.534 14.993,32.398 9.134,26.28 L 7.669,24.729 28.004,0.689 23.954,-1.206 19.818,3.705 C 19.301,4.309 5.17,22.403 5.17,22.403 L 0,17.405 Z" /></g><g
           transform="translate(1111.6406,305.4151)"
           id="g328"><path
             id="path330"
             style="fill:#d4d1c7;fill-opacity:1;fill-rule:nonzero;stroke:none"
             d="m 0,0 c 0,8.703 -5.17,14.562 -12.752,14.562 -7.066,0 -11.978,-5.773 -13.012,-14.735 z m -25.936,-3.705 c 0,-11.374 5.945,-19.043 14.82,-19.043 2.069,0 5.171,1.12 7.066,1.981 l 5.946,2.672 1.464,-3.188 c -1.637,-0.69 -8.272,-3.619 -15.165,-3.619 -11.201,0 -18.784,8.358 -18.784,20.938 0,12.408 7.41,20.68 18.44,20.68 9.909,0 16.544,-6.807 16.544,-16.975 v -2.585 l -30.245,0.518 c 0,-0.432 -0.086,-0.862 -0.086,-1.379" /></g><g
           transform="translate(1195.6484,305.4151)"
           id="g332"><path
             id="path334"
             style="fill:#d4d1c7;fill-opacity:1;fill-rule:nonzero;stroke:none"
             d="m 0,0 c 0,8.703 -5.17,14.562 -12.752,14.562 -7.066,0 -11.978,-5.773 -13.012,-14.735 z m -25.936,-3.705 c 0,-11.374 5.945,-19.043 14.82,-19.043 2.069,0 5.171,1.12 7.066,1.981 l 5.946,2.672 1.464,-3.188 c -1.637,-0.69 -8.272,-3.619 -15.165,-3.619 -11.201,0 -18.784,8.358 -18.784,20.938 0,12.408 7.41,20.68 18.44,20.68 9.909,0 16.544,-6.807 16.544,-16.975 v -2.585 l -30.245,0.518 c 0,-0.432 -0.086,-0.862 -0.086,-1.379" /></g><g
           transform="translate(1256.3052,288.0958)"
           id="g336"><path
             id="path338"
             style="fill:#d4d1c7;fill-opacity:1;fill-rule:nonzero;stroke:none"
             d="m 0,0 10.254,-3.619 c 2.326,-0.861 4.394,-1.034 5.687,-1.034 5.515,0 9.133,7.152 9.133,17.837 0,10.684 -3.618,17.921 -9.133,17.921 -1.293,0 -3.361,-0.171 -5.687,-1.033 L 0,26.28 Z m -2.327,33.604 1.896,-5.514 9.306,3.791 c 3.102,1.293 5.601,2.154 8.186,2.154 7.668,0 12.667,-8.357 12.667,-20.851 0,-12.495 -4.999,-20.767 -12.667,-20.767 -2.585,0 -5.084,0.948 -8.186,2.154 L 0,-1.896 v -19.387 h -4.309 v 54.629 z" /></g><g
           transform="translate(1404.1592,317.8233)"
           id="g340"><path
             id="path342"
             style="fill:#d4d1c7;fill-opacity:1;fill-rule:nonzero;stroke:none"
             d="m 0,0 v 2.153 h 7.841 v 8.445 l 4.308,1.982 V 2.153 c 7.325,0 12.495,0.69 14.045,0.69 V 0 H 12.149 v -12.926 c 0,-3.705 -0.689,-12.925 -0.689,-14.389 0,-5.17 2.413,-7.152 8.789,-7.152 0.948,0 3.533,0.604 4.653,0.947 l 0.948,-2.067 c -3.188,-1.12 -6.979,-1.724 -8.272,-1.724 -6.29,0 -9.737,3.448 -9.737,9.996 L 7.841,0 Z" /></g><g
           transform="translate(1496.353,317.1339)"
           id="g344"><path
             id="path346"
             style="fill:#d4d1c7;fill-opacity:1;fill-rule:nonzero;stroke:none"
             d="m 0,0 c -2.758,0 -5.257,-1.379 -7.411,-3.533 l -3.36,-3.361 v -29.038 h -4.309 v 40.24 l 1.982,0.344 2.327,-8.53 2.93,3.016 c 3.877,3.878 5.945,6.463 10.684,6.463 L 2.24,0 Z" /></g><g
           transform="translate(1559.5098,300.9347)"
           id="g348"><path
             id="path350"
             style="fill:#d4d1c7;fill-opacity:1;fill-rule:nonzero;stroke:none"
             d="m 0,0 c -6.376,0 -10.081,-3.878 -10.081,-9.651 0,-4.739 2.844,-7.927 8.014,-7.927 0.947,0 3.274,0.172 4.394,0.603 l 11.46,4.136 V 0 Z m 18.096,10.167 v -20.938 c 0,-2.93 1.206,-7.841 1.465,-8.617 l -3.62,-0.689 -1.895,5.343 -10.341,-4.05 c -3.101,-1.207 -4.652,-1.638 -5.945,-1.638 -7.41,0 -12.322,4.395 -12.322,11.115 0,6.894 5.774,11.461 13.787,11.461 h 14.562 v 7.841 c 0,5.859 -3.705,9.047 -10.599,9.047 -3.015,0 -5.945,-0.775 -8.271,-1.809 l -4.826,-2.154 -1.206,3.275 c 1.379,0.602 8.099,2.842 14.303,2.842 9.738,0 14.908,-3.877 14.908,-11.029" /></g><path
           id="path352"
           style="fill:#d4d1c7;fill-opacity:1;fill-rule:nonzero;stroke:none"
           d="m 1631.799,321.441 h 4.308 v -40.239 h -4.308 z m 3.274,9.652 h -2.24 c -1.034,0 -1.379,0.345 -1.379,1.292 v 2.671 c 0,0.776 0.345,1.121 1.379,1.121 h 2.24 c 1.033,0 1.378,-0.345 1.378,-1.121 v -2.671 c 0,-0.947 -0.345,-1.292 -1.378,-1.292" /><g
           transform="translate(1694.9551,281.2022)"
           id="g354"><path
             id="path356"
             style="fill:#d4d1c7;fill-opacity:1;fill-rule:nonzero;stroke:none"
             d="m 0,0 h -4.308 v 40.239 l 2.327,0.259 1.636,-5.342 10.686,4.136 c 3.532,1.379 6.203,1.637 8.702,1.637 6.29,0 9.65,-3.533 9.65,-9.995 V 0 h -4.307 v 30.072 c 0,5.342 -2.585,8.272 -7.324,8.272 -1.465,0 -3.791,-0.431 -4.999,-0.862 L 0,33.347 Z" /></g><path
           id="path358"
           style="fill:#d4d1c7;fill-opacity:1;fill-rule:nonzero;stroke:none"
           d="m 1777.844,321.441 h 4.308 v -40.239 h -4.308 z m 3.274,9.652 h -2.24 c -1.034,0 -1.379,0.345 -1.379,1.292 v 2.671 c 0,0.776 0.345,1.121 1.379,1.121 h 2.24 c 1.033,0 1.378,-0.345 1.378,-1.121 v -2.671 c 0,-0.947 -0.345,-1.292 -1.378,-1.292" /><g
           transform="translate(1841.001,281.2022)"
           id="g360"><path
             id="path362"
             style="fill:#d4d1c7;fill-opacity:1;fill-rule:nonzero;stroke:none"
             d="m 0,0 h -4.308 v 40.239 l 2.327,0.259 1.636,-5.342 10.686,4.136 c 3.532,1.379 6.203,1.637 8.702,1.637 6.29,0 9.65,-3.533 9.65,-9.995 V 0 h -4.307 v 30.072 c 0,5.342 -2.585,8.272 -7.324,8.272 -1.465,0 -3.791,-0.431 -4.999,-0.862 L 0,33.347 Z" /></g><g
           transform="translate(1940.8633,318.1681)"
           id="g364"><path
             id="path366"
             style="fill:#d4d1c7;fill-opacity:1;fill-rule:nonzero;stroke:none"
             d="m 0,0 c -2.326,0.861 -4.395,1.033 -5.687,1.033 -5.515,0 -9.133,-7.237 -9.133,-17.922 0,-10.684 3.618,-17.837 9.133,-17.837 1.292,0 3.361,0.173 5.687,1.035 l 10.254,3.619 v 26.28 z m 14.562,-38.861 c 0,-7.41 -5.428,-12.494 -13.701,-12.494 l -15.509,0.085 v 3.534 c 3.101,0 9.737,-1.465 14.82,-1.465 6.549,0 10.082,3.187 10.082,9.047 v 8.186 l -8.875,-3.533 c -3.103,-1.206 -5.602,-2.154 -8.187,-2.154 -7.668,0 -12.666,8.272 -12.666,20.766 0,12.494 4.998,20.852 12.666,20.852 2.585,0 5.084,-0.861 8.187,-2.154 l 9.306,-3.791 1.895,5.514 1.982,-0.259 z" /></g></g></g></g></svg>