<svg xmlns="http://www.w3.org/2000/svg" xmlns:xlink="http://www.w3.org/1999/xlink" version="1.1" width="3000pt" height="1008.50588pt" viewBox="0 0 3000 1008.50588">
<defs>
<clipPath id="clip_0">
<path transform="matrix(1,0,0,-1,0,4036.626)" d="M0 4041.702H3000V0H0Z"/>
</clipPath>
</defs>
<g id="layer_1" data-name="Layer">
<path transform="matrix(1,0,0,-1,0,4036.626)" d="M0 3028.139H3000V4041.702H0Z" fill="#ffffff"/>
<path transform="matrix(1,0,0,-1,0,4036.626)" d="M0 2010.948H3000V3026.149H0Z" fill="#d4d1c7"/>
<path transform="matrix(1,0,0,-1,0,4036.626)" d="M0 0H3000V1004.021H0Z" fill="#e32514"/>
<path transform="matrix(1,0,0,-1,0,4036.626)" d="M0 997.841H3000V2013.042H0Z" fill="#1e1e1e"/>
<g clip-path="url(#clip_0)">
<path transform="matrix(1,0,0,-1,682.873,328.1504)" d="M0 0C1.571 .001 2.812-.527 3.733-1.57 4.648-2.619 5.109-3.799 5.11-5.106L5.113-12.964C4.849-12.964 4.389-13.1 3.738-13.358 3.082-13.622 1.903-14.341 .203-15.521-1.503-16.7-3.007-17.946-4.314-19.255-5.627-20.569-7.063-22.399-8.634-24.758-10.204-27.116-11.253-29.737-11.774-32.617L-38.393-268.376C-38.655-272.833-41.011-275.057-45.462-275.059L-79.253-275.072C-83.182-275.074-85.675-272.981-86.721-268.789L-122.541-113.604-158.624-269.212C-159.672-273.142-162.158-275.107-166.086-275.109L-200.663-275.123C-205.12-275.125-207.479-272.903-207.738-268.447L-233.377-31.925C-234.692-27.737-236.72-24.067-239.472-20.925-242.224-17.783-244.778-15.69-247.136-14.642L-250.28-13.071-250.283-5.214C-250.284-3.642-249.824-2.401-248.91-1.479-247.995-.565-246.75-.104-245.178-.104L-196.85-.083C-192.398-.081-190.04-2.309-189.774-6.76L-176.348-167.455-174.383-167.454-140.66-6.347C-139.618-2.158-137.127-.058-133.198-.056L-112.373-.047C-108.444-.046-105.957-2.145-104.905-6.331L-71.047-167.411-69.476-167.41-55.398-6.703C-54.878-2.252-52.521-.022-48.329-.021L-15.324-.007Z" fill="#1e1e1e"/>
<path transform="matrix(1,0,0,-1,789.7368,555.88577)" d="M0 0-.054 129.003C-.057 136.452-3.786 140.177-11.235 140.174L-27.52 140.167C-34.974 140.164-38.694 136.436-38.691 128.986L-38.637-.017C-38.634-7.471-34.911-11.19-27.457-11.188L-11.171-11.181C-3.722-11.178 .003-7.454 0 0M-4.225 176.26C8.972 176.266 18.977 172.861 25.794 166.054 32.608 159.242 36.02 149.239 36.025 136.043L36.085-7.011C36.091-20.212 32.688-30.217 25.88-37.03 19.067-43.849 9.065-47.255-4.131-47.261L-35.424-47.273C-48.626-47.279-58.631-43.881-65.444-37.068-72.262-30.261-75.669-20.259-75.675-7.058L-75.735 135.996C-75.74 149.192-72.342 159.198-65.53 166.016-58.722 172.829-48.72 176.241-35.518 176.247Z" fill="#1e1e1e"/>
<path transform="matrix(1,0,0,-1,934.0649,555.8252)" d="M0 0-.054 129.003C-.057 136.452-3.786 140.177-11.235 140.174L-27.52 140.167C-34.974 140.164-38.694 136.436-38.691 128.986L-38.637-.017C-38.634-7.471-34.911-11.19-27.457-11.188L-11.171-11.181C-3.722-11.178 .003-7.454 0 0M-4.225 176.26C8.972 176.266 18.977 172.861 25.794 166.054 32.608 159.242 36.02 149.239 36.025 136.043L36.085-7.011C36.091-20.212 32.688-30.217 25.88-37.03 19.067-43.849 9.065-47.255-4.131-47.261L-35.424-47.273C-48.626-47.279-58.631-43.881-65.444-37.068-72.262-30.261-75.669-20.259-75.675-7.058L-75.735 135.996C-75.74 149.192-72.342 159.198-65.53 166.016-58.722 172.829-48.72 176.241-35.518 176.247Z" fill="#1e1e1e"/>
<path transform="matrix(1,0,0,-1,1243.4238,327.91505)" d="M0 0C1.571 .001 2.812-.527 3.733-1.569 4.648-2.619 5.109-3.799 5.11-5.106L5.113-12.964C4.849-12.964 4.389-13.1 3.738-13.357 3.082-13.622 1.903-14.341 .203-15.521-1.503-16.7-3.007-17.946-4.314-19.255-5.627-20.568-7.063-22.399-8.634-24.758-10.204-27.115-11.253-29.737-11.774-32.617L-38.393-268.376C-38.655-272.833-41.011-275.057-45.462-275.059L-79.253-275.072C-83.182-275.074-85.675-272.981-86.721-268.789L-122.541-113.604-158.624-269.212C-159.672-273.142-162.158-275.107-166.086-275.109L-200.663-275.123C-205.12-275.125-207.479-272.903-207.738-268.446L-233.377-31.924C-234.692-27.737-236.72-24.067-239.472-20.925-242.224-17.783-244.778-15.69-247.136-14.642L-250.28-13.071-250.283-5.214C-250.284-3.642-249.824-2.4-248.91-1.479-247.995-.565-246.75-.104-245.178-.103L-196.85-.083C-192.398-.081-190.04-2.309-189.774-6.76L-176.348-167.455-174.383-167.454-140.66-6.347C-139.618-2.158-137.127-.058-133.198-.056L-112.373-.047C-108.444-.046-105.957-2.145-104.905-6.331L-71.047-167.411-69.476-167.41-55.398-6.703C-54.878-2.252-52.521-.022-48.329-.021L-15.324-.007Z" fill="#1e1e1e"/>
<path transform="matrix(1,0,0,-1,1408.8775,407.21388)" d="M0 0C1.043 .522 2.485 1.241 4.321 2.163 6.15 3.078 8.574 5.24 11.587 8.648 14.594 12.051 16.103 15.852 16.101 20.045 16.097 29.475 11.509 34.188 2.343 34.184L-15.338 34.177C-24.51 34.173-29.088 29.456-29.084 20.026L-29.019-136.746C-29.015-145.653-24.433-150.103-15.261-150.099L2.42-150.092C11.586-150.088 16.17-145.635 16.167-136.728V-136.334C16.165-132.147 14.788-128.416 12.036-125.138 9.284-121.867 6.594-119.578 3.979-118.265L.049-116.303 .045-108.444C.045-107.658 .241-106.873 .634-106.087 1.026-105.3 1.616-104.711 2.401-104.317 3.187-103.925 3.973-103.728 4.758-103.728L56.229-103.313C59.895-103.311 61.731-105.274 61.732-109.204L61.748-146.138C61.755-162.382 57.5-174.693 48.994-183.077 40.482-191.468 28.237-195.659 12.262-195.666L-26.243-195.682C-42.488-195.688-54.866-191.508-63.379-183.124-71.897-174.748-76.157-162.44-76.164-146.196L-76.238 29.829C-76.245 46.067-71.996 58.378-63.484 66.769-54.978 75.151-42.604 79.351-26.359 79.357L12.146 79.373C28.121 79.38 40.371 75.191 48.889 66.815 57.402 58.433 61.667 46.126 61.674 29.888L61.69-7.047C61.691-10.718 59.856-12.548 56.191-12.55L4.72-12.965C3.406-12.965 2.295-12.443 1.379-11.394 .458-10.352 .003-9.173 .003-7.858Z" fill="#1e1e1e"/>
<path transform="matrix(1,0,0,-1,1658.8233,544.6279)" d="M0 0-.066 158.736C-.07 167.902-4.658 172.486-13.824 172.482L-33.862 172.474C-43.035 172.47-47.612 167.882-47.608 158.716L-47.542-.021C-47.538-9.192-42.957-13.771-33.784-13.767L-13.746-13.758C-4.58-13.754 .004-9.172 0 0M-5.198 216.885C11.04 216.892 23.351 212.704 31.741 204.327 40.124 195.944 44.322 183.638 44.329 167.399L44.403-8.626C44.41-24.87 40.222-37.182 31.846-45.565 23.463-53.955 11.155-58.147-5.083-58.154L-43.589-58.17C-59.833-58.177-72.144-53.995-80.527-45.612-88.918-37.236-93.109-24.928-93.116-8.684L-93.19 167.342C-93.197 183.58-89.016 195.89-80.632 204.28-72.256 212.664-59.948 216.862-43.704 216.869Z" fill="#1e1e1e"/>
<path transform="matrix(1,0,0,-1,1869.3945,475.3877)" d="M0 0 32.219 .014 16.072 87.626ZM98.269-99.366C99.578-102.508 101.477-105.325 103.97-107.811 106.457-110.302 108.49-112.002 110.062-112.916 111.635-113.836 112.55-114.29 112.813-114.29L112.816-122.148C112.817-123.462 112.356-124.642 111.443-125.686 110.522-126.735 109.411-127.258 108.104-127.258L38.95-127.287C37.637-127.288 36.458-126.767 35.414-125.718 34.363-124.674 33.842-123.495 33.841-122.182L33.838-114.323C34.359-114.065 35.078-113.801 35.999-113.536 36.913-113.278 38.355-112.491 40.319-111.178 42.283-109.869 44.051-108.493 45.622-107.049 47.193-105.612 48.5-103.708 49.549-101.351 50.591-98.992 50.854-96.506 50.331-93.885V-92.706L40.881-45.953-9.412-45.582-18.429-93.521V-93.914C-18.691-95.75-18.623-97.585-18.229-99.415-17.836-101.25-17.185-102.821-16.264-104.129-15.348-105.441-14.235-106.682-12.922-107.859-11.613-109.038-10.306-110.02-8.991-110.806-7.683-111.59-6.504-112.247-5.454-112.768-4.411-113.296-3.624-113.688-3.096-113.945L-1.917-114.339-1.914-122.197C-1.913-123.511-2.441-124.689-3.484-125.733-4.534-126.784-5.713-127.306-7.021-127.307L-75.78-127.335C-77.352-127.336-78.592-126.815-79.513-125.766-80.429-124.722-80.889-123.544-80.89-122.23L-80.893-114.372C-79.843-113.849-78.598-113.131-77.161-112.209-75.725-111.293-73.564-109.199-70.681-105.919-67.803-102.646-65.84-99.041-64.791-95.112L-19.695 114.33C-19.438 118.517-20.68 122.316-23.432 125.723-26.184 129.123-29.003 131.479-31.882 132.791L-36.205 134.755-36.209 142.612C-36.209 144.185-35.756 145.425-34.835 146.346-33.921 147.261-32.675 147.722-31.104 147.723L40.014 147.752C43.415 147.754 45.381 146.184 45.91 143.04Z" fill="#1e1e1e"/>
<path transform="matrix(1,0,0,-1,2143.6143,406.90528)" d="M0 0C1.044 .522 2.486 1.241 4.321 2.163 6.151 3.078 8.575 5.24 11.589 8.648 14.595 12.051 16.103 15.852 16.102 20.045 16.098 29.475 11.51 34.188 2.344 34.184L-15.337 34.177C-24.509 34.173-29.087 29.456-29.083 20.026L-29.018-136.746C-29.014-145.653-24.432-150.103-15.26-150.099L2.421-150.092C11.587-150.088 16.171-145.635 16.167-136.728V-136.334C16.165-132.147 14.788-128.416 12.037-125.138 9.285-121.867 6.596-119.578 3.979-118.265L.049-116.303 .046-108.444C.046-107.658 .242-106.873 .635-106.087 1.027-105.3 1.616-104.711 2.401-104.317 3.188-103.925 3.974-103.728 4.76-103.728L56.23-103.313C59.896-103.311 61.732-105.274 61.733-109.204L61.749-146.138C61.756-162.382 57.5-174.693 48.995-183.077 40.484-191.468 28.237-195.659 12.263-195.666L-26.243-195.682C-42.487-195.688-54.865-191.508-63.378-183.124-71.896-174.748-76.156-162.44-76.163-146.196L-76.237 29.829C-76.244 46.067-71.994 58.378-63.482 66.769-54.978 75.151-42.603 79.351-26.358 79.357L12.147 79.373C28.122 79.38 40.372 75.191 48.891 66.815 57.402 58.433 61.668 46.126 61.675 29.888L61.69-7.047C61.692-10.718 59.858-12.548 56.192-12.55L4.722-12.965C3.407-12.965 2.296-12.443 1.381-11.394 .46-10.352 .004-9.173 .004-7.858Z" fill="#1e1e1e"/>
<path transform="matrix(1,0,0,-1,2445.3516,360.80763)" d="M0 0 .001-.394 .088-207.852V-208.244C.089-210.865 .68-213.419 1.859-215.905 3.039-218.397 4.415-220.361 5.987-221.798 7.561-223.239 9.132-224.546 10.704-225.725 12.276-226.902 13.713-227.626 15.027-227.884L16.599-228.669 16.602-236.527C16.603-237.841 16.075-239.02 15.032-240.064 13.982-241.114 12.804-241.637 11.496-241.637L-5.792-241.645-41.154-241.659-58.05-241.666C-59.363-241.667-60.542-241.146-61.586-240.097-62.637-239.053-63.158-237.874-63.159-236.561L-63.162-228.702C-61.854-228.18-60.284-227.522-58.448-226.735-56.619-225.949-54.194-223.786-51.183-220.249-48.175-216.712-46.667-212.721-46.669-208.264V-207.871L-46.703-126.931-90.709-126.949-90.675-208.282C-90.673-212.476-89.296-216.337-86.544-219.871-83.792-223.406-81.108-225.701-78.486-226.744L-74.164-228.707-74.161-236.565C-74.16-237.879-74.688-239.058-75.73-240.103-76.78-241.152-77.959-241.675-79.267-241.675L-96.162-241.683-131.524-241.697-148.812-241.704C-150.384-241.705-151.63-241.184-152.545-240.135-153.467-239.091-153.921-237.912-153.922-236.599L-153.925-228.74C-153.667-228.74-153.471-228.679-153.336-228.544-153.207-228.415-152.746-228.15-151.962-227.758-151.176-227.363-150.39-226.971-149.604-226.578-148.818-226.184-147.971-225.662-147.051-225.004-146.137-224.354-145.222-223.629-144.302-222.843-143.387-222.057-142.533-221.141-141.749-220.091-140.963-219.047-140.245-217.929-139.589-216.75-138.938-215.571-138.411-214.264-138.019-212.821-137.627-211.384-137.431-209.873-137.432-208.302V-207.909L-137.519-.451-137.52-.058C-137.521 4.394-138.897 8.321-141.649 11.728-144.401 15.128-147.091 17.355-149.706 18.403L-154.029 20.367-154.033 28.225C-154.033 29.797-153.58 31.037-152.659 31.958-151.745 32.873-150.499 33.334-148.928 33.335L-96.277 33.356C-92.612 33.358-90.775 31.523-90.774 27.858L-90.729-81.371-46.723-81.353-46.769 27.877C-46.77 31.542-44.94 33.379-41.27 33.38L11.381 33.402C12.688 33.402 13.867 32.942 14.918 32.028 15.962 31.108 16.49 29.868 16.49 28.296L16.494 20.438C15.967 20.438 15.315 20.24 14.53 19.848 13.744 19.455 12.431 18.668 10.602 17.488 8.767 16.31 7.128 14.995 5.692 13.558 4.25 12.114 2.943 10.149 1.766 7.662 .588 5.169-.001 2.615 0 0" fill="#1e1e1e"/>
<path transform="matrix(1,0,0,-1,2523.5352,301.1123)" d="M0 0V-10.504H6.32C9.172-10.504 11.343-10.133 12.832-9.387 14.322-8.643 15.065-7.162 15.065-4.943 15.065-3.422 14.416-2.218 13.118-1.331 11.817-.444 9.806 0 7.081 0ZM0-32.511H-7.891V6.131H10.408C13.262 6.131 15.652 5.68 17.586 4.776 19.518 3.873 20.977 2.59 21.959 .927 22.939-.736 23.432-2.662 23.432-4.848 23.432-7.574 22.513-9.927 20.675-11.907 18.837-13.887 16.285-15.1 13.022-15.542 14.703-16.177 16.056-17.12 17.086-18.371 18.115-19.623 19.486-21.738 21.198-24.716L25.76-32.511H16.017L12.832-26.284C11.343-23.496 10.076-21.429 9.031-20.082 7.983-18.735 6.938-17.825 5.893-17.349 4.848-16.873 3.565-16.636 2.043-16.636H0ZM8.65 16.255C3.357 16.255-1.538 14.948-6.037 12.334-10.536 9.72-14.102 6.162-16.731 1.663-19.361-2.836-20.676-7.732-20.676-13.023-20.676-18.316-19.354-23.219-16.708-27.734-14.063-32.249-10.489-35.807-5.99-38.404-1.491-41.003 3.391-42.302 8.65-42.302 14.005-42.302 18.907-40.995 23.361-38.381 27.812-35.767 31.338-32.21 33.937-27.71 36.533-23.211 37.833-18.316 37.833-13.023 37.833-7.7 36.533-2.789 33.937 1.711 31.338 6.21 27.804 9.759 23.336 12.357 18.868 14.955 13.974 16.255 8.65 16.255M8.555 23.384C13.53 23.384 18.227 22.458 22.647 20.604 27.068 18.75 30.965 16.137 34.34 12.761 37.716 9.387 40.328 5.489 42.183 1.069 44.036-3.351 44.962-8.049 44.962-13.023 44.962-19.614 43.338-25.707 40.091-31.299 36.843-36.891 32.422-41.312 26.831-44.56 21.237-47.807 15.146-49.431 8.555-49.431 1.965-49.431-4.129-47.807-9.72-44.56-15.313-41.312-19.734-36.891-22.981-31.299-26.229-25.707-27.854-19.614-27.854-13.023-27.854-6.433-26.229-.341-22.981 5.252-19.734 10.844-15.313 15.264-9.72 18.513-4.129 21.76 1.965 23.384 8.555 23.384" fill="#1e1e1e"/>
<path transform="matrix(1,0,0,-1,1006.8652,716.10549)" d="M0 0H-4.309V54.543H0V20.508L21.8 41.359 24.816 38.344C22.489 36.534 14.993 32.398 9.134 26.28L7.669 24.729 28.004 .689 23.954-1.206 19.818 3.705C19.301 4.309 5.17 22.403 5.17 22.403L0 17.405Z" fill="#1e1e1e"/>
<path transform="matrix(1,0,0,-1,1111.6406,691.8926)" d="M0 0C0 8.703-5.17 14.562-12.752 14.562-19.818 14.562-24.73 8.789-25.764-.173ZM-25.936-3.705C-25.936-15.079-19.991-22.748-11.116-22.748-9.047-22.748-5.945-21.628-4.05-20.767L1.896-18.095 3.36-21.283C1.723-21.973-4.912-24.902-11.805-24.902-23.006-24.902-30.589-16.544-30.589-3.964-30.589 8.444-23.179 16.716-12.149 16.716-2.24 16.716 4.395 9.909 4.395-.259V-2.844L-25.85-2.326C-25.85-2.758-25.936-3.188-25.936-3.705" fill="#1e1e1e"/>
<path transform="matrix(1,0,0,-1,1195.6484,691.8926)" d="M0 0C0 8.703-5.17 14.562-12.752 14.562-19.818 14.562-24.73 8.789-25.764-.173ZM-25.936-3.705C-25.936-15.079-19.991-22.748-11.116-22.748-9.047-22.748-5.945-21.628-4.05-20.767L1.896-18.095 3.36-21.283C1.723-21.973-4.912-24.902-11.805-24.902-23.006-24.902-30.589-16.544-30.589-3.964-30.589 8.444-23.179 16.716-12.149 16.716-2.24 16.716 4.395 9.909 4.395-.259V-2.844L-25.85-2.326C-25.85-2.758-25.936-3.188-25.936-3.705" fill="#1e1e1e"/>
<path transform="matrix(1,0,0,-1,1256.3052,709.2119)" d="M0 0 10.254-3.619C12.58-4.48 14.648-4.653 15.941-4.653 21.456-4.653 25.074 2.499 25.074 13.184 25.074 23.868 21.456 31.105 15.941 31.105 14.648 31.105 12.58 30.934 10.254 30.072L0 26.28ZM-2.327 33.604-.431 28.09 8.875 31.881C11.977 33.174 14.476 34.035 17.061 34.035 24.729 34.035 29.728 25.678 29.728 13.184 29.728 .689 24.729-7.583 17.061-7.583 14.476-7.583 11.977-6.635 8.875-5.429L0-1.896V-21.283H-4.309V33.346Z" fill="#1e1e1e"/>
<path transform="matrix(1,0,0,-1,1404.1592,679.4844)" d="M0 0V2.153H7.841V10.598L12.149 12.58V2.153C19.474 2.153 24.644 2.843 26.194 2.843V0H12.149V-12.926C12.149-16.631 11.46-25.851 11.46-27.315 11.46-32.485 13.873-34.467 20.249-34.467 21.197-34.467 23.782-33.863 24.902-33.52L25.85-35.587C22.662-36.707 18.871-37.311 17.578-37.311 11.288-37.311 7.841-33.863 7.841-27.315V0Z" fill="#1e1e1e"/>
<path transform="matrix(1,0,0,-1,1496.353,680.1738)" d="M0 0C-2.758 0-5.257-1.379-7.411-3.533L-10.771-6.894V-35.932H-15.08V4.308L-13.098 4.652-10.771-3.878-7.841-.862C-3.964 3.016-1.896 5.601 2.843 5.601L2.24 0Z" fill="#1e1e1e"/>
<path transform="matrix(1,0,0,-1,1559.5098,696.37307)" d="M0 0C-6.376 0-10.081-3.878-10.081-9.651-10.081-14.39-7.237-17.578-2.067-17.578-1.12-17.578 1.207-17.406 2.327-16.975L13.787-12.839V0ZM18.096 10.167V-10.771C18.096-13.701 19.302-18.612 19.561-19.388L15.941-20.077 14.046-14.734 3.705-18.784C.604-19.991-.947-20.422-2.24-20.422-9.65-20.422-14.562-16.027-14.562-9.307-14.562-2.413-8.788 2.154-.775 2.154H13.787V9.995C13.787 15.854 10.082 19.042 3.188 19.042 .173 19.042-2.757 18.267-5.083 17.233L-9.909 15.079-11.115 18.354C-9.736 18.956-3.016 21.196 3.188 21.196 12.926 21.196 18.096 17.319 18.096 10.167" fill="#1e1e1e"/>
<path transform="matrix(1,0,0,-1,0,4036.626)" d="M1631.799 3360.76H1636.1069V3320.521H1631.799ZM1635.073 3370.411H1632.833C1631.799 3370.411 1631.454 3370.756 1631.454 3371.703V3374.374C1631.454 3375.15 1631.799 3375.495 1632.833 3375.495H1635.073C1636.106 3375.495 1636.451 3375.15 1636.451 3374.374V3371.703C1636.451 3370.756 1636.106 3370.411 1635.073 3370.411" fill="#1e1e1e"/>
<path transform="matrix(1,0,0,-1,1694.9551,716.10549)" d="M0 0H-4.308V40.239L-1.981 40.498-.345 35.156 10.341 39.292C13.873 40.671 16.544 40.929 19.043 40.929 25.333 40.929 28.693 37.396 28.693 30.934V0H24.386V30.072C24.386 35.414 21.801 38.344 17.062 38.344 15.597 38.344 13.271 37.913 12.063 37.482L0 33.347Z" fill="#1e1e1e"/>
<path transform="matrix(1,0,0,-1,0,4036.626)" d="M1777.844 3360.76H1782.152V3320.521H1777.844ZM1781.118 3370.411H1778.878C1777.844 3370.411 1777.499 3370.756 1777.499 3371.703V3374.374C1777.499 3375.15 1777.844 3375.495 1778.878 3375.495H1781.118C1782.151 3375.495 1782.496 3375.15 1782.496 3374.374V3371.703C1782.496 3370.756 1782.151 3370.411 1781.118 3370.411" fill="#1e1e1e"/>
<path transform="matrix(1,0,0,-1,1841.001,716.10549)" d="M0 0H-4.308V40.239L-1.981 40.498-.345 35.156 10.341 39.292C13.873 40.671 16.544 40.929 19.043 40.929 25.333 40.929 28.693 37.396 28.693 30.934V0H24.386V30.072C24.386 35.414 21.801 38.344 17.062 38.344 15.597 38.344 13.271 37.913 12.063 37.482L0 33.347Z" fill="#1e1e1e"/>
<path transform="matrix(1,0,0,-1,1940.8633,679.13967)" d="M0 0C-2.326 .861-4.395 1.033-5.687 1.033-11.202 1.033-14.82-6.204-14.82-16.889-14.82-27.573-11.202-34.726-5.687-34.726-4.395-34.726-2.326-34.553 0-33.691L10.254-30.072V-3.792ZM14.562-38.861C14.562-46.271 9.134-51.355 .861-51.355L-14.648-51.27V-47.736C-11.547-47.736-4.911-49.201 .172-49.201 6.721-49.201 10.254-46.014 10.254-40.154V-31.968L1.379-35.501C-1.724-36.707-4.223-37.655-6.808-37.655-14.476-37.655-19.474-29.383-19.474-16.889-19.474-4.395-14.476 3.963-6.808 3.963-4.223 3.963-1.724 3.102 1.379 1.809L10.685-1.982 12.58 3.532 14.562 3.273Z" fill="#1e1e1e"/>
<path transform="matrix(1,0,0,-1,682.873,1345.3418)" d="M0 0C1.571 .001 2.812-.527 3.733-1.57 4.648-2.619 5.109-3.799 5.11-5.106L5.113-12.964C4.849-12.964 4.389-13.1 3.738-13.358 3.082-13.622 1.903-14.341 .203-15.521-1.503-16.7-3.007-17.946-4.314-19.255-5.627-20.569-7.063-22.399-8.634-24.758-10.204-27.116-11.253-29.737-11.774-32.617L-38.393-268.376C-38.655-272.833-41.011-275.057-45.462-275.059L-79.253-275.072C-83.182-275.074-85.675-272.981-86.721-268.789L-122.541-113.604-158.624-269.212C-159.672-273.142-162.158-275.107-166.086-275.109L-200.663-275.123C-205.12-275.125-207.479-272.903-207.738-268.447L-233.377-31.925C-234.692-27.737-236.72-24.067-239.472-20.925-242.224-17.783-244.778-15.69-247.136-14.642L-250.28-13.071-250.283-5.214C-250.284-3.642-249.824-2.401-248.91-1.479-247.995-.565-246.75-.104-245.178-.104L-196.85-.083C-192.398-.081-190.04-2.309-189.774-6.76L-176.348-167.455-174.383-167.454-140.66-6.347C-139.618-2.158-137.127-.058-133.198-.056L-112.373-.047C-108.444-.046-105.957-2.145-104.905-6.331L-71.047-167.411-69.476-167.41-55.398-6.703C-54.878-2.252-52.521-.022-48.329-.021L-15.324-.007Z" fill="#1e1e1e"/>
<path transform="matrix(1,0,0,-1,789.7368,1573.0772)" d="M0 0-.054 129.003C-.057 136.452-3.786 140.177-11.235 140.174L-27.52 140.167C-34.974 140.164-38.694 136.436-38.691 128.986L-38.637-.017C-38.634-7.471-34.911-11.19-27.457-11.188L-11.171-11.181C-3.722-11.178 .003-7.454 0 0M-4.225 176.26C8.972 176.266 18.977 172.861 25.794 166.054 32.608 159.242 36.02 149.239 36.025 136.043L36.085-7.011C36.091-20.212 32.688-30.217 25.88-37.03 19.067-43.849 9.065-47.255-4.131-47.261L-35.424-47.273C-48.626-47.279-58.631-43.881-65.444-37.068-72.262-30.261-75.669-20.259-75.675-7.058L-75.735 135.996C-75.74 149.192-72.342 159.198-65.53 166.016-58.722 172.829-48.72 176.241-35.518 176.247Z" fill="#1e1e1e"/>
<path transform="matrix(1,0,0,-1,934.0649,1573.0166)" d="M0 0-.054 129.003C-.057 136.452-3.786 140.177-11.235 140.174L-27.52 140.167C-34.974 140.164-38.694 136.436-38.691 128.986L-38.637-.017C-38.634-7.471-34.911-11.19-27.457-11.188L-11.171-11.181C-3.722-11.178 .003-7.454 0 0M-4.225 176.26C8.972 176.266 18.977 172.861 25.794 166.054 32.608 159.242 36.02 149.239 36.025 136.043L36.085-7.011C36.091-20.212 32.688-30.217 25.88-37.03 19.067-43.849 9.065-47.255-4.131-47.261L-35.424-47.273C-48.626-47.279-58.631-43.881-65.444-37.068-72.262-30.261-75.669-20.259-75.675-7.058L-75.735 135.996C-75.74 149.192-72.342 159.198-65.53 166.016-58.722 172.829-48.72 176.241-35.518 176.247Z" fill="#1e1e1e"/>
<path transform="matrix(1,0,0,-1,1243.4238,1345.1065)" d="M0 0C1.571 .001 2.812-.527 3.733-1.569 4.648-2.619 5.109-3.799 5.11-5.106L5.113-12.964C4.849-12.964 4.389-13.1 3.738-13.357 3.082-13.622 1.903-14.341 .203-15.521-1.503-16.7-3.007-17.946-4.314-19.255-5.627-20.568-7.063-22.399-8.634-24.758-10.204-27.115-11.253-29.737-11.774-32.617L-38.393-268.376C-38.655-272.833-41.011-275.057-45.462-275.059L-79.253-275.072C-83.182-275.074-85.675-272.981-86.721-268.789L-122.541-113.604-158.624-269.212C-159.672-273.142-162.158-275.107-166.086-275.109L-200.663-275.123C-205.12-275.125-207.479-272.903-207.738-268.446L-233.377-31.924C-234.692-27.737-236.72-24.067-239.472-20.925-242.224-17.783-244.778-15.69-247.136-14.642L-250.28-13.071-250.283-5.214C-250.284-3.642-249.824-2.4-248.91-1.479-247.995-.565-246.75-.104-245.178-.103L-196.85-.083C-192.398-.081-190.04-2.309-189.774-6.76L-176.348-167.455-174.383-167.454-140.66-6.347C-139.618-2.158-137.127-.058-133.198-.056L-112.373-.047C-108.444-.046-105.957-2.145-104.905-6.331L-71.047-167.411-69.476-167.41-55.398-6.703C-54.878-2.252-52.521-.022-48.329-.021L-15.324-.007Z" fill="#1e1e1e"/>
<path transform="matrix(1,0,0,-1,1408.8775,1424.4053)" d="M0 0C1.043 .522 2.485 1.241 4.321 2.163 6.15 3.078 8.574 5.24 11.587 8.648 14.594 12.051 16.103 15.852 16.101 20.045 16.097 29.475 11.509 34.188 2.343 34.184L-15.338 34.177C-24.51 34.173-29.088 29.456-29.084 20.026L-29.019-136.746C-29.015-145.653-24.433-150.103-15.261-150.099L2.42-150.092C11.586-150.088 16.17-145.635 16.167-136.728V-136.334C16.165-132.147 14.788-128.416 12.036-125.138 9.284-121.867 6.594-119.578 3.979-118.265L.049-116.303 .045-108.444C.045-107.658 .241-106.873 .634-106.087 1.026-105.3 1.616-104.711 2.401-104.317 3.187-103.925 3.973-103.728 4.758-103.728L56.229-103.313C59.895-103.311 61.731-105.274 61.732-109.204L61.748-146.138C61.755-162.382 57.5-174.693 48.994-183.077 40.482-191.468 28.237-195.659 12.262-195.666L-26.243-195.682C-42.488-195.688-54.866-191.508-63.379-183.124-71.897-174.748-76.157-162.44-76.164-146.196L-76.238 29.829C-76.245 46.067-71.996 58.378-63.484 66.769-54.978 75.151-42.604 79.351-26.359 79.357L12.146 79.373C28.121 79.38 40.371 75.191 48.889 66.815 57.402 58.433 61.667 46.126 61.674 29.888L61.69-7.047C61.691-10.718 59.856-12.548 56.191-12.55L4.72-12.965C3.406-12.965 2.295-12.443 1.379-11.394 .458-10.352 .003-9.173 .003-7.858Z" fill="#e32514"/>
<path transform="matrix(1,0,0,-1,1658.8233,1561.8193)" d="M0 0-.066 158.736C-.07 167.902-4.658 172.486-13.824 172.482L-33.862 172.474C-43.035 172.47-47.612 167.882-47.608 158.716L-47.542-.021C-47.538-9.192-42.957-13.771-33.784-13.767L-13.746-13.758C-4.58-13.754 .004-9.172 0 0M-5.198 216.885C11.04 216.892 23.351 212.704 31.741 204.327 40.124 195.944 44.322 183.638 44.329 167.399L44.403-8.626C44.41-24.87 40.222-37.182 31.846-45.565 23.463-53.955 11.155-58.147-5.083-58.154L-43.589-58.17C-59.833-58.177-72.144-53.995-80.527-45.612-88.918-37.236-93.109-24.928-93.116-8.684L-93.19 167.342C-93.197 183.58-89.016 195.89-80.632 204.28-72.256 212.664-59.948 216.862-43.704 216.869Z" fill="#e32514"/>
<path transform="matrix(1,0,0,-1,1869.3945,1492.5791)" d="M0 0 32.219 .014 16.072 87.626ZM98.269-99.366C99.578-102.508 101.477-105.325 103.97-107.811 106.457-110.302 108.49-112.002 110.062-112.916 111.635-113.836 112.55-114.29 112.813-114.29L112.816-122.148C112.817-123.462 112.356-124.642 111.443-125.686 110.522-126.735 109.411-127.258 108.104-127.258L38.95-127.287C37.637-127.288 36.458-126.767 35.414-125.718 34.363-124.674 33.842-123.495 33.841-122.182L33.838-114.323C34.359-114.065 35.078-113.801 35.999-113.536 36.913-113.278 38.355-112.491 40.319-111.178 42.283-109.869 44.051-108.493 45.622-107.049 47.193-105.612 48.5-103.708 49.549-101.351 50.591-98.992 50.854-96.506 50.331-93.885V-92.706L40.881-45.953-9.412-45.582-18.429-93.521V-93.914C-18.691-95.75-18.623-97.585-18.229-99.415-17.836-101.25-17.185-102.821-16.264-104.129-15.348-105.441-14.235-106.682-12.922-107.859-11.613-109.038-10.306-110.02-8.991-110.806-7.683-111.59-6.504-112.247-5.454-112.768-4.411-113.296-3.624-113.688-3.096-113.945L-1.917-114.339-1.914-122.197C-1.913-123.511-2.441-124.689-3.484-125.733-4.534-126.784-5.713-127.306-7.021-127.307L-75.78-127.335C-77.352-127.336-78.592-126.815-79.513-125.766-80.429-124.722-80.889-123.544-80.89-122.23L-80.893-114.372C-79.843-113.849-78.598-113.131-77.161-112.209-75.725-111.293-73.564-109.199-70.681-105.919-67.803-102.646-65.84-99.041-64.791-95.112L-19.695 114.33C-19.438 118.517-20.68 122.316-23.432 125.723-26.184 129.123-29.003 131.479-31.882 132.791L-36.205 134.755-36.209 142.612C-36.209 144.185-35.756 145.425-34.835 146.346-33.921 147.261-32.675 147.722-31.104 147.723L40.014 147.752C43.415 147.754 45.381 146.184 45.91 143.04Z" fill="#e32514"/>
<path transform="matrix(1,0,0,-1,2143.6143,1424.0967)" d="M0 0C1.044 .522 2.486 1.241 4.321 2.163 6.151 3.078 8.575 5.24 11.589 8.648 14.595 12.051 16.103 15.852 16.102 20.045 16.098 29.475 11.51 34.188 2.344 34.184L-15.337 34.177C-24.509 34.173-29.087 29.456-29.083 20.026L-29.018-136.746C-29.014-145.653-24.432-150.103-15.26-150.099L2.421-150.092C11.587-150.088 16.171-145.635 16.167-136.728V-136.334C16.165-132.147 14.788-128.416 12.037-125.138 9.285-121.867 6.596-119.578 3.979-118.265L.049-116.303 .046-108.444C.046-107.658 .242-106.873 .635-106.087 1.027-105.3 1.616-104.711 2.401-104.317 3.188-103.925 3.974-103.728 4.76-103.728L56.23-103.313C59.896-103.311 61.732-105.274 61.733-109.204L61.749-146.138C61.756-162.382 57.5-174.693 48.995-183.077 40.484-191.468 28.237-195.659 12.263-195.666L-26.243-195.682C-42.487-195.688-54.865-191.508-63.378-183.124-71.896-174.748-76.156-162.44-76.163-146.196L-76.237 29.829C-76.244 46.067-71.994 58.378-63.482 66.769-54.978 75.151-42.603 79.351-26.358 79.357L12.147 79.373C28.122 79.38 40.372 75.191 48.891 66.815 57.402 58.433 61.668 46.126 61.675 29.888L61.69-7.047C61.692-10.718 59.858-12.548 56.192-12.55L4.722-12.965C3.407-12.965 2.296-12.443 1.381-11.394 .46-10.352 .004-9.173 .004-7.858Z" fill="#e32514"/>
<path transform="matrix(1,0,0,-1,2445.3516,1377.999)" d="M0 0 .001-.394 .088-207.852V-208.244C.089-210.865 .68-213.419 1.859-215.905 3.039-218.397 4.415-220.361 5.987-221.798 7.561-223.239 9.132-224.546 10.704-225.725 12.276-226.902 13.713-227.626 15.027-227.884L16.599-228.669 16.602-236.527C16.603-237.841 16.075-239.02 15.032-240.064 13.982-241.114 12.804-241.637 11.496-241.637L-5.792-241.645-41.154-241.659-58.05-241.666C-59.363-241.667-60.542-241.146-61.586-240.097-62.637-239.053-63.158-237.874-63.159-236.561L-63.162-228.702C-61.854-228.18-60.284-227.522-58.448-226.735-56.619-225.949-54.194-223.786-51.183-220.249-48.175-216.712-46.667-212.721-46.669-208.264V-207.871L-46.703-126.931-90.709-126.949-90.675-208.282C-90.673-212.476-89.296-216.337-86.544-219.871-83.792-223.406-81.108-225.701-78.486-226.744L-74.164-228.707-74.161-236.565C-74.16-237.879-74.688-239.058-75.73-240.103-76.78-241.152-77.959-241.675-79.267-241.675L-96.162-241.683-131.524-241.697-148.812-241.704C-150.384-241.705-151.63-241.184-152.545-240.135-153.467-239.091-153.921-237.912-153.922-236.599L-153.925-228.74C-153.667-228.74-153.471-228.679-153.336-228.544-153.207-228.415-152.746-228.15-151.962-227.758-151.176-227.363-150.39-226.971-149.604-226.578-148.818-226.184-147.971-225.662-147.051-225.004-146.137-224.354-145.222-223.629-144.302-222.843-143.387-222.057-142.533-221.141-141.749-220.091-140.963-219.047-140.245-217.929-139.589-216.75-138.938-215.571-138.411-214.264-138.019-212.821-137.627-211.384-137.431-209.873-137.432-208.302V-207.909L-137.519-.451-137.52-.058C-137.521 4.394-138.897 8.321-141.649 11.728-144.401 15.128-147.091 17.355-149.706 18.403L-154.029 20.367-154.033 28.225C-154.033 29.797-153.58 31.037-152.659 31.958-151.745 32.873-150.499 33.334-148.928 33.335L-96.277 33.356C-92.612 33.358-90.775 31.523-90.774 27.858L-90.729-81.371-46.723-81.353-46.769 27.877C-46.77 31.542-44.94 33.379-41.27 33.38L11.381 33.402C12.688 33.402 13.867 32.942 14.918 32.028 15.962 31.108 16.49 29.868 16.49 28.296L16.494 20.438C15.967 20.438 15.315 20.24 14.53 19.848 13.744 19.455 12.431 18.668 10.602 17.488 8.767 16.31 7.128 14.995 5.692 13.558 4.25 12.114 2.943 10.149 1.766 7.662 .588 5.169-.001 2.615 0 0" fill="#e32514"/>
<path transform="matrix(1,0,0,-1,2523.5352,1318.3037)" d="M0 0V-10.505H6.32C9.172-10.505 11.343-10.133 12.832-9.388 14.322-8.644 15.065-7.161 15.065-4.943 15.065-3.423 14.416-2.219 13.118-1.331 11.817-.444 9.806 0 7.081 0ZM0-32.511H-7.891V6.132H10.408C13.262 6.132 15.652 5.68 17.586 4.776 19.518 3.873 20.977 2.59 21.959 .927 22.939-.736 23.432-2.661 23.432-4.849 23.432-7.574 22.513-9.927 20.675-11.906 18.837-13.888 16.285-15.1 13.022-15.543 14.703-16.177 16.056-17.119 17.086-18.371 18.115-19.623 19.486-21.738 21.198-24.716L25.76-32.511H16.017L12.832-26.284C11.343-23.496 10.076-21.43 9.031-20.082 7.983-18.735 6.938-17.824 5.893-17.349 4.848-16.873 3.565-16.636 2.043-16.636H0ZM8.65 16.255C3.357 16.255-1.538 14.948-6.037 12.334-10.536 9.72-14.102 6.162-16.731 1.663-19.361-2.836-20.676-7.732-20.676-13.023-20.676-18.315-19.354-23.219-16.708-27.734-14.063-32.249-10.489-35.807-5.99-38.404-1.491-41.003 3.391-42.303 8.65-42.303 14.005-42.303 18.907-40.995 23.361-38.381 27.812-35.767 31.338-32.21 33.937-27.71 36.533-23.211 37.833-18.315 37.833-13.023 37.833-7.7 36.533-2.789 33.937 1.711 31.338 6.21 27.804 9.759 23.336 12.357 18.868 14.955 13.974 16.255 8.65 16.255M8.555 23.384C13.53 23.384 18.227 22.457 22.647 20.604 27.068 18.75 30.965 16.137 34.34 12.762 37.716 9.387 40.328 5.489 42.183 1.068 44.036-3.351 44.962-8.049 44.962-13.023 44.962-19.614 43.338-25.707 40.091-31.299 36.843-36.892 32.422-41.312 26.831-44.56 21.237-47.808 15.146-49.432 8.555-49.432 1.965-49.432-4.129-47.808-9.72-44.56-15.313-41.312-19.734-36.892-22.981-31.299-26.229-25.707-27.854-19.614-27.854-13.023-27.854-6.433-26.229-.342-22.981 5.252-19.734 10.844-15.313 15.264-9.72 18.513-4.129 21.76 1.965 23.384 8.555 23.384" fill="#1e1e1e"/>
<path transform="matrix(1,0,0,-1,1006.8652,1733.2969)" d="M0 0H-4.309V54.543H0V20.508L21.8 41.359 24.816 38.344C22.489 36.534 14.993 32.398 9.134 26.28L7.669 24.729 28.004 .689 23.954-1.206 19.818 3.705C19.301 4.309 5.17 22.403 5.17 22.403L0 17.405Z" fill="#1e1e1e"/>
<path transform="matrix(1,0,0,-1,1111.6406,1709.084)" d="M0 0C0 8.703-5.17 14.562-12.752 14.562-19.818 14.562-24.73 8.789-25.764-.173ZM-25.936-3.705C-25.936-15.079-19.991-22.748-11.116-22.748-9.047-22.748-5.945-21.628-4.05-20.767L1.896-18.095 3.36-21.283C1.723-21.973-4.912-24.902-11.805-24.902-23.006-24.902-30.589-16.544-30.589-3.964-30.589 8.444-23.179 16.716-12.149 16.716-2.24 16.716 4.395 9.909 4.395-.259V-2.844L-25.85-2.326C-25.85-2.758-25.936-3.188-25.936-3.705" fill="#1e1e1e"/>
<path transform="matrix(1,0,0,-1,1195.6484,1709.084)" d="M0 0C0 8.703-5.17 14.562-12.752 14.562-19.818 14.562-24.73 8.789-25.764-.173ZM-25.936-3.705C-25.936-15.079-19.991-22.748-11.116-22.748-9.047-22.748-5.945-21.628-4.05-20.767L1.896-18.095 3.36-21.283C1.723-21.973-4.912-24.902-11.805-24.902-23.006-24.902-30.589-16.544-30.589-3.964-30.589 8.444-23.179 16.716-12.149 16.716-2.24 16.716 4.395 9.909 4.395-.259V-2.844L-25.85-2.326C-25.85-2.758-25.936-3.188-25.936-3.705" fill="#1e1e1e"/>
<path transform="matrix(1,0,0,-1,1256.3052,1726.4033)" d="M0 0 10.254-3.619C12.58-4.48 14.648-4.653 15.941-4.653 21.456-4.653 25.074 2.499 25.074 13.184 25.074 23.868 21.456 31.105 15.941 31.105 14.648 31.105 12.58 30.934 10.254 30.072L0 26.28ZM-2.327 33.604-.431 28.09 8.875 31.881C11.977 33.174 14.476 34.035 17.061 34.035 24.729 34.035 29.728 25.678 29.728 13.184 29.728 .689 24.729-7.583 17.061-7.583 14.476-7.583 11.977-6.635 8.875-5.429L0-1.896V-21.283H-4.309V33.346Z" fill="#1e1e1e"/>
<path transform="matrix(1,0,0,-1,1404.1592,1696.6758)" d="M0 0V2.153H7.841V10.598L12.149 12.58V2.153C19.474 2.153 24.644 2.843 26.194 2.843V0H12.149V-12.926C12.149-16.631 11.46-25.851 11.46-27.315 11.46-32.485 13.873-34.467 20.249-34.467 21.197-34.467 23.782-33.863 24.902-33.52L25.85-35.587C22.662-36.707 18.871-37.311 17.578-37.311 11.288-37.311 7.841-33.863 7.841-27.315V0Z" fill="#1e1e1e"/>
<path transform="matrix(1,0,0,-1,1496.353,1697.3652)" d="M0 0C-2.758 0-5.257-1.379-7.411-3.533L-10.771-6.894V-35.932H-15.08V4.308L-13.098 4.652-10.771-3.878-7.841-.862C-3.964 3.016-1.896 5.601 2.843 5.601L2.24 0Z" fill="#1e1e1e"/>
<path transform="matrix(1,0,0,-1,1559.5098,1713.5645)" d="M0 0C-6.376 0-10.081-3.878-10.081-9.651-10.081-14.39-7.237-17.578-2.067-17.578-1.12-17.578 1.207-17.406 2.327-16.975L13.787-12.839V0ZM18.096 10.167V-10.771C18.096-13.701 19.302-18.612 19.561-19.388L15.941-20.077 14.046-14.734 3.705-18.784C.604-19.991-.947-20.422-2.24-20.422-9.65-20.422-14.562-16.027-14.562-9.307-14.562-2.413-8.788 2.154-.775 2.154H13.787V9.995C13.787 15.854 10.082 19.042 3.188 19.042 .173 19.042-2.757 18.267-5.083 17.233L-9.909 15.079-11.115 18.354C-9.736 18.956-3.016 21.196 3.188 21.196 12.926 21.196 18.096 17.319 18.096 10.167" fill="#1e1e1e"/>
<path transform="matrix(1,0,0,-1,0,4036.626)" d="M1631.799 2343.568H1636.1069V2303.329H1631.799ZM1635.073 2353.22H1632.833C1631.799 2353.22 1631.454 2353.564 1631.454 2354.512V2357.183C1631.454 2357.959 1631.799 2358.304 1632.833 2358.304H1635.073C1636.106 2358.304 1636.451 2357.959 1636.451 2357.183V2354.512C1636.451 2353.564 1636.106 2353.22 1635.073 2353.22" fill="#1e1e1e"/>
<path transform="matrix(1,0,0,-1,1694.9551,1733.2969)" d="M0 0H-4.308V40.239L-1.981 40.498-.345 35.156 10.341 39.292C13.873 40.671 16.544 40.929 19.043 40.929 25.333 40.929 28.693 37.396 28.693 30.934V0H24.386V30.072C24.386 35.414 21.801 38.344 17.062 38.344 15.597 38.344 13.271 37.913 12.063 37.482L0 33.347Z" fill="#1e1e1e"/>
<path transform="matrix(1,0,0,-1,0,4036.626)" d="M1777.844 2343.568H1782.152V2303.329H1777.844ZM1781.118 2353.22H1778.878C1777.844 2353.22 1777.499 2353.564 1777.499 2354.512V2357.183C1777.499 2357.959 1777.844 2358.304 1778.878 2358.304H1781.118C1782.151 2358.304 1782.496 2357.959 1782.496 2357.183V2354.512C1782.496 2353.564 1782.151 2353.22 1781.118 2353.22" fill="#1e1e1e"/>
<path transform="matrix(1,0,0,-1,1841.001,1733.2969)" d="M0 0H-4.308V40.239L-1.981 40.498-.345 35.156 10.341 39.292C13.873 40.671 16.544 40.929 19.043 40.929 25.333 40.929 28.693 37.396 28.693 30.934V0H24.386V30.072C24.386 35.414 21.801 38.344 17.062 38.344 15.597 38.344 13.271 37.913 12.063 37.482L0 33.347Z" fill="#1e1e1e"/>
<path transform="matrix(1,0,0,-1,1940.8633,1696.331)" d="M0 0C-2.326 .861-4.395 1.033-5.687 1.033-11.202 1.033-14.82-6.204-14.82-16.889-14.82-27.573-11.202-34.726-5.687-34.726-4.395-34.726-2.326-34.553 0-33.691L10.254-30.072V-3.792ZM14.562-38.861C14.562-46.271 9.134-51.355 .861-51.355L-14.648-51.27V-47.736C-11.547-47.736-4.911-49.201 .172-49.201 6.721-49.201 10.254-46.014 10.254-40.154V-31.968L1.379-35.501C-1.724-36.707-4.223-37.655-6.808-37.655-14.476-37.655-19.474-29.383-19.474-16.889-19.474-4.395-14.476 3.963-6.808 3.963-4.223 3.963-1.724 3.102 1.379 1.809L10.685-1.982 12.58 3.532 14.562 3.273Z" fill="#1e1e1e"/>
<path transform="matrix(1,0,0,-1,682.873,2358.4483)" d="M0 0C1.571 .001 2.812-.527 3.733-1.57 4.648-2.619 5.109-3.799 5.11-5.106L5.113-12.964C4.849-12.964 4.389-13.1 3.738-13.358 3.082-13.622 1.903-14.341 .203-15.521-1.503-16.7-3.007-17.946-4.314-19.255-5.627-20.569-7.063-22.399-8.634-24.758-10.204-27.116-11.253-29.737-11.774-32.617L-38.393-268.376C-38.655-272.833-41.011-275.057-45.462-275.059L-79.253-275.072C-83.182-275.074-85.675-272.981-86.721-268.789L-122.541-113.604-158.624-269.212C-159.672-273.142-162.158-275.107-166.086-275.109L-200.663-275.123C-205.12-275.125-207.479-272.903-207.738-268.447L-233.377-31.925C-234.692-27.737-236.72-24.067-239.472-20.925-242.224-17.783-244.778-15.69-247.136-14.642L-250.28-13.071-250.283-5.214C-250.284-3.642-249.824-2.401-248.91-1.479-247.995-.565-246.75-.104-245.178-.104L-196.85-.083C-192.398-.081-190.04-2.309-189.774-6.76L-176.348-167.455-174.383-167.454-140.66-6.347C-139.618-2.158-137.127-.058-133.198-.056L-112.373-.047C-108.444-.046-105.957-2.145-104.905-6.331L-71.047-167.411-69.476-167.41-55.398-6.703C-54.878-2.252-52.521-.022-48.329-.021L-15.324-.007Z" fill="#d4d1c7"/>
<path transform="matrix(1,0,0,-1,789.7368,2586.1837)" d="M0 0-.054 129.003C-.057 136.452-3.786 140.177-11.235 140.174L-27.52 140.167C-34.974 140.164-38.694 136.436-38.691 128.986L-38.637-.017C-38.634-7.471-34.911-11.19-27.457-11.188L-11.171-11.181C-3.722-11.178 .003-7.454 0 0M-4.225 176.26C8.972 176.266 18.977 172.861 25.794 166.054 32.608 159.242 36.02 149.239 36.025 136.043L36.085-7.011C36.091-20.212 32.688-30.217 25.88-37.03 19.067-43.849 9.065-47.255-4.131-47.261L-35.424-47.273C-48.626-47.279-58.631-43.881-65.444-37.068-72.262-30.261-75.669-20.259-75.675-7.058L-75.735 135.996C-75.74 149.192-72.342 159.198-65.53 166.016-58.722 172.829-48.72 176.241-35.518 176.247Z" fill="#d4d1c7"/>
<path transform="matrix(1,0,0,-1,934.0649,2586.123)" d="M0 0-.054 129.003C-.057 136.452-3.786 140.177-11.235 140.174L-27.52 140.167C-34.974 140.164-38.694 136.436-38.691 128.986L-38.637-.017C-38.634-7.471-34.911-11.19-27.457-11.188L-11.171-11.181C-3.722-11.178 .003-7.454 0 0M-4.225 176.26C8.972 176.266 18.977 172.861 25.794 166.054 32.608 159.242 36.02 149.239 36.025 136.043L36.085-7.011C36.091-20.212 32.688-30.217 25.88-37.03 19.067-43.849 9.065-47.255-4.131-47.261L-35.424-47.273C-48.626-47.279-58.631-43.881-65.444-37.068-72.262-30.261-75.669-20.259-75.675-7.058L-75.735 135.996C-75.74 149.192-72.342 159.198-65.53 166.016-58.722 172.829-48.72 176.241-35.518 176.247Z" fill="#d4d1c7"/>
<path transform="matrix(1,0,0,-1,1243.4238,2358.213)" d="M0 0C1.571 .001 2.812-.527 3.733-1.569 4.648-2.619 5.109-3.799 5.11-5.106L5.113-12.964C4.849-12.964 4.389-13.1 3.738-13.357 3.082-13.622 1.903-14.341 .203-15.521-1.503-16.7-3.007-17.946-4.314-19.255-5.627-20.568-7.063-22.399-8.634-24.758-10.204-27.115-11.253-29.737-11.774-32.617L-38.393-268.376C-38.655-272.833-41.011-275.057-45.462-275.059L-79.253-275.072C-83.182-275.074-85.675-272.981-86.721-268.789L-122.541-113.604-158.624-269.212C-159.672-273.142-162.158-275.107-166.086-275.109L-200.663-275.123C-205.12-275.125-207.479-272.903-207.738-268.446L-233.377-31.924C-234.692-27.737-236.72-24.067-239.472-20.925-242.224-17.783-244.778-15.69-247.136-14.642L-250.28-13.071-250.283-5.214C-250.284-3.642-249.824-2.4-248.91-1.479-247.995-.565-246.75-.104-245.178-.103L-196.85-.083C-192.398-.081-190.04-2.309-189.774-6.76L-176.348-167.455-174.383-167.454-140.66-6.347C-139.618-2.158-137.127-.058-133.198-.056L-112.373-.047C-108.444-.046-105.957-2.145-104.905-6.331L-71.047-167.411-69.476-167.41-55.398-6.703C-54.878-2.252-52.521-.022-48.329-.021L-15.324-.007Z" fill="#d4d1c7"/>
<path transform="matrix(1,0,0,-1,1408.8775,2437.5118)" d="M0 0C1.043 .522 2.485 1.241 4.321 2.163 6.15 3.078 8.574 5.24 11.587 8.648 14.594 12.051 16.103 15.852 16.101 20.045 16.097 29.475 11.509 34.188 2.343 34.184L-15.338 34.177C-24.51 34.173-29.088 29.456-29.084 20.026L-29.019-136.746C-29.015-145.653-24.433-150.103-15.261-150.099L2.42-150.092C11.586-150.088 16.17-145.635 16.167-136.728V-136.334C16.165-132.147 14.788-128.416 12.036-125.138 9.284-121.867 6.594-119.578 3.979-118.265L.049-116.303 .045-108.444C.045-107.658 .241-106.873 .634-106.087 1.026-105.3 1.616-104.711 2.401-104.317 3.187-103.925 3.973-103.728 4.758-103.728L56.229-103.313C59.895-103.311 61.731-105.274 61.732-109.204L61.748-146.138C61.755-162.382 57.5-174.693 48.994-183.077 40.482-191.468 28.237-195.659 12.262-195.666L-26.243-195.682C-42.488-195.688-54.866-191.508-63.379-183.124-71.897-174.748-76.157-162.44-76.164-146.196L-76.238 29.829C-76.245 46.067-71.996 58.378-63.484 66.769-54.978 75.151-42.604 79.351-26.359 79.357L12.146 79.373C28.121 79.38 40.371 75.191 48.889 66.815 57.402 58.433 61.667 46.126 61.674 29.888L61.69-7.047C61.691-10.718 59.856-12.548 56.191-12.55L4.72-12.965C3.406-12.965 2.295-12.443 1.379-11.394 .458-10.352 .003-9.173 .003-7.858Z" fill="#e32514"/>
<path transform="matrix(1,0,0,-1,1658.8233,2574.9259)" d="M0 0-.066 158.736C-.07 167.902-4.658 172.486-13.824 172.482L-33.862 172.474C-43.035 172.47-47.612 167.882-47.608 158.716L-47.542-.021C-47.538-9.192-42.957-13.771-33.784-13.767L-13.746-13.758C-4.58-13.754 .004-9.172 0 0M-5.198 216.885C11.04 216.892 23.351 212.704 31.741 204.327 40.124 195.944 44.322 183.638 44.329 167.399L44.403-8.626C44.41-24.87 40.222-37.182 31.846-45.565 23.463-53.955 11.155-58.147-5.083-58.154L-43.589-58.17C-59.833-58.177-72.144-53.995-80.527-45.612-88.918-37.236-93.109-24.928-93.116-8.684L-93.19 167.342C-93.197 183.58-89.016 195.89-80.632 204.28-72.256 212.664-59.948 216.862-43.704 216.869Z" fill="#e32514"/>
<path transform="matrix(1,0,0,-1,1869.3945,2505.6856)" d="M0 0 32.219 .014 16.072 87.626ZM98.269-99.366C99.578-102.508 101.477-105.325 103.97-107.811 106.457-110.302 108.49-112.002 110.062-112.916 111.635-113.836 112.55-114.29 112.813-114.29L112.816-122.148C112.817-123.462 112.356-124.642 111.443-125.686 110.522-126.735 109.411-127.258 108.104-127.258L38.95-127.287C37.637-127.288 36.458-126.767 35.414-125.718 34.363-124.674 33.842-123.495 33.841-122.182L33.838-114.323C34.359-114.065 35.078-113.801 35.999-113.536 36.913-113.278 38.355-112.491 40.319-111.178 42.283-109.869 44.051-108.493 45.622-107.049 47.193-105.612 48.5-103.708 49.549-101.351 50.591-98.992 50.854-96.506 50.331-93.885V-92.706L40.881-45.953-9.412-45.582-18.429-93.521V-93.914C-18.691-95.75-18.623-97.585-18.229-99.415-17.836-101.25-17.185-102.821-16.264-104.129-15.348-105.441-14.235-106.682-12.922-107.859-11.613-109.038-10.306-110.02-8.991-110.806-7.683-111.59-6.504-112.247-5.454-112.768-4.411-113.296-3.624-113.688-3.096-113.945L-1.917-114.339-1.914-122.197C-1.913-123.511-2.441-124.689-3.484-125.733-4.534-126.784-5.713-127.306-7.021-127.307L-75.78-127.335C-77.352-127.336-78.592-126.815-79.513-125.766-80.429-124.722-80.889-123.544-80.89-122.23L-80.893-114.372C-79.843-113.849-78.598-113.131-77.161-112.209-75.725-111.293-73.564-109.199-70.681-105.919-67.803-102.646-65.84-99.041-64.791-95.112L-19.695 114.33C-19.438 118.517-20.68 122.316-23.432 125.723-26.184 129.123-29.003 131.479-31.882 132.791L-36.205 134.755-36.209 142.612C-36.209 144.185-35.756 145.425-34.835 146.346-33.921 147.261-32.675 147.722-31.104 147.723L40.014 147.752C43.415 147.754 45.381 146.184 45.91 143.04Z" fill="#e32514"/>
<path transform="matrix(1,0,0,-1,2143.6143,2437.2032)" d="M0 0C1.044 .522 2.486 1.241 4.321 2.163 6.151 3.078 8.575 5.24 11.589 8.648 14.595 12.051 16.103 15.852 16.102 20.045 16.098 29.475 11.51 34.188 2.344 34.184L-15.337 34.177C-24.509 34.173-29.087 29.456-29.083 20.026L-29.018-136.746C-29.014-145.653-24.432-150.103-15.26-150.099L2.421-150.092C11.587-150.088 16.171-145.635 16.167-136.728V-136.334C16.165-132.147 14.788-128.416 12.037-125.138 9.285-121.867 6.596-119.578 3.979-118.265L.049-116.303 .046-108.444C.046-107.658 .242-106.873 .635-106.087 1.027-105.3 1.616-104.711 2.401-104.317 3.188-103.925 3.974-103.728 4.76-103.728L56.23-103.313C59.896-103.311 61.732-105.274 61.733-109.204L61.749-146.138C61.756-162.382 57.5-174.693 48.995-183.077 40.484-191.468 28.237-195.659 12.263-195.666L-26.243-195.682C-42.487-195.688-54.865-191.508-63.378-183.124-71.896-174.748-76.156-162.44-76.163-146.196L-76.237 29.829C-76.244 46.067-71.994 58.378-63.482 66.769-54.978 75.151-42.603 79.351-26.358 79.357L12.147 79.373C28.122 79.38 40.372 75.191 48.891 66.815 57.402 58.433 61.668 46.126 61.675 29.888L61.69-7.047C61.692-10.718 59.858-12.548 56.192-12.55L4.722-12.965C3.407-12.965 2.296-12.443 1.381-11.394 .46-10.352 .004-9.173 .004-7.858Z" fill="#e32514"/>
<path transform="matrix(1,0,0,-1,2445.3516,2391.1055)" d="M0 0 .001-.394 .088-207.852V-208.244C.089-210.865 .68-213.419 1.859-215.905 3.039-218.397 4.415-220.361 5.987-221.798 7.561-223.239 9.132-224.546 10.704-225.725 12.276-226.902 13.713-227.626 15.027-227.884L16.599-228.669 16.602-236.527C16.603-237.841 16.075-239.02 15.032-240.064 13.982-241.114 12.804-241.637 11.496-241.637L-5.792-241.645-41.154-241.659-58.05-241.666C-59.363-241.667-60.542-241.146-61.586-240.097-62.637-239.053-63.158-237.874-63.159-236.561L-63.162-228.702C-61.854-228.18-60.284-227.522-58.448-226.735-56.619-225.949-54.194-223.786-51.183-220.249-48.175-216.712-46.667-212.721-46.669-208.264V-207.871L-46.703-126.931-90.709-126.949-90.675-208.282C-90.673-212.476-89.296-216.337-86.544-219.871-83.792-223.406-81.108-225.701-78.486-226.744L-74.164-228.707-74.161-236.565C-74.16-237.879-74.688-239.058-75.73-240.103-76.78-241.152-77.959-241.675-79.267-241.675L-96.162-241.683-131.524-241.697-148.812-241.704C-150.384-241.705-151.63-241.184-152.545-240.135-153.467-239.091-153.921-237.912-153.922-236.599L-153.925-228.74C-153.667-228.74-153.471-228.679-153.336-228.544-153.207-228.415-152.746-228.15-151.962-227.758-151.176-227.363-150.39-226.971-149.604-226.578-148.818-226.184-147.971-225.662-147.051-225.004-146.137-224.354-145.222-223.629-144.302-222.843-143.387-222.057-142.533-221.141-141.749-220.091-140.963-219.047-140.245-217.929-139.589-216.75-138.938-215.571-138.411-214.264-138.019-212.821-137.627-211.384-137.431-209.873-137.432-208.302V-207.909L-137.519-.451-137.52-.058C-137.521 4.394-138.897 8.321-141.649 11.728-144.401 15.128-147.091 17.355-149.706 18.403L-154.029 20.367-154.033 28.225C-154.033 29.797-153.58 31.037-152.659 31.958-151.745 32.873-150.499 33.334-148.928 33.335L-96.277 33.356C-92.612 33.358-90.775 31.523-90.774 27.858L-90.729-81.371-46.723-81.353-46.769 27.877C-46.77 31.542-44.94 33.379-41.27 33.38L11.381 33.402C12.688 33.402 13.867 32.942 14.918 32.028 15.962 31.108 16.49 29.868 16.49 28.296L16.494 20.438C15.967 20.438 15.315 20.24 14.53 19.848 13.744 19.455 12.431 18.668 10.602 17.488 8.767 16.31 7.128 14.995 5.692 13.558 4.25 12.114 2.943 10.149 1.766 7.662 .588 5.169-.001 2.615 0 0" fill="#e32514"/>
<path transform="matrix(1,0,0,-1,2523.5352,2331.4112)" d="M0 0V-10.504H6.32C9.172-10.504 11.343-10.132 12.832-9.387 14.322-8.643 15.065-7.161 15.065-4.942 15.065-3.422 14.416-2.218 13.118-1.33 11.817-.443 9.806 0 7.081 0ZM0-32.511H-7.891V6.132H10.408C13.262 6.132 15.652 5.68 17.586 4.777 19.518 3.874 20.977 2.59 21.959 .927 22.939-.736 23.432-2.661 23.432-4.848 23.432-7.574 22.513-9.926 20.675-11.906 18.837-13.887 16.285-15.099 13.022-15.542 14.703-16.177 16.056-17.119 17.086-18.37 18.115-19.622 19.486-21.737 21.198-24.716L25.76-32.511H16.017L12.832-26.283C11.343-23.496 10.076-21.429 9.031-20.081 7.983-18.735 6.938-17.824 5.893-17.349 4.848-16.873 3.565-16.636 2.043-16.636H0ZM8.65 16.256C3.357 16.256-1.538 14.948-6.037 12.334-10.536 9.72-14.102 6.162-16.731 1.663-19.361-2.836-20.676-7.731-20.676-13.022-20.676-18.315-19.354-23.218-16.708-27.734-14.063-32.249-10.489-35.807-5.99-38.403-1.491-41.002 3.391-42.302 8.65-42.302 14.005-42.302 18.907-40.994 23.361-38.38 27.812-35.766 31.338-32.209 33.937-27.709 36.533-23.21 37.833-18.315 37.833-13.022 37.833-7.699 36.533-2.788 33.937 1.712 31.338 6.211 27.804 9.76 23.336 12.358 18.868 14.955 13.974 16.256 8.65 16.256M8.555 23.385C13.53 23.385 18.227 22.458 22.647 20.604 27.068 18.75 30.965 16.137 34.34 12.762 37.716 9.388 40.328 5.49 42.183 1.069 44.036-3.351 44.962-8.049 44.962-13.022 44.962-19.613 43.338-25.706 40.091-31.299 36.843-36.891 32.422-41.312 26.831-44.559 21.237-47.807 15.146-49.431 8.555-49.431 1.965-49.431-4.129-47.807-9.72-44.559-15.313-41.312-19.734-36.891-22.981-31.299-26.229-25.706-27.854-19.613-27.854-13.022-27.854-6.433-26.229-.341-22.981 5.253-19.734 10.845-15.313 15.265-9.72 18.513-4.129 21.761 1.965 23.385 8.555 23.385" fill="#d4d1c7"/>
<path transform="matrix(1,0,0,-1,1006.8652,2746.4034)" d="M0 0H-4.309V54.543H0V20.508L21.8 41.359 24.816 38.344C22.489 36.534 14.993 32.398 9.134 26.28L7.669 24.729 28.004 .689 23.954-1.206 19.818 3.705C19.301 4.309 5.17 22.403 5.17 22.403L0 17.405Z" fill="#d4d1c7"/>
<path transform="matrix(1,0,0,-1,1111.6406,2722.1905)" d="M0 0C0 8.703-5.17 14.562-12.752 14.562-19.818 14.562-24.73 8.789-25.764-.173ZM-25.936-3.705C-25.936-15.079-19.991-22.748-11.116-22.748-9.047-22.748-5.945-21.628-4.05-20.767L1.896-18.095 3.36-21.283C1.723-21.973-4.912-24.902-11.805-24.902-23.006-24.902-30.589-16.544-30.589-3.964-30.589 8.444-23.179 16.716-12.149 16.716-2.24 16.716 4.395 9.909 4.395-.259V-2.844L-25.85-2.326C-25.85-2.758-25.936-3.188-25.936-3.705" fill="#d4d1c7"/>
<path transform="matrix(1,0,0,-1,1195.6484,2722.1905)" d="M0 0C0 8.703-5.17 14.562-12.752 14.562-19.818 14.562-24.73 8.789-25.764-.173ZM-25.936-3.705C-25.936-15.079-19.991-22.748-11.116-22.748-9.047-22.748-5.945-21.628-4.05-20.767L1.896-18.095 3.36-21.283C1.723-21.973-4.912-24.902-11.805-24.902-23.006-24.902-30.589-16.544-30.589-3.964-30.589 8.444-23.179 16.716-12.149 16.716-2.24 16.716 4.395 9.909 4.395-.259V-2.844L-25.85-2.326C-25.85-2.758-25.936-3.188-25.936-3.705" fill="#d4d1c7"/>
<path transform="matrix(1,0,0,-1,1256.3052,2739.5098)" d="M0 0 10.254-3.619C12.58-4.48 14.648-4.653 15.941-4.653 21.456-4.653 25.074 2.499 25.074 13.184 25.074 23.868 21.456 31.105 15.941 31.105 14.648 31.105 12.58 30.934 10.254 30.072L0 26.28ZM-2.327 33.604-.431 28.09 8.875 31.881C11.977 33.174 14.476 34.035 17.061 34.035 24.729 34.035 29.728 25.678 29.728 13.184 29.728 .689 24.729-7.583 17.061-7.583 14.476-7.583 11.977-6.635 8.875-5.429L0-1.896V-21.283H-4.309V33.346Z" fill="#d4d1c7"/>
<path transform="matrix(1,0,0,-1,1404.1592,2709.7823)" d="M0 0V2.153H7.841V10.598L12.149 12.58V2.153C19.474 2.153 24.644 2.843 26.194 2.843V0H12.149V-12.926C12.149-16.631 11.46-25.851 11.46-27.315 11.46-32.485 13.873-34.467 20.249-34.467 21.197-34.467 23.782-33.863 24.902-33.52L25.85-35.587C22.662-36.707 18.871-37.311 17.578-37.311 11.288-37.311 7.841-33.863 7.841-27.315V0Z" fill="#d4d1c7"/>
<path transform="matrix(1,0,0,-1,1496.353,2710.4718)" d="M0 0C-2.758 0-5.257-1.379-7.411-3.533L-10.771-6.894V-35.932H-15.08V4.308L-13.098 4.652-10.771-3.878-7.841-.862C-3.964 3.016-1.896 5.601 2.843 5.601L2.24 0Z" fill="#d4d1c7"/>
<path transform="matrix(1,0,0,-1,1559.5098,2726.671)" d="M0 0C-6.376 0-10.081-3.878-10.081-9.651-10.081-14.39-7.237-17.578-2.067-17.578-1.12-17.578 1.207-17.406 2.327-16.975L13.787-12.839V0ZM18.096 10.167V-10.771C18.096-13.701 19.302-18.612 19.561-19.388L15.941-20.077 14.046-14.734 3.705-18.784C.604-19.991-.947-20.422-2.24-20.422-9.65-20.422-14.562-16.027-14.562-9.307-14.562-2.413-8.788 2.154-.775 2.154H13.787V9.995C13.787 15.854 10.082 19.042 3.188 19.042 .173 19.042-2.757 18.267-5.083 17.233L-9.909 15.079-11.115 18.354C-9.736 18.956-3.016 21.196 3.188 21.196 12.926 21.196 18.096 17.319 18.096 10.167" fill="#d4d1c7"/>
<path transform="matrix(1,0,0,-1,0,4036.626)" d="M1631.799 1330.462H1636.1069V1290.223H1631.799ZM1635.073 1340.113H1632.833C1631.799 1340.113 1631.454 1340.458 1631.454 1341.405V1344.076C1631.454 1344.853 1631.799 1345.197 1632.833 1345.197H1635.073C1636.106 1345.197 1636.451 1344.853 1636.451 1344.076V1341.405C1636.451 1340.458 1636.106 1340.113 1635.073 1340.113" fill="#d4d1c7"/>
<path transform="matrix(1,0,0,-1,1694.9551,2746.4034)" d="M0 0H-4.308V40.239L-1.981 40.498-.345 35.156 10.341 39.292C13.873 40.671 16.544 40.929 19.043 40.929 25.333 40.929 28.693 37.396 28.693 30.934V0H24.386V30.072C24.386 35.414 21.801 38.344 17.062 38.344 15.597 38.344 13.271 37.913 12.063 37.482L0 33.347Z" fill="#d4d1c7"/>
<path transform="matrix(1,0,0,-1,0,4036.626)" d="M1777.844 1330.462H1782.152V1290.223H1777.844ZM1781.118 1340.113H1778.878C1777.844 1340.113 1777.499 1340.458 1777.499 1341.405V1344.076C1777.499 1344.853 1777.844 1345.197 1778.878 1345.197H1781.118C1782.151 1345.197 1782.496 1344.853 1782.496 1344.076V1341.405C1782.496 1340.458 1782.151 1340.113 1781.118 1340.113" fill="#d4d1c7"/>
<path transform="matrix(1,0,0,-1,1841.001,2746.4034)" d="M0 0H-4.308V40.239L-1.981 40.498-.345 35.156 10.341 39.292C13.873 40.671 16.544 40.929 19.043 40.929 25.333 40.929 28.693 37.396 28.693 30.934V0H24.386V30.072C24.386 35.414 21.801 38.344 17.062 38.344 15.597 38.344 13.271 37.913 12.063 37.482L0 33.347Z" fill="#d4d1c7"/>
<path transform="matrix(1,0,0,-1,1940.8633,2709.4376)" d="M0 0C-2.326 .861-4.395 1.033-5.687 1.033-11.202 1.033-14.82-6.204-14.82-16.889-14.82-27.573-11.202-34.726-5.687-34.726-4.395-34.726-2.326-34.553 0-33.691L10.254-30.072V-3.792ZM14.562-38.861C14.562-46.271 9.134-51.355 .861-51.355L-14.648-51.27V-47.736C-11.547-47.736-4.911-49.201 .172-49.201 6.721-49.201 10.254-46.014 10.254-40.154V-31.968L1.379-35.501C-1.724-36.707-4.223-37.655-6.808-37.655-14.476-37.655-19.474-29.383-19.474-16.889-19.474-4.395-14.476 3.963-6.808 3.963-4.223 3.963-1.724 3.102 1.379 1.809L10.685-1.982 12.58 3.532 14.562 3.273Z" fill="#d4d1c7"/>
<path transform="matrix(1,0,0,-1,682.873,3367.4688)" d="M0 0C1.571 .001 2.812-.527 3.733-1.57 4.648-2.619 5.109-3.799 5.11-5.106L5.113-12.964C4.849-12.964 4.389-13.1 3.738-13.358 3.082-13.622 1.903-14.341 .203-15.521-1.503-16.7-3.007-17.946-4.314-19.255-5.627-20.569-7.063-22.399-8.634-24.758-10.204-27.116-11.253-29.737-11.774-32.617L-38.393-268.376C-38.655-272.833-41.011-275.057-45.462-275.059L-79.253-275.072C-83.182-275.074-85.675-272.981-86.721-268.789L-122.541-113.604-158.624-269.212C-159.672-273.142-162.158-275.107-166.086-275.109L-200.663-275.123C-205.12-275.125-207.479-272.903-207.738-268.447L-233.377-31.925C-234.692-27.737-236.72-24.067-239.472-20.925-242.224-17.783-244.778-15.69-247.136-14.642L-250.28-13.071-250.283-5.214C-250.284-3.642-249.824-2.401-248.91-1.479-247.995-.565-246.75-.104-245.178-.104L-196.85-.083C-192.398-.081-190.04-2.309-189.774-6.76L-176.348-167.455-174.383-167.454-140.66-6.347C-139.618-2.158-137.127-.058-133.198-.056L-112.373-.047C-108.444-.046-105.957-2.145-104.905-6.331L-71.047-167.411-69.476-167.41-55.398-6.703C-54.878-2.252-52.521-.022-48.329-.021L-15.324-.007Z" fill="#d4d1c7"/>
<path transform="matrix(1,0,0,-1,789.7368,3595.204)" d="M0 0-.054 129.003C-.057 136.452-3.786 140.177-11.235 140.174L-27.52 140.167C-34.974 140.164-38.694 136.436-38.691 128.986L-38.637-.017C-38.634-7.471-34.911-11.19-27.457-11.188L-11.171-11.181C-3.722-11.178 .003-7.454 0 0M-4.225 176.26C8.972 176.266 18.977 172.861 25.794 166.054 32.608 159.242 36.02 149.239 36.025 136.043L36.085-7.011C36.091-20.212 32.688-30.217 25.88-37.03 19.067-43.849 9.065-47.255-4.131-47.261L-35.424-47.273C-48.626-47.279-58.631-43.881-65.444-37.068-72.262-30.261-75.669-20.259-75.675-7.058L-75.735 135.996C-75.74 149.192-72.342 159.198-65.53 166.016-58.722 172.829-48.72 176.241-35.518 176.247Z" fill="#d4d1c7"/>
<path transform="matrix(1,0,0,-1,934.0649,3595.1436)" d="M0 0-.054 129.003C-.057 136.452-3.786 140.177-11.235 140.174L-27.52 140.167C-34.974 140.164-38.694 136.436-38.691 128.986L-38.637-.017C-38.634-7.471-34.911-11.19-27.457-11.188L-11.171-11.181C-3.722-11.178 .003-7.454 0 0M-4.225 176.26C8.972 176.266 18.977 172.861 25.794 166.054 32.608 159.242 36.02 149.239 36.025 136.043L36.085-7.011C36.091-20.212 32.688-30.217 25.88-37.03 19.067-43.849 9.065-47.255-4.131-47.261L-35.424-47.273C-48.626-47.279-58.631-43.881-65.444-37.068-72.262-30.261-75.669-20.259-75.675-7.058L-75.735 135.996C-75.74 149.192-72.342 159.198-65.53 166.016-58.722 172.829-48.72 176.241-35.518 176.247Z" fill="#d4d1c7"/>
<path transform="matrix(1,0,0,-1,1243.4238,3367.2335)" d="M0 0C1.571 .001 2.812-.527 3.733-1.569 4.648-2.619 5.109-3.799 5.11-5.106L5.113-12.964C4.849-12.964 4.389-13.1 3.738-13.357 3.082-13.622 1.903-14.341 .203-15.521-1.503-16.7-3.007-17.946-4.314-19.255-5.627-20.568-7.063-22.399-8.634-24.758-10.204-27.115-11.253-29.737-11.774-32.617L-38.393-268.376C-38.655-272.833-41.011-275.057-45.462-275.059L-79.253-275.072C-83.182-275.074-85.675-272.981-86.721-268.789L-122.541-113.604-158.624-269.212C-159.672-273.142-162.158-275.107-166.086-275.109L-200.663-275.123C-205.12-275.125-207.479-272.903-207.738-268.446L-233.377-31.924C-234.692-27.737-236.72-24.067-239.472-20.925-242.224-17.783-244.778-15.69-247.136-14.642L-250.28-13.071-250.283-5.214C-250.284-3.642-249.824-2.4-248.91-1.479-247.995-.565-246.75-.104-245.178-.103L-196.85-.083C-192.398-.081-190.04-2.309-189.774-6.76L-176.348-167.455-174.383-167.454-140.66-6.347C-139.618-2.158-137.127-.058-133.198-.056L-112.373-.047C-108.444-.046-105.957-2.145-104.905-6.331L-71.047-167.411-69.476-167.41-55.398-6.703C-54.878-2.252-52.521-.022-48.329-.021L-15.324-.007Z" fill="#d4d1c7"/>
<path transform="matrix(1,0,0,-1,1408.8775,3446.5323)" d="M0 0C1.043 .522 2.485 1.241 4.321 2.163 6.15 3.078 8.574 5.24 11.587 8.648 14.594 12.051 16.103 15.852 16.101 20.045 16.097 29.475 11.509 34.188 2.343 34.184L-15.338 34.177C-24.51 34.173-29.088 29.456-29.084 20.026L-29.019-136.746C-29.015-145.653-24.433-150.103-15.261-150.099L2.42-150.092C11.586-150.088 16.17-145.635 16.167-136.728V-136.334C16.165-132.147 14.788-128.416 12.036-125.138 9.284-121.867 6.594-119.578 3.979-118.265L.049-116.303 .045-108.444C.045-107.658 .241-106.873 .634-106.087 1.026-105.3 1.616-104.711 2.401-104.317 3.187-103.925 3.973-103.728 4.758-103.728L56.229-103.313C59.895-103.311 61.731-105.274 61.732-109.204L61.748-146.138C61.755-162.382 57.5-174.693 48.994-183.077 40.482-191.468 28.237-195.659 12.262-195.666L-26.243-195.682C-42.488-195.689-54.866-191.508-63.379-183.124-71.897-174.748-76.157-162.44-76.164-146.196L-76.238 29.829C-76.245 46.067-71.996 58.378-63.484 66.769-54.978 75.151-42.604 79.351-26.359 79.357L12.146 79.373C28.121 79.38 40.371 75.191 48.889 66.815 57.402 58.433 61.667 46.126 61.674 29.888L61.69-7.047C61.691-10.718 59.856-12.548 56.191-12.55L4.72-12.965C3.406-12.965 2.295-12.443 1.379-11.394 .458-10.352 .003-9.173 .003-7.858Z" fill="#1e1e1e"/>
<path transform="matrix(1,0,0,-1,1658.8233,3583.9464)" d="M0 0-.066 158.736C-.07 167.902-4.658 172.486-13.824 172.482L-33.862 172.474C-43.035 172.47-47.612 167.882-47.608 158.716L-47.542-.021C-47.538-9.192-42.957-13.771-33.784-13.767L-13.746-13.758C-4.58-13.754 .004-9.172 0 0M-5.198 216.885C11.04 216.892 23.351 212.704 31.741 204.327 40.124 195.944 44.322 183.638 44.329 167.399L44.403-8.626C44.41-24.87 40.222-37.182 31.846-45.565 23.463-53.955 11.155-58.147-5.083-58.154L-43.589-58.17C-59.833-58.177-72.144-53.995-80.527-45.612-88.918-37.236-93.109-24.928-93.116-8.684L-93.19 167.342C-93.197 183.58-89.016 195.89-80.632 204.28-72.256 212.664-59.948 216.862-43.704 216.869Z" fill="#1e1e1e"/>
<path transform="matrix(1,0,0,-1,1869.3945,3514.706)" d="M0 0 32.219 .014 16.072 87.626ZM98.269-99.366C99.578-102.508 101.477-105.325 103.97-107.811 106.457-110.302 108.49-112.002 110.062-112.916 111.635-113.836 112.55-114.29 112.813-114.29L112.816-122.148C112.817-123.462 112.356-124.642 111.443-125.686 110.522-126.735 109.411-127.258 108.104-127.258L38.95-127.287C37.637-127.288 36.458-126.767 35.414-125.718 34.363-124.674 33.842-123.495 33.841-122.182L33.838-114.323C34.359-114.065 35.078-113.801 35.999-113.536 36.913-113.278 38.355-112.491 40.319-111.178 42.283-109.869 44.051-108.493 45.622-107.049 47.193-105.612 48.5-103.708 49.549-101.351 50.591-98.992 50.854-96.506 50.331-93.885V-92.706L40.881-45.953-9.412-45.582-18.429-93.522V-93.914C-18.691-95.75-18.623-97.585-18.229-99.415-17.836-101.25-17.185-102.821-16.264-104.129-15.348-105.441-14.235-106.682-12.922-107.859-11.613-109.038-10.306-110.02-8.991-110.806-7.683-111.59-6.504-112.247-5.454-112.768-4.411-113.296-3.624-113.688-3.096-113.945L-1.917-114.339-1.914-122.197C-1.913-123.511-2.441-124.689-3.484-125.733-4.534-126.784-5.713-127.306-7.021-127.307L-75.78-127.335C-77.352-127.336-78.592-126.815-79.513-125.766-80.429-124.722-80.889-123.544-80.89-122.23L-80.893-114.372C-79.843-113.849-78.598-113.131-77.161-112.209-75.725-111.293-73.564-109.199-70.681-105.919-67.803-102.647-65.84-99.041-64.791-95.112L-19.695 114.33C-19.438 118.517-20.68 122.316-23.432 125.723-26.184 129.123-29.003 131.479-31.882 132.791L-36.205 134.755-36.209 142.612C-36.209 144.185-35.756 145.425-34.835 146.346-33.921 147.261-32.675 147.722-31.104 147.723L40.014 147.752C43.415 147.754 45.381 146.184 45.91 143.04Z" fill="#1e1e1e"/>
<path transform="matrix(1,0,0,-1,2143.6143,3446.2235)" d="M0 0C1.044 .522 2.486 1.241 4.321 2.163 6.151 3.078 8.575 5.24 11.589 8.648 14.595 12.051 16.103 15.852 16.102 20.045 16.098 29.475 11.51 34.188 2.344 34.184L-15.337 34.177C-24.509 34.173-29.087 29.456-29.083 20.026L-29.018-136.746C-29.014-145.653-24.432-150.103-15.26-150.099L2.421-150.092C11.587-150.088 16.171-145.635 16.167-136.728V-136.334C16.165-132.147 14.788-128.416 12.037-125.138 9.285-121.867 6.596-119.578 3.979-118.265L.049-116.303 .046-108.444C.046-107.658 .242-106.873 .635-106.087 1.027-105.3 1.616-104.711 2.401-104.317 3.188-103.925 3.974-103.728 4.76-103.728L56.23-103.313C59.896-103.311 61.732-105.274 61.733-109.204L61.749-146.138C61.756-162.382 57.5-174.693 48.995-183.077 40.484-191.468 28.237-195.659 12.263-195.666L-26.243-195.682C-42.487-195.689-54.865-191.508-63.378-183.124-71.896-174.748-76.156-162.44-76.163-146.196L-76.237 29.829C-76.244 46.067-71.994 58.378-63.482 66.769-54.978 75.151-42.603 79.351-26.358 79.357L12.147 79.373C28.122 79.38 40.372 75.191 48.891 66.815 57.402 58.433 61.668 46.126 61.675 29.888L61.69-7.047C61.692-10.718 59.858-12.548 56.192-12.55L4.722-12.965C3.407-12.965 2.296-12.443 1.381-11.394 .46-10.352 .004-9.173 .004-7.858Z" fill="#1e1e1e"/>
<path transform="matrix(1,0,0,-1,2445.3516,3400.126)" d="M0 0 .001-.394 .088-207.852V-208.244C.089-210.865 .68-213.419 1.859-215.905 3.039-218.397 4.415-220.361 5.987-221.798 7.561-223.239 9.132-224.546 10.704-225.725 12.276-226.902 13.713-227.626 15.027-227.884L16.599-228.669 16.602-236.527C16.603-237.841 16.075-239.02 15.032-240.064 13.982-241.114 12.804-241.637 11.496-241.637L-5.792-241.645-41.154-241.659-58.05-241.666C-59.363-241.667-60.542-241.146-61.586-240.097-62.637-239.053-63.158-237.874-63.159-236.561L-63.162-228.702C-61.854-228.18-60.284-227.522-58.448-226.735-56.619-225.949-54.194-223.786-51.183-220.249-48.175-216.712-46.667-212.721-46.669-208.264V-207.871L-46.703-126.931-90.709-126.949-90.675-208.282C-90.673-212.476-89.296-216.337-86.544-219.871-83.792-223.406-81.108-225.701-78.486-226.744L-74.164-228.707-74.161-236.565C-74.16-237.879-74.688-239.058-75.73-240.103-76.78-241.152-77.959-241.675-79.267-241.675L-96.162-241.683-131.524-241.697-148.812-241.704C-150.384-241.705-151.63-241.184-152.545-240.135-153.467-239.091-153.921-237.912-153.922-236.599L-153.925-228.74C-153.667-228.74-153.471-228.679-153.336-228.544-153.207-228.415-152.746-228.15-151.962-227.758-151.176-227.363-150.39-226.971-149.604-226.578-148.818-226.184-147.971-225.662-147.051-225.004-146.137-224.354-145.222-223.629-144.302-222.843-143.387-222.057-142.533-221.141-141.749-220.091-140.963-219.047-140.245-217.929-139.589-216.75-138.938-215.571-138.411-214.264-138.019-212.821-137.627-211.384-137.431-209.873-137.432-208.302V-207.909L-137.519-.451-137.52-.058C-137.521 4.394-138.897 8.321-141.649 11.728-144.401 15.128-147.091 17.355-149.706 18.403L-154.029 20.367-154.033 28.225C-154.033 29.797-153.58 31.037-152.659 31.958-151.745 32.873-150.499 33.334-148.928 33.335L-96.277 33.356C-92.612 33.358-90.775 31.523-90.774 27.858L-90.729-81.371-46.723-81.353-46.769 27.877C-46.77 31.542-44.94 33.379-41.27 33.38L11.381 33.402C12.688 33.402 13.867 32.942 14.918 32.028 15.962 31.108 16.49 29.868 16.49 28.296L16.494 20.438C15.967 20.438 15.315 20.24 14.53 19.848 13.744 19.455 12.431 18.668 10.602 17.488 8.767 16.31 7.128 14.995 5.692 13.558 4.25 12.114 2.943 10.149 1.766 7.662 .588 5.169-.001 2.615 0 0" fill="#1e1e1e"/>
<path transform="matrix(1,0,0,-1,2523.5352,3340.4315)" d="M0 0V-10.504H6.32C9.172-10.504 11.343-10.132 12.832-9.387 14.322-8.643 15.065-7.161 15.065-4.943 15.065-3.422 14.416-2.218 13.118-1.33 11.817-.444 9.806 0 7.081 0ZM0-32.511H-7.891V6.132H10.408C13.262 6.132 15.652 5.68 17.586 4.776 19.518 3.874 20.977 2.59 21.959 .927 22.939-.736 23.432-2.661 23.432-4.848 23.432-7.574 22.513-9.927 20.675-11.906 18.837-13.887 16.285-15.099 13.022-15.542 14.703-16.177 16.056-17.119 17.086-18.37 18.115-19.622 19.486-21.737 21.198-24.716L25.76-32.511H16.017L12.832-26.284C11.343-23.496 10.076-21.429 9.031-20.081 7.983-18.735 6.938-17.824 5.893-17.349 4.848-16.873 3.565-16.636 2.043-16.636H0ZM8.65 16.256C3.357 16.256-1.538 14.948-6.037 12.334-10.536 9.72-14.102 6.162-16.731 1.663-19.361-2.836-20.676-7.731-20.676-13.023-20.676-18.315-19.354-23.219-16.708-27.734-14.063-32.249-10.489-35.807-5.99-38.404-1.491-41.003 3.391-42.302 8.65-42.302 14.005-42.302 18.907-40.995 23.361-38.381 27.812-35.766 31.338-32.209 33.937-27.71 36.533-23.211 37.833-18.315 37.833-13.023 37.833-7.699 36.533-2.788 33.937 1.712 31.338 6.21 27.804 9.759 23.336 12.357 18.868 14.955 13.974 16.256 8.65 16.256M8.555 23.385C13.53 23.385 18.227 22.458 22.647 20.604 27.068 18.75 30.965 16.137 34.34 12.762 37.716 9.388 40.328 5.489 42.183 1.069 44.036-3.351 44.962-8.049 44.962-13.023 44.962-19.613 43.338-25.706 40.091-31.299 36.843-36.891 32.422-41.312 26.831-44.56 21.237-47.807 15.146-49.431 8.555-49.431 1.965-49.431-4.129-47.807-9.72-44.56-15.313-41.312-19.734-36.891-22.981-31.299-26.229-25.706-27.854-19.613-27.854-13.023-27.854-6.433-26.229-.341-22.981 5.252-19.734 10.845-15.313 15.265-9.72 18.513-4.129 21.761 1.965 23.385 8.555 23.385" fill="#d4d1c7"/>
<path transform="matrix(1,0,0,-1,1006.8652,3755.4239)" d="M0 0H-4.309V54.543H0V20.508L21.8 41.359 24.816 38.344C22.489 36.534 14.993 32.398 9.134 26.28L7.669 24.729 28.004 .689 23.954-1.206 19.818 3.705C19.301 4.309 5.17 22.403 5.17 22.403L0 17.405Z" fill="#d4d1c7"/>
<path transform="matrix(1,0,0,-1,1111.6406,3731.211)" d="M0 0C0 8.703-5.17 14.562-12.752 14.562-19.818 14.562-24.73 8.789-25.764-.173ZM-25.936-3.705C-25.936-15.079-19.991-22.748-11.116-22.748-9.047-22.748-5.945-21.628-4.05-20.767L1.896-18.095 3.36-21.283C1.723-21.973-4.912-24.902-11.805-24.902-23.006-24.902-30.589-16.544-30.589-3.964-30.589 8.444-23.179 16.716-12.149 16.716-2.24 16.716 4.395 9.909 4.395-.259V-2.844L-25.85-2.326C-25.85-2.758-25.936-3.188-25.936-3.705" fill="#d4d1c7"/>
<path transform="matrix(1,0,0,-1,1195.6484,3731.211)" d="M0 0C0 8.703-5.17 14.562-12.752 14.562-19.818 14.562-24.73 8.789-25.764-.173ZM-25.936-3.705C-25.936-15.079-19.991-22.748-11.116-22.748-9.047-22.748-5.945-21.628-4.05-20.767L1.896-18.095 3.36-21.283C1.723-21.973-4.912-24.902-11.805-24.902-23.006-24.902-30.589-16.544-30.589-3.964-30.589 8.444-23.179 16.716-12.149 16.716-2.24 16.716 4.395 9.909 4.395-.259V-2.844L-25.85-2.326C-25.85-2.758-25.936-3.188-25.936-3.705" fill="#d4d1c7"/>
<path transform="matrix(1,0,0,-1,1256.3052,3748.5303)" d="M0 0 10.254-3.619C12.58-4.48 14.648-4.653 15.941-4.653 21.456-4.653 25.074 2.499 25.074 13.184 25.074 23.868 21.456 31.105 15.941 31.105 14.648 31.105 12.58 30.934 10.254 30.072L0 26.28ZM-2.327 33.604-.431 28.09 8.875 31.881C11.977 33.174 14.476 34.035 17.061 34.035 24.729 34.035 29.728 25.678 29.728 13.184 29.728 .689 24.729-7.583 17.061-7.583 14.476-7.583 11.977-6.635 8.875-5.429L0-1.896V-21.283H-4.309V33.346Z" fill="#d4d1c7"/>
<path transform="matrix(1,0,0,-1,1404.1592,3718.8028)" d="M0 0V2.153H7.841V10.598L12.149 12.58V2.153C19.474 2.153 24.644 2.843 26.194 2.843V0H12.149V-12.926C12.149-16.631 11.46-25.851 11.46-27.315 11.46-32.485 13.873-34.467 20.249-34.467 21.197-34.467 23.782-33.863 24.902-33.52L25.85-35.587C22.662-36.707 18.871-37.311 17.578-37.311 11.288-37.311 7.841-33.863 7.841-27.315V0Z" fill="#d4d1c7"/>
<path transform="matrix(1,0,0,-1,1496.353,3719.4923)" d="M0 0C-2.758 0-5.257-1.379-7.411-3.533L-10.771-6.894V-35.932H-15.08V4.308L-13.098 4.652-10.771-3.878-7.841-.862C-3.964 3.016-1.896 5.601 2.843 5.601L2.24 0Z" fill="#d4d1c7"/>
<path transform="matrix(1,0,0,-1,1559.5098,3735.6915)" d="M0 0C-6.376 0-10.081-3.878-10.081-9.651-10.081-14.39-7.237-17.578-2.067-17.578-1.12-17.578 1.207-17.406 2.327-16.975L13.787-12.839V0ZM18.096 10.167V-10.771C18.096-13.701 19.302-18.612 19.561-19.388L15.941-20.077 14.046-14.734 3.705-18.784C.604-19.991-.947-20.422-2.24-20.422-9.65-20.422-14.562-16.027-14.562-9.307-14.562-2.413-8.788 2.154-.775 2.154H13.787V9.995C13.787 15.854 10.082 19.042 3.188 19.042 .173 19.042-2.757 18.267-5.083 17.233L-9.909 15.079-11.115 18.354C-9.736 18.956-3.016 21.196 3.188 21.196 12.926 21.196 18.096 17.319 18.096 10.167" fill="#d4d1c7"/>
<path transform="matrix(1,0,0,-1,0,4036.626)" d="M1631.799 321.441H1636.1069V281.20204H1631.799ZM1635.073 331.093H1632.833C1631.799 331.093 1631.454 331.438 1631.454 332.385V335.056C1631.454 335.832 1631.799 336.177 1632.833 336.177H1635.073C1636.106 336.177 1636.451 335.832 1636.451 335.056V332.385C1636.451 331.438 1636.106 331.093 1635.073 331.093" fill="#d4d1c7"/>
<path transform="matrix(1,0,0,-1,1694.9551,3755.4239)" d="M0 0H-4.308V40.239L-1.981 40.498-.345 35.156 10.341 39.292C13.873 40.671 16.544 40.929 19.043 40.929 25.333 40.929 28.693 37.396 28.693 30.934V0H24.386V30.072C24.386 35.414 21.801 38.344 17.062 38.344 15.597 38.344 13.271 37.913 12.063 37.482L0 33.347Z" fill="#d4d1c7"/>
<path transform="matrix(1,0,0,-1,0,4036.626)" d="M1777.844 321.441H1782.152V281.20204H1777.844ZM1781.118 331.093H1778.878C1777.844 331.093 1777.499 331.438 1777.499 332.385V335.056C1777.499 335.832 1777.844 336.177 1778.878 336.177H1781.118C1782.151 336.177 1782.496 335.832 1782.496 335.056V332.385C1782.496 331.438 1782.151 331.093 1781.118 331.093" fill="#d4d1c7"/>
<path transform="matrix(1,0,0,-1,1841.001,3755.4239)" d="M0 0H-4.308V40.239L-1.981 40.498-.345 35.156 10.341 39.292C13.873 40.671 16.544 40.929 19.043 40.929 25.333 40.929 28.693 37.396 28.693 30.934V0H24.386V30.072C24.386 35.414 21.801 38.344 17.062 38.344 15.597 38.344 13.271 37.913 12.063 37.482L0 33.347Z" fill="#d4d1c7"/>
<path transform="matrix(1,0,0,-1,1940.8633,3718.458)" d="M0 0C-2.326 .861-4.395 1.033-5.687 1.033-11.202 1.033-14.82-6.204-14.82-16.889-14.82-27.573-11.202-34.726-5.687-34.726-4.395-34.726-2.326-34.553 0-33.691L10.254-30.072V-3.792ZM14.562-38.861C14.562-46.271 9.134-51.355 .861-51.355L-14.648-51.27V-47.736C-11.547-47.736-4.911-49.201 .172-49.201 6.721-49.201 10.254-46.014 10.254-40.154V-31.968L1.379-35.501C-1.724-36.707-4.223-37.655-6.808-37.655-14.476-37.655-19.474-29.383-19.474-16.889-19.474-4.395-14.476 3.963-6.808 3.963-4.223 3.963-1.724 3.102 1.379 1.809L10.685-1.982 12.58 3.532 14.562 3.273Z" fill="#d4d1c7"/>
</g>
</g>
</svg>
